<?xml version="1.0" encoding="UTF-8" standalone="no"?>
<!DOCTYPE svg PUBLIC "-//W3C//DTD SVG 1.1//EN"
 "http://www.w3.org/Graphics/SVG/1.1/DTD/svg11.dtd">
<!-- Generated by graphviz version 2.40.1 (20161225.0304)
 -->
<!-- Title: controllers_diagram Pages: 1 -->
<svg width="516pt" height="177pt"
 viewBox="0.00 0.00 516.00 177.00" xmlns="http://www.w3.org/2000/svg" xmlns:xlink="http://www.w3.org/1999/xlink">
<g id="graph0" class="graph" transform="scale(1 1) rotate(0) translate(4 173)">
<title>controllers_diagram</title>
<polygon fill="transparent" stroke="transparent" points="-4,4 -4,-173 512,-173 512,4 -4,4"/>
<!-- ApplicationController -->
<g id="node1" class="node">
<title>ApplicationController</title>
<path fill="none" stroke="#000000" d="M12,-37.5C12,-37.5 124,-37.5 124,-37.5 130,-37.5 136,-43.5 136,-49.5 136,-49.5 136,-119.5 136,-119.5 136,-125.5 130,-131.5 124,-131.5 124,-131.5 12,-131.5 12,-131.5 6,-131.5 0,-125.5 0,-119.5 0,-119.5 0,-49.5 0,-49.5 0,-43.5 6,-37.5 12,-37.5"/>
<text text-anchor="middle" x="68" y="-116.3" font-family="Times,serif" font-size="14.00" fill="#000000">ApplicationController</text>
<polyline fill="none" stroke="#000000" points="0,-108.5 136,-108.5 "/>
<polyline fill="none" stroke="#000000" points="0,-84.5 136,-84.5 "/>
<polyline fill="none" stroke="#000000" points="0,-60.5 136,-60.5 "/>
<text text-anchor="start" x="8" y="-45.3" font-family="Times,serif" font-size="14.00" fill="#000000">_layout</text>
</g>
<!-- ItemsController -->
<g id="node2" class="node">
<title>ItemsController</title>
<path fill="none" stroke="#000000" d="M166.5,-.5C166.5,-.5 245.5,-.5 245.5,-.5 251.5,-.5 257.5,-6.5 257.5,-12.5 257.5,-12.5 257.5,-156.5 257.5,-156.5 257.5,-162.5 251.5,-168.5 245.5,-168.5 245.5,-168.5 166.5,-168.5 166.5,-168.5 160.5,-168.5 154.5,-162.5 154.5,-156.5 154.5,-156.5 154.5,-12.5 154.5,-12.5 154.5,-6.5 160.5,-.5 166.5,-.5"/>
<text text-anchor="middle" x="206" y="-153.3" font-family="Times,serif" font-size="14.00" fill="#000000">ItemsController</text>
<polyline fill="none" stroke="#000000" points="154.5,-145.5 257.5,-145.5 "/>
<text text-anchor="start" x="162.5" y="-130.3" font-family="Times,serif" font-size="14.00" fill="#000000">create</text>
<text text-anchor="start" x="162.5" y="-115.3" font-family="Times,serif" font-size="14.00" fill="#000000">destroy</text>
<text text-anchor="start" x="162.5" y="-100.3" font-family="Times,serif" font-size="14.00" fill="#000000">edit</text>
<text text-anchor="start" x="162.5" y="-85.3" font-family="Times,serif" font-size="14.00" fill="#000000">index</text>
<text text-anchor="start" x="162.5" y="-70.3" font-family="Times,serif" font-size="14.00" fill="#000000">update</text>
<polyline fill="none" stroke="#000000" points="154.5,-62.5 257.5,-62.5 "/>
<polyline fill="none" stroke="#000000" points="154.5,-38.5 257.5,-38.5 "/>
<text text-anchor="start" x="162.5" y="-23.3" font-family="Times,serif" font-size="14.00" fill="#000000">_layout</text>
<text text-anchor="start" x="162.5" y="-8.3" font-family="Times,serif" font-size="14.00" fill="#000000">item_params</text>
</g>
<!-- OutfitsController -->
<g id="node3" class="node">
<title>OutfitsController</title>
<path fill="none" stroke="#000000" d="M288,-23C288,-23 374,-23 374,-23 380,-23 386,-29 386,-35 386,-35 386,-134 386,-134 386,-140 380,-146 374,-146 374,-146 288,-146 288,-146 282,-146 276,-140 276,-134 276,-134 276,-35 276,-35 276,-29 282,-23 288,-23"/>
<text text-anchor="middle" x="331" y="-130.8" font-family="Times,serif" font-size="14.00" fill="#000000">OutfitsController</text>
<polyline fill="none" stroke="#000000" points="276,-123 386,-123 "/>
<text text-anchor="start" x="284" y="-107.8" font-family="Times,serif" font-size="14.00" fill="#000000">create</text>
<text text-anchor="start" x="284" y="-92.8" font-family="Times,serif" font-size="14.00" fill="#000000">index</text>
<text text-anchor="start" x="284" y="-77.8" font-family="Times,serif" font-size="14.00" fill="#000000">show</text>
<polyline fill="none" stroke="#000000" points="276,-70 386,-70 "/>
<polyline fill="none" stroke="#000000" points="276,-46 386,-46 "/>
<text text-anchor="start" x="284" y="-30.8" font-family="Times,serif" font-size="14.00" fill="#000000">_layout</text>
</g>
<!-- PagesController -->
<g id="node4" class="node">
<title>PagesController</title>
<path fill="none" stroke="#000000" d="M416,-23C416,-23 496,-23 496,-23 502,-23 508,-29 508,-35 508,-35 508,-134 508,-134 508,-140 502,-146 496,-146 496,-146 416,-146 416,-146 410,-146 404,-140 404,-134 404,-134 404,-35 404,-35 404,-29 410,-23 416,-23"/>
<text text-anchor="middle" x="456" y="-130.8" font-family="Times,serif" font-size="14.00" fill="#000000">PagesController</text>
<polyline fill="none" stroke="#000000" points="404,-123 508,-123 "/>
<text text-anchor="start" x="412" y="-107.8" font-family="Times,serif" font-size="14.00" fill="#000000">csscomponents</text>
<text text-anchor="start" x="412" y="-92.8" font-family="Times,serif" font-size="14.00" fill="#000000">home</text>
<text text-anchor="start" x="412" y="-77.8" font-family="Times,serif" font-size="14.00" fill="#000000">menu</text>
<polyline fill="none" stroke="#000000" points="404,-70 508,-70 "/>
<polyline fill="none" stroke="#000000" points="404,-46 508,-46 "/>
<text text-anchor="start" x="412" y="-30.8" font-family="Times,serif" font-size="14.00" fill="#000000">_layout</text>
</g>
</g>
</svg>
