<?xml version="1.0" encoding="UTF-8" standalone="no"?>
<!DOCTYPE svg PUBLIC "-//W3C//DTD SVG 1.1//EN"
 "http://www.w3.org/Graphics/SVG/1.1/DTD/svg11.dtd">
<!-- Generated by graphviz version 2.40.1 (20161225.0304)
 -->
<!-- Title: models_diagram Pages: 1 -->
<svg width="756pt" height="175pt"
 viewBox="0.00 0.00 755.84 175.00" xmlns="http://www.w3.org/2000/svg" xmlns:xlink="http://www.w3.org/1999/xlink">
<g id="graph0" class="graph" transform="scale(1 1) rotate(0) translate(4 171)">
<title>models_diagram</title>
<polygon fill="transparent" stroke="transparent" points="-4,4 -4,-171 751.8431,-171 751.8431,4 -4,4"/>
<!-- ApplicationRecord -->
<g id="node1" class="node">
<title>ApplicationRecord</title>
<ellipse fill="none" stroke="#000000" cx="77.3431" cy="-83.5" rx="77.1866" ry="18"/>
<text text-anchor="middle" x="77.3431" y="-79.8" font-family="Times,serif" font-size="14.00" fill="#000000">ApplicationRecord</text>
</g>
<!-- District -->
<g id="node2" class="node">
<title>District</title>
<path fill="none" stroke="#000000" d="M184.3431,-23C184.3431,-23 404.3431,-23 404.3431,-23 410.3431,-23 416.3431,-29 416.3431,-35 416.3431,-35 416.3431,-132 416.3431,-132 416.3431,-138 410.3431,-144 404.3431,-144 404.3431,-144 184.3431,-144 184.3431,-144 178.3431,-144 172.3431,-138 172.3431,-132 172.3431,-132 172.3431,-35 172.3431,-35 172.3431,-29 178.3431,-23 184.3431,-23"/>
<text text-anchor="middle" x="294.3431" y="-128.8" font-family="Times,serif" font-size="14.00" fill="#000000">District</text>
<polyline fill="none" stroke="#000000" points="172.3431,-121 416.3431,-121 "/>
<text text-anchor="start" x="180.3431" y="-105.8" font-family="Times,serif" font-size="14.00" fill="#000000">id :bigint</text>
<text text-anchor="start" x="180.3431" y="-90.8" font-family="Times,serif" font-size="14.00" fill="#000000">name :character varying</text>
<text text-anchor="start" x="180.3431" y="-75.8" font-family="Times,serif" font-size="14.00" fill="#000000">score :double precision</text>
<text text-anchor="start" x="180.3431" y="-60.8" font-family="Times,serif" font-size="14.00" fill="#000000">coordinates :jsonb</text>
<text text-anchor="start" x="180.3431" y="-45.8" font-family="Times,serif" font-size="14.00" fill="#000000">created_at :timestamp without time zone</text>
<text text-anchor="start" x="180.3431" y="-30.8" font-family="Times,serif" font-size="14.00" fill="#000000">updated_at :timestamp without time zone</text>
</g>
<!-- User -->
<g id="node3" class="node">
<title>User</title>
<path fill="none" stroke="#000000" d="M446.8431,-.5C446.8431,-.5 735.8431,-.5 735.8431,-.5 741.8431,-.5 747.8431,-6.5 747.8431,-12.5 747.8431,-12.5 747.8431,-154.5 747.8431,-154.5 747.8431,-160.5 741.8431,-166.5 735.8431,-166.5 735.8431,-166.5 446.8431,-166.5 446.8431,-166.5 440.8431,-166.5 434.8431,-160.5 434.8431,-154.5 434.8431,-154.5 434.8431,-12.5 434.8431,-12.5 434.8431,-6.5 440.8431,-.5 446.8431,-.5"/>
<text text-anchor="middle" x="591.3431" y="-151.3" font-family="Times,serif" font-size="14.00" fill="#000000">User</text>
<polyline fill="none" stroke="#000000" points="434.8431,-143.5 747.8431,-143.5 "/>
<text text-anchor="start" x="442.8431" y="-128.3" font-family="Times,serif" font-size="14.00" fill="#000000">id :bigint</text>
<text text-anchor="start" x="442.8431" y="-113.3" font-family="Times,serif" font-size="14.00" fill="#000000">email :character varying</text>
<text text-anchor="start" x="442.8431" y="-98.3" font-family="Times,serif" font-size="14.00" fill="#000000">encrypted_password :character varying</text>
<text text-anchor="start" x="442.8431" y="-83.3" font-family="Times,serif" font-size="14.00" fill="#000000">reset_password_token :character varying</text>
<text text-anchor="start" x="442.8431" y="-68.3" font-family="Times,serif" font-size="14.00" fill="#000000">reset_password_sent_at :timestamp without time zone</text>
<text text-anchor="start" x="442.8431" y="-53.3" font-family="Times,serif" font-size="14.00" fill="#000000">remember_created_at :timestamp without time zone</text>
<text text-anchor="start" x="442.8431" y="-38.3" font-family="Times,serif" font-size="14.00" fill="#000000">created_at :timestamp without time zone</text>
<text text-anchor="start" x="442.8431" y="-23.3" font-family="Times,serif" font-size="14.00" fill="#000000">updated_at :timestamp without time zone</text>
<text text-anchor="start" x="442.8431" y="-8.3" font-family="Times,serif" font-size="14.00" fill="#000000">username :character varying</text>
</g>
</g>
</svg>
