<?xml version="1.0" encoding="UTF-8" standalone="no"?>
<!DOCTYPE svg PUBLIC "-//W3C//DTD SVG 1.1//EN"
 "http://www.w3.org/Graphics/SVG/1.1/DTD/svg11.dtd">
<!-- Generated by graphviz version 2.40.1 (20161225.0304)
 -->
<!-- Title: models_diagram Pages: 1 -->
<svg width="466pt" height="521pt"
 viewBox="0.00 0.00 466.14 521.00" xmlns="http://www.w3.org/2000/svg" xmlns:xlink="http://www.w3.org/1999/xlink">
<g id="graph0" class="graph" transform="scale(1 1) rotate(0) translate(4 517)">
<title>models_diagram</title>
<polygon fill="transparent" stroke="transparent" points="-4,4 -4,-517 462.1423,-517 462.1423,4 -4,4"/>
<!-- ApplicationRecord -->
<g id="node1" class="node">
<title>ApplicationRecord</title>
<ellipse fill="none" stroke="#000000" cx="77.3431" cy="-474.5" rx="77.1866" ry="18"/>
<text text-anchor="middle" x="77.3431" y="-470.8" font-family="Times,serif" font-size="14.00" fill="#000000">ApplicationRecord</text>
</g>
<!-- Favorite -->
<g id="node2" class="node">
<title>Favorite</title>
<path fill="none" stroke="#000000" d="M184.3431,-436.5C184.3431,-436.5 404.3431,-436.5 404.3431,-436.5 410.3431,-436.5 416.3431,-442.5 416.3431,-448.5 416.3431,-448.5 416.3431,-500.5 416.3431,-500.5 416.3431,-506.5 410.3431,-512.5 404.3431,-512.5 404.3431,-512.5 184.3431,-512.5 184.3431,-512.5 178.3431,-512.5 172.3431,-506.5 172.3431,-500.5 172.3431,-500.5 172.3431,-448.5 172.3431,-448.5 172.3431,-442.5 178.3431,-436.5 184.3431,-436.5"/>
<text text-anchor="middle" x="294.3431" y="-497.3" font-family="Times,serif" font-size="14.00" fill="#000000">Favorite</text>
<polyline fill="none" stroke="#000000" points="172.3431,-489.5 416.3431,-489.5 "/>
<text text-anchor="start" x="180.3431" y="-474.3" font-family="Times,serif" font-size="14.00" fill="#000000">id :bigint</text>
<text text-anchor="start" x="180.3431" y="-459.3" font-family="Times,serif" font-size="14.00" fill="#000000">created_at :timestamp without time zone</text>
<text text-anchor="start" x="180.3431" y="-444.3" font-family="Times,serif" font-size="14.00" fill="#000000">updated_at :timestamp without time zone</text>
</g>
<!-- Project -->
<g id="node3" class="node">
<title>Project</title>
<path fill="none" stroke="#000000" d="M184.3431,-188.5C184.3431,-188.5 404.3431,-188.5 404.3431,-188.5 410.3431,-188.5 416.3431,-194.5 416.3431,-200.5 416.3431,-200.5 416.3431,-387.5 416.3431,-387.5 416.3431,-393.5 410.3431,-399.5 404.3431,-399.5 404.3431,-399.5 184.3431,-399.5 184.3431,-399.5 178.3431,-399.5 172.3431,-393.5 172.3431,-387.5 172.3431,-387.5 172.3431,-200.5 172.3431,-200.5 172.3431,-194.5 178.3431,-188.5 184.3431,-188.5"/>
<text text-anchor="middle" x="294.3431" y="-384.3" font-family="Times,serif" font-size="14.00" fill="#000000">Project</text>
<polyline fill="none" stroke="#000000" points="172.3431,-376.5 416.3431,-376.5 "/>
<text text-anchor="start" x="180.3431" y="-361.3" font-family="Times,serif" font-size="14.00" fill="#000000">id :bigint</text>
<text text-anchor="start" x="180.3431" y="-346.3" font-family="Times,serif" font-size="14.00" fill="#000000">name :character varying</text>
<text text-anchor="start" x="180.3431" y="-331.3" font-family="Times,serif" font-size="14.00" fill="#000000">short_description :text</text>
<text text-anchor="start" x="180.3431" y="-316.3" font-family="Times,serif" font-size="14.00" fill="#000000">long_description :text</text>
<text text-anchor="start" x="180.3431" y="-301.3" font-family="Times,serif" font-size="14.00" fill="#000000">url :character varying</text>
<text text-anchor="start" x="180.3431" y="-286.3" font-family="Times,serif" font-size="14.00" fill="#000000">location :character varying</text>
<text text-anchor="start" x="180.3431" y="-271.3" font-family="Times,serif" font-size="14.00" fill="#000000">organization :character varying</text>
<text text-anchor="start" x="180.3431" y="-256.3" font-family="Times,serif" font-size="14.00" fill="#000000">org_description :text</text>
<text text-anchor="start" x="180.3431" y="-241.3" font-family="Times,serif" font-size="14.00" fill="#000000">active :boolean</text>
<text text-anchor="start" x="180.3431" y="-226.3" font-family="Times,serif" font-size="14.00" fill="#000000">photo :character varying</text>
<text text-anchor="start" x="180.3431" y="-211.3" font-family="Times,serif" font-size="14.00" fill="#000000">created_at :timestamp without time zone</text>
<text text-anchor="start" x="180.3431" y="-196.3" font-family="Times,serif" font-size="14.00" fill="#000000">updated_at :timestamp without time zone</text>
</g>
<!-- Favorite&#45;&gt;Project -->
<g id="edge1" class="edge">
<title>Favorite&#45;&gt;Project</title>
<path fill="none" stroke="#0304bc" d="M288.354,-427.9931C288.1353,-422.196 287.9637,-416.0814 287.8393,-409.7861"/>
<ellipse fill="none" stroke="#0304bc" cx="288.5356" cy="-432.2243" rx="4" ry="4"/>
<polygon fill="#0304bc" stroke="#0304bc" points="287.839,-409.7633 292.182,-399.6941 287.7608,-404.7639 287.6826,-399.7645 287.6826,-399.7645 287.6826,-399.7645 287.7608,-404.7639 283.1831,-399.8349 287.839,-409.7633 287.839,-409.7633"/>
</g>
<!-- Project&#45;&gt;Favorite -->
<g id="edge3" class="edge">
<title>Project&#45;&gt;Favorite</title>
<path fill="none" stroke="#332812" d="M300.8843,-407.8148C300.7704,-414.1089 300.6099,-420.2386 300.4027,-426.0693"/>
<ellipse fill="none" stroke="#332812" cx="300.9443" cy="-403.7641" rx="4" ry="4"/>
<polygon fill="#332812" stroke="#332812" points="300.3961,-426.2293 295.483,-436.0329 300.1876,-431.2249 299.9791,-436.2206 299.9791,-436.2206 299.9791,-436.2206 300.1876,-431.2249 304.4752,-436.4082 300.3961,-426.2293 300.3961,-426.2293"/>
</g>
<!-- User -->
<g id="node4" class="node">
<title>User</title>
<path fill="none" stroke="#000000" d="M149.8431,-.5C149.8431,-.5 438.8431,-.5 438.8431,-.5 444.8431,-.5 450.8431,-6.5 450.8431,-12.5 450.8431,-12.5 450.8431,-139.5 450.8431,-139.5 450.8431,-145.5 444.8431,-151.5 438.8431,-151.5 438.8431,-151.5 149.8431,-151.5 149.8431,-151.5 143.8431,-151.5 137.8431,-145.5 137.8431,-139.5 137.8431,-139.5 137.8431,-12.5 137.8431,-12.5 137.8431,-6.5 143.8431,-.5 149.8431,-.5"/>
<text text-anchor="middle" x="294.3431" y="-136.3" font-family="Times,serif" font-size="14.00" fill="#000000">User</text>
<polyline fill="none" stroke="#000000" points="137.8431,-128.5 450.8431,-128.5 "/>
<text text-anchor="start" x="145.8431" y="-113.3" font-family="Times,serif" font-size="14.00" fill="#000000">id :bigint</text>
<text text-anchor="start" x="145.8431" y="-98.3" font-family="Times,serif" font-size="14.00" fill="#000000">email :character varying</text>
<text text-anchor="start" x="145.8431" y="-83.3" font-family="Times,serif" font-size="14.00" fill="#000000">encrypted_password :character varying</text>
<text text-anchor="start" x="145.8431" y="-68.3" font-family="Times,serif" font-size="14.00" fill="#000000">reset_password_token :character varying</text>
<text text-anchor="start" x="145.8431" y="-53.3" font-family="Times,serif" font-size="14.00" fill="#000000">reset_password_sent_at :timestamp without time zone</text>
<text text-anchor="start" x="145.8431" y="-38.3" font-family="Times,serif" font-size="14.00" fill="#000000">remember_created_at :timestamp without time zone</text>
<text text-anchor="start" x="145.8431" y="-23.3" font-family="Times,serif" font-size="14.00" fill="#000000">created_at :timestamp without time zone</text>
<text text-anchor="start" x="145.8431" y="-8.3" font-family="Times,serif" font-size="14.00" fill="#000000">updated_at :timestamp without time zone</text>
</g>
<!-- Project&#45;&gt;User -->
<g id="edge2" class="edge">
<title>Project&#45;&gt;User</title>
<path fill="none" stroke="#da3f4f" d="M287.5993,-180.0759C287.6147,-173.8896 287.6591,-167.7245 287.7326,-161.6605"/>
<ellipse fill="none" stroke="#da3f4f" cx="287.5975" cy="-184.193" rx="4" ry="4"/>
<polygon fill="#da3f4f" stroke="#da3f4f" points="287.734,-161.5636 292.3832,-151.6322 287.8088,-156.5642 287.8837,-151.5648 287.8837,-151.5648 287.8837,-151.5648 287.8088,-156.5642 283.3842,-151.4974 287.734,-161.5636 287.734,-161.5636"/>
</g>
<!-- User&#45;&gt;Favorite -->
<g id="edge5" class="edge">
<title>User&#45;&gt;Favorite</title>
<path fill="none" stroke="#53535f" d="M406.6231,-158.1472C414.0248,-167.4321 420.4602,-177.4011 425.3431,-188 464.7684,-273.5773 472.7196,-318.5549 425.3431,-400 418.5814,-411.6241 409.2542,-421.5837 398.6642,-430.0786"/>
<ellipse fill="none" stroke="#53535f" cx="403.9143" cy="-154.9005" rx="4" ry="4"/>
<polygon fill="#53535f" stroke="#53535f" points="398.3544,-430.3098 387.6492,-432.6866 394.3479,-433.3011 390.3413,-436.2924 390.3413,-436.2924 390.3413,-436.2924 394.3479,-433.3011 393.0335,-439.8983 398.3544,-430.3098 398.3544,-430.3098"/>
</g>
<!-- User&#45;&gt;Project -->
<g id="edge4" class="edge">
<title>User&#45;&gt;Project</title>
<path fill="none" stroke="#b671f6" d="M300.929,-159.7117C301.0086,-165.7413 301.0592,-171.8802 301.0809,-178.0488"/>
<ellipse fill="none" stroke="#b671f6" cx="300.8647" cy="-155.5643" rx="4" ry="4"/>
<polygon fill="#b671f6" stroke="#b671f6" points="301.081,-178.193 296.5906,-188.1973 301.0858,-183.193 301.0906,-188.193 301.0906,-188.193 301.0906,-188.193 301.0858,-183.193 305.5906,-188.1886 301.081,-178.193 301.081,-178.193"/>
</g>
</g>
</svg>
