<?xml version="1.0" encoding="UTF-8" standalone="no"?>
<!DOCTYPE svg PUBLIC "-//W3C//DTD SVG 1.1//EN"
 "http://www.w3.org/Graphics/SVG/1.1/DTD/svg11.dtd">
<!-- Generated by graphviz version 2.40.1 (20161225.0304)
 -->
<!-- Title: models_diagram Pages: 1 -->
<svg width="459pt" height="671pt"
 viewBox="0.00 0.00 458.84 671.00" xmlns="http://www.w3.org/2000/svg" xmlns:xlink="http://www.w3.org/1999/xlink">
<g id="graph0" class="graph" transform="scale(1 1) rotate(0) translate(4 667)">
<title>models_diagram</title>
<polygon fill="transparent" stroke="transparent" points="-4,4 -4,-667 454.8431,-667 454.8431,4 -4,4"/>
<!-- ApplicationRecord -->
<g id="node1" class="node">
<title>ApplicationRecord</title>
<ellipse fill="none" stroke="#000000" cx="77.3431" cy="-557" rx="77.1866" ry="18"/>
<text text-anchor="middle" x="77.3431" y="-553.3" font-family="Times,serif" font-size="14.00" fill="#000000">ApplicationRecord</text>
</g>
<!-- Favorite -->
<g id="node2" class="node">
<title>Favorite</title>
<path fill="none" stroke="#000000" d="M184.3431,-.5C184.3431,-.5 404.3431,-.5 404.3431,-.5 410.3431,-.5 416.3431,-6.5 416.3431,-12.5 416.3431,-12.5 416.3431,-94.5 416.3431,-94.5 416.3431,-100.5 410.3431,-106.5 404.3431,-106.5 404.3431,-106.5 184.3431,-106.5 184.3431,-106.5 178.3431,-106.5 172.3431,-100.5 172.3431,-94.5 172.3431,-94.5 172.3431,-12.5 172.3431,-12.5 172.3431,-6.5 178.3431,-.5 184.3431,-.5"/>
<text text-anchor="middle" x="294.3431" y="-91.3" font-family="Times,serif" font-size="14.00" fill="#000000">Favorite</text>
<polyline fill="none" stroke="#000000" points="172.3431,-83.5 416.3431,-83.5 "/>
<text text-anchor="start" x="180.3431" y="-68.3" font-family="Times,serif" font-size="14.00" fill="#000000">id :bigint</text>
<text text-anchor="start" x="180.3431" y="-53.3" font-family="Times,serif" font-size="14.00" fill="#000000">project_id :bigint</text>
<text text-anchor="start" x="180.3431" y="-38.3" font-family="Times,serif" font-size="14.00" fill="#000000">user_id :bigint</text>
<text text-anchor="start" x="180.3431" y="-23.3" font-family="Times,serif" font-size="14.00" fill="#000000">created_at :timestamp without time zone</text>
<text text-anchor="start" x="180.3431" y="-8.3" font-family="Times,serif" font-size="14.00" fill="#000000">updated_at :timestamp without time zone</text>
</g>
<!-- Project -->
<g id="node3" class="node">
<title>Project</title>
<path fill="none" stroke="#000000" d="M184.3431,-451.5C184.3431,-451.5 404.3431,-451.5 404.3431,-451.5 410.3431,-451.5 416.3431,-457.5 416.3431,-463.5 416.3431,-463.5 416.3431,-650.5 416.3431,-650.5 416.3431,-656.5 410.3431,-662.5 404.3431,-662.5 404.3431,-662.5 184.3431,-662.5 184.3431,-662.5 178.3431,-662.5 172.3431,-656.5 172.3431,-650.5 172.3431,-650.5 172.3431,-463.5 172.3431,-463.5 172.3431,-457.5 178.3431,-451.5 184.3431,-451.5"/>
<text text-anchor="middle" x="294.3431" y="-647.3" font-family="Times,serif" font-size="14.00" fill="#000000">Project</text>
<polyline fill="none" stroke="#000000" points="172.3431,-639.5 416.3431,-639.5 "/>
<text text-anchor="start" x="180.3431" y="-624.3" font-family="Times,serif" font-size="14.00" fill="#000000">id :bigint</text>
<text text-anchor="start" x="180.3431" y="-609.3" font-family="Times,serif" font-size="14.00" fill="#000000">name :character varying</text>
<text text-anchor="start" x="180.3431" y="-594.3" font-family="Times,serif" font-size="14.00" fill="#000000">short_description :text</text>
<text text-anchor="start" x="180.3431" y="-579.3" font-family="Times,serif" font-size="14.00" fill="#000000">long_description :text</text>
<text text-anchor="start" x="180.3431" y="-564.3" font-family="Times,serif" font-size="14.00" fill="#000000">url :character varying</text>
<text text-anchor="start" x="180.3431" y="-549.3" font-family="Times,serif" font-size="14.00" fill="#000000">location :character varying</text>
<text text-anchor="start" x="180.3431" y="-534.3" font-family="Times,serif" font-size="14.00" fill="#000000">organization :character varying</text>
<text text-anchor="start" x="180.3431" y="-519.3" font-family="Times,serif" font-size="14.00" fill="#000000">org_description :text</text>
<text text-anchor="start" x="180.3431" y="-504.3" font-family="Times,serif" font-size="14.00" fill="#000000">active :boolean</text>
<text text-anchor="start" x="180.3431" y="-489.3" font-family="Times,serif" font-size="14.00" fill="#000000">photo :character varying</text>
<text text-anchor="start" x="180.3431" y="-474.3" font-family="Times,serif" font-size="14.00" fill="#000000">created_at :timestamp without time zone</text>
<text text-anchor="start" x="180.3431" y="-459.3" font-family="Times,serif" font-size="14.00" fill="#000000">updated_at :timestamp without time zone</text>
</g>
<!-- User -->
<g id="node4" class="node">
<title>User</title>
<path fill="none" stroke="#000000" d="M149.8431,-143.5C149.8431,-143.5 438.8431,-143.5 438.8431,-143.5 444.8431,-143.5 450.8431,-149.5 450.8431,-155.5 450.8431,-155.5 450.8431,-402.5 450.8431,-402.5 450.8431,-408.5 444.8431,-414.5 438.8431,-414.5 438.8431,-414.5 149.8431,-414.5 149.8431,-414.5 143.8431,-414.5 137.8431,-408.5 137.8431,-402.5 137.8431,-402.5 137.8431,-155.5 137.8431,-155.5 137.8431,-149.5 143.8431,-143.5 149.8431,-143.5"/>
<text text-anchor="middle" x="294.3431" y="-399.3" font-family="Times,serif" font-size="14.00" fill="#000000">User</text>
<polyline fill="none" stroke="#000000" points="137.8431,-391.5 450.8431,-391.5 "/>
<text text-anchor="start" x="145.8431" y="-376.3" font-family="Times,serif" font-size="14.00" fill="#000000">id :bigint</text>
<text text-anchor="start" x="145.8431" y="-361.3" font-family="Times,serif" font-size="14.00" fill="#000000">email :character varying</text>
<text text-anchor="start" x="145.8431" y="-346.3" font-family="Times,serif" font-size="14.00" fill="#000000">encrypted_password :character varying</text>
<text text-anchor="start" x="145.8431" y="-331.3" font-family="Times,serif" font-size="14.00" fill="#000000">reset_password_token :character varying</text>
<text text-anchor="start" x="145.8431" y="-316.3" font-family="Times,serif" font-size="14.00" fill="#000000">reset_password_sent_at :timestamp without time zone</text>
<text text-anchor="start" x="145.8431" y="-301.3" font-family="Times,serif" font-size="14.00" fill="#000000">remember_created_at :timestamp without time zone</text>
<text text-anchor="start" x="145.8431" y="-286.3" font-family="Times,serif" font-size="14.00" fill="#000000">created_at :timestamp without time zone</text>
<text text-anchor="start" x="145.8431" y="-271.3" font-family="Times,serif" font-size="14.00" fill="#000000">updated_at :timestamp without time zone</text>
<text text-anchor="start" x="145.8431" y="-256.3" font-family="Times,serif" font-size="14.00" fill="#000000">first_name :character varying</text>
<text text-anchor="start" x="145.8431" y="-241.3" font-family="Times,serif" font-size="14.00" fill="#000000">last_name :character varying</text>
<text text-anchor="start" x="145.8431" y="-226.3" font-family="Times,serif" font-size="14.00" fill="#000000">username :character varying</text>
<text text-anchor="start" x="145.8431" y="-211.3" font-family="Times,serif" font-size="14.00" fill="#000000">photo :character varying</text>
<text text-anchor="start" x="145.8431" y="-196.3" font-family="Times,serif" font-size="14.00" fill="#000000">researcher_status :boolean</text>
<text text-anchor="start" x="145.8431" y="-181.3" font-family="Times,serif" font-size="14.00" fill="#000000">description :text</text>
<text text-anchor="start" x="145.8431" y="-166.3" font-family="Times,serif" font-size="14.00" fill="#000000">interest :character varying</text>
<text text-anchor="start" x="145.8431" y="-151.3" font-family="Times,serif" font-size="14.00" fill="#000000">category :character varying</text>
</g>
<!-- Project&#45;&gt;User -->
<g id="edge1" class="edge">
<title>Project&#45;&gt;User</title>
<path fill="none" stroke="#6ca321" d="M294.3431,-440.9346C294.3431,-435.6202 294.3431,-430.2598 294.3431,-424.8856"/>
<polygon fill="#6ca321" stroke="#6ca321" points="294.3432,-441.1071 289.8431,-451.107 294.3432,-446.1071 294.3431,-451.1071 294.3431,-451.1071 294.3431,-451.1071 294.3432,-446.1071 298.8431,-451.1071 294.3432,-441.1071 294.3432,-441.1071"/>
<polygon fill="#6ca321" stroke="#6ca321" points="294.3432,-424.5421 298.8431,-414.542 294.3432,-419.5421 294.3431,-414.5421 294.3431,-414.5421 294.3431,-414.5421 294.3432,-419.5421 289.8431,-414.5421 294.3432,-424.5421 294.3432,-424.5421"/>
</g>
<!-- User&#45;&gt;Favorite -->
<g id="edge2" class="edge">
<title>User&#45;&gt;Favorite</title>
<path fill="none" stroke="#fed130" d="M294.3431,-135.1882C294.3431,-128.9425 294.3431,-122.8347 294.3431,-116.95"/>
<ellipse fill="none" stroke="#fed130" cx="294.3432" cy="-139.2715" rx="4" ry="4"/>
<polygon fill="#fed130" stroke="#fed130" points="294.3432,-116.6169 298.8431,-106.6169 294.3432,-111.6169 294.3431,-106.6169 294.3431,-106.6169 294.3431,-106.6169 294.3432,-111.6169 289.8431,-106.617 294.3432,-116.6169 294.3432,-116.6169"/>
</g>
</g>
</svg>
