<?xml version="1.0" encoding="UTF-8" standalone="no"?>
<!DOCTYPE svg PUBLIC "-//W3C//DTD SVG 1.1//EN"
 "http://www.w3.org/Graphics/SVG/1.1/DTD/svg11.dtd">
<!-- Generated by graphviz version 2.40.1 (20161225.0304)
 -->
<!-- Title: controllers_diagram Pages: 1 -->
<svg width="516pt" height="192pt"
 viewBox="0.00 0.00 516.00 192.00" xmlns="http://www.w3.org/2000/svg" xmlns:xlink="http://www.w3.org/1999/xlink">
<g id="graph0" class="graph" transform="scale(1 1) rotate(0) translate(4 188)">
<title>controllers_diagram</title>
<polygon fill="transparent" stroke="transparent" points="-4,4 -4,-188 512,-188 512,4 -4,4"/>
<!-- ApplicationController -->
<g id="node1" class="node">
<title>ApplicationController</title>
<path fill="none" stroke="#000000" d="M12,-45C12,-45 124,-45 124,-45 130,-45 136,-51 136,-57 136,-57 136,-127 136,-127 136,-133 130,-139 124,-139 124,-139 12,-139 12,-139 6,-139 0,-133 0,-127 0,-127 0,-57 0,-57 0,-51 6,-45 12,-45"/>
<text text-anchor="middle" x="68" y="-123.8" font-family="Times,serif" font-size="14.00" fill="#000000">ApplicationController</text>
<polyline fill="none" stroke="#000000" points="0,-116 136,-116 "/>
<polyline fill="none" stroke="#000000" points="0,-92 136,-92 "/>
<polyline fill="none" stroke="#000000" points="0,-68 136,-68 "/>
<text text-anchor="start" x="8" y="-52.8" font-family="Times,serif" font-size="14.00" fill="#000000">_layout</text>
</g>
<!-- ItemsController -->
<g id="node2" class="node">
<title>ItemsController</title>
<path fill="none" stroke="#000000" d="M166.5,-.5C166.5,-.5 245.5,-.5 245.5,-.5 251.5,-.5 257.5,-6.5 257.5,-12.5 257.5,-12.5 257.5,-171.5 257.5,-171.5 257.5,-177.5 251.5,-183.5 245.5,-183.5 245.5,-183.5 166.5,-183.5 166.5,-183.5 160.5,-183.5 154.5,-177.5 154.5,-171.5 154.5,-171.5 154.5,-12.5 154.5,-12.5 154.5,-6.5 160.5,-.5 166.5,-.5"/>
<text text-anchor="middle" x="206" y="-168.3" font-family="Times,serif" font-size="14.00" fill="#000000">ItemsController</text>
<polyline fill="none" stroke="#000000" points="154.5,-160.5 257.5,-160.5 "/>
<text text-anchor="start" x="162.5" y="-145.3" font-family="Times,serif" font-size="14.00" fill="#000000">create</text>
<text text-anchor="start" x="162.5" y="-130.3" font-family="Times,serif" font-size="14.00" fill="#000000">destroy</text>
<text text-anchor="start" x="162.5" y="-115.3" font-family="Times,serif" font-size="14.00" fill="#000000">edit</text>
<text text-anchor="start" x="162.5" y="-100.3" font-family="Times,serif" font-size="14.00" fill="#000000">index</text>
<text text-anchor="start" x="162.5" y="-85.3" font-family="Times,serif" font-size="14.00" fill="#000000">new</text>
<text text-anchor="start" x="162.5" y="-70.3" font-family="Times,serif" font-size="14.00" fill="#000000">update</text>
<polyline fill="none" stroke="#000000" points="154.5,-62.5 257.5,-62.5 "/>
<polyline fill="none" stroke="#000000" points="154.5,-38.5 257.5,-38.5 "/>
<text text-anchor="start" x="162.5" y="-23.3" font-family="Times,serif" font-size="14.00" fill="#000000">_layout</text>
<text text-anchor="start" x="162.5" y="-8.3" font-family="Times,serif" font-size="14.00" fill="#000000">item_params</text>
</g>
<!-- OutfitsController -->
<g id="node3" class="node">
<title>OutfitsController</title>
<path fill="none" stroke="#000000" d="M288,-38C288,-38 374,-38 374,-38 380,-38 386,-44 386,-50 386,-50 386,-134 386,-134 386,-140 380,-146 374,-146 374,-146 288,-146 288,-146 282,-146 276,-140 276,-134 276,-134 276,-50 276,-50 276,-44 282,-38 288,-38"/>
<text text-anchor="middle" x="331" y="-130.8" font-family="Times,serif" font-size="14.00" fill="#000000">OutfitsController</text>
<polyline fill="none" stroke="#000000" points="276,-123 386,-123 "/>
<text text-anchor="start" x="284" y="-107.8" font-family="Times,serif" font-size="14.00" fill="#000000">index</text>
<text text-anchor="start" x="284" y="-92.8" font-family="Times,serif" font-size="14.00" fill="#000000">show</text>
<polyline fill="none" stroke="#000000" points="276,-85 386,-85 "/>
<polyline fill="none" stroke="#000000" points="276,-61 386,-61 "/>
<text text-anchor="start" x="284" y="-45.8" font-family="Times,serif" font-size="14.00" fill="#000000">_layout</text>
</g>
<!-- PagesController -->
<g id="node4" class="node">
<title>PagesController</title>
<path fill="none" stroke="#000000" d="M416,-45.5C416,-45.5 496,-45.5 496,-45.5 502,-45.5 508,-51.5 508,-57.5 508,-57.5 508,-126.5 508,-126.5 508,-132.5 502,-138.5 496,-138.5 496,-138.5 416,-138.5 416,-138.5 410,-138.5 404,-132.5 404,-126.5 404,-126.5 404,-57.5 404,-57.5 404,-51.5 410,-45.5 416,-45.5"/>
<text text-anchor="middle" x="456" y="-123.3" font-family="Times,serif" font-size="14.00" fill="#000000">PagesController</text>
<polyline fill="none" stroke="#000000" points="404,-115.5 508,-115.5 "/>
<text text-anchor="start" x="412" y="-100.3" font-family="Times,serif" font-size="14.00" fill="#000000">home</text>
<polyline fill="none" stroke="#000000" points="404,-92.5 508,-92.5 "/>
<polyline fill="none" stroke="#000000" points="404,-68.5 508,-68.5 "/>
<text text-anchor="start" x="412" y="-53.3" font-family="Times,serif" font-size="14.00" fill="#000000">_layout</text>
</g>
</g>
</svg>
