<?xml version="1.0" encoding="UTF-8" standalone="no"?>
<!DOCTYPE svg PUBLIC "-//W3C//DTD SVG 1.1//EN"
 "http://www.w3.org/Graphics/SVG/1.1/DTD/svg11.dtd">
<!-- Generated by graphviz version 2.40.1 (20161225.0304)
 -->
<!-- Title: controllers_diagram Pages: 1 -->
<svg width="586pt" height="117pt"
 viewBox="0.00 0.00 586.00 117.00" xmlns="http://www.w3.org/2000/svg" xmlns:xlink="http://www.w3.org/1999/xlink">
<g id="graph0" class="graph" transform="scale(1 1) rotate(0) translate(4 113)">
<title>controllers_diagram</title>
<polygon fill="transparent" stroke="transparent" points="-4,4 -4,-113 582,-113 582,4 -4,4"/>
<!-- ApplicationController -->
<g id="node1" class="node">
<title>ApplicationController</title>
<path fill="none" stroke="#000000" d="M12,-7.5C12,-7.5 124,-7.5 124,-7.5 130,-7.5 136,-13.5 136,-19.5 136,-19.5 136,-89.5 136,-89.5 136,-95.5 130,-101.5 124,-101.5 124,-101.5 12,-101.5 12,-101.5 6,-101.5 0,-95.5 0,-89.5 0,-89.5 0,-19.5 0,-19.5 0,-13.5 6,-7.5 12,-7.5"/>
<text text-anchor="middle" x="68" y="-86.3" font-family="Times,serif" font-size="14.00" fill="#000000">ApplicationController</text>
<polyline fill="none" stroke="#000000" points="0,-78.5 136,-78.5 "/>
<polyline fill="none" stroke="#000000" points="0,-54.5 136,-54.5 "/>
<polyline fill="none" stroke="#000000" points="0,-30.5 136,-30.5 "/>
<text text-anchor="start" x="8" y="-15.3" font-family="Times,serif" font-size="14.00" fill="#000000">_layout</text>
</g>
<!-- ComparisonsController -->
<g id="node2" class="node">
<title>ComparisonsController</title>
<path fill="none" stroke="#000000" d="M166,-.5C166,-.5 286,-.5 286,-.5 292,-.5 298,-6.5 298,-12.5 298,-12.5 298,-96.5 298,-96.5 298,-102.5 292,-108.5 286,-108.5 286,-108.5 166,-108.5 166,-108.5 160,-108.5 154,-102.5 154,-96.5 154,-96.5 154,-12.5 154,-12.5 154,-6.5 160,-.5 166,-.5"/>
<text text-anchor="middle" x="226" y="-93.3" font-family="Times,serif" font-size="14.00" fill="#000000">ComparisonsController</text>
<polyline fill="none" stroke="#000000" points="154,-85.5 298,-85.5 "/>
<text text-anchor="start" x="162" y="-70.3" font-family="Times,serif" font-size="14.00" fill="#000000">index</text>
<text text-anchor="start" x="162" y="-55.3" font-family="Times,serif" font-size="14.00" fill="#000000">show</text>
<polyline fill="none" stroke="#000000" points="154,-47.5 298,-47.5 "/>
<polyline fill="none" stroke="#000000" points="154,-23.5 298,-23.5 "/>
<text text-anchor="start" x="162" y="-8.3" font-family="Times,serif" font-size="14.00" fill="#000000">_layout</text>
</g>
<!-- MedicationsController -->
<g id="node3" class="node">
<title>MedicationsController</title>
<path fill="none" stroke="#000000" d="M328,-.5C328,-.5 444,-.5 444,-.5 450,-.5 456,-6.5 456,-12.5 456,-12.5 456,-96.5 456,-96.5 456,-102.5 450,-108.5 444,-108.5 444,-108.5 328,-108.5 328,-108.5 322,-108.5 316,-102.5 316,-96.5 316,-96.5 316,-12.5 316,-12.5 316,-6.5 322,-.5 328,-.5"/>
<text text-anchor="middle" x="386" y="-93.3" font-family="Times,serif" font-size="14.00" fill="#000000">MedicationsController</text>
<polyline fill="none" stroke="#000000" points="316,-85.5 456,-85.5 "/>
<text text-anchor="start" x="324" y="-70.3" font-family="Times,serif" font-size="14.00" fill="#000000">index</text>
<text text-anchor="start" x="324" y="-55.3" font-family="Times,serif" font-size="14.00" fill="#000000">search</text>
<polyline fill="none" stroke="#000000" points="316,-47.5 456,-47.5 "/>
<polyline fill="none" stroke="#000000" points="316,-23.5 456,-23.5 "/>
<text text-anchor="start" x="324" y="-8.3" font-family="Times,serif" font-size="14.00" fill="#000000">_layout</text>
</g>
<!-- PagesController -->
<g id="node4" class="node">
<title>PagesController</title>
<path fill="none" stroke="#000000" d="M486,-8C486,-8 566,-8 566,-8 572,-8 578,-14 578,-20 578,-20 578,-89 578,-89 578,-95 572,-101 566,-101 566,-101 486,-101 486,-101 480,-101 474,-95 474,-89 474,-89 474,-20 474,-20 474,-14 480,-8 486,-8"/>
<text text-anchor="middle" x="526" y="-85.8" font-family="Times,serif" font-size="14.00" fill="#000000">PagesController</text>
<polyline fill="none" stroke="#000000" points="474,-78 578,-78 "/>
<text text-anchor="start" x="482" y="-62.8" font-family="Times,serif" font-size="14.00" fill="#000000">home</text>
<polyline fill="none" stroke="#000000" points="474,-55 578,-55 "/>
<polyline fill="none" stroke="#000000" points="474,-31 578,-31 "/>
<text text-anchor="start" x="482" y="-15.8" font-family="Times,serif" font-size="14.00" fill="#000000">_layout</text>
</g>
</g>
</svg>
