<?xml version="1.0" encoding="UTF-8" standalone="no"?>
<!DOCTYPE svg PUBLIC "-//W3C//DTD SVG 1.1//EN"
 "http://www.w3.org/Graphics/SVG/1.1/DTD/svg11.dtd">
<!-- Generated by graphviz version 2.40.1 (20161225.0304)
 -->
<!-- Title: controllers_diagram Pages: 1 -->
<svg width="388pt" height="147pt"
 viewBox="0.00 0.00 387.50 147.00" xmlns="http://www.w3.org/2000/svg" xmlns:xlink="http://www.w3.org/1999/xlink">
<g id="graph0" class="graph" transform="scale(1 1) rotate(0) translate(4 143)">
<title>controllers_diagram</title>
<polygon fill="transparent" stroke="transparent" points="-4,4 -4,-143 383.5,-143 383.5,4 -4,4"/>
<!-- ApplicationController -->
<g id="node1" class="node">
<title>ApplicationController</title>
<path fill="none" stroke="#000000" d="M12,-22.5C12,-22.5 124,-22.5 124,-22.5 130,-22.5 136,-28.5 136,-34.5 136,-34.5 136,-104.5 136,-104.5 136,-110.5 130,-116.5 124,-116.5 124,-116.5 12,-116.5 12,-116.5 6,-116.5 0,-110.5 0,-104.5 0,-104.5 0,-34.5 0,-34.5 0,-28.5 6,-22.5 12,-22.5"/>
<text text-anchor="middle" x="68" y="-101.3" font-family="Times,serif" font-size="14.00" fill="#000000">ApplicationController</text>
<polyline fill="none" stroke="#000000" points="0,-93.5 136,-93.5 "/>
<polyline fill="none" stroke="#000000" points="0,-69.5 136,-69.5 "/>
<polyline fill="none" stroke="#000000" points="0,-45.5 136,-45.5 "/>
<text text-anchor="start" x="8" y="-30.3" font-family="Times,serif" font-size="14.00" fill="#000000">_layout</text>
</g>
<!-- PagesController -->
<g id="node2" class="node">
<title>PagesController</title>
<path fill="none" stroke="#000000" d="M166,-23C166,-23 246,-23 246,-23 252,-23 258,-29 258,-35 258,-35 258,-104 258,-104 258,-110 252,-116 246,-116 246,-116 166,-116 166,-116 160,-116 154,-110 154,-104 154,-104 154,-35 154,-35 154,-29 160,-23 166,-23"/>
<text text-anchor="middle" x="206" y="-100.8" font-family="Times,serif" font-size="14.00" fill="#000000">PagesController</text>
<polyline fill="none" stroke="#000000" points="154,-93 258,-93 "/>
<text text-anchor="start" x="162" y="-77.8" font-family="Times,serif" font-size="14.00" fill="#000000">home</text>
<polyline fill="none" stroke="#000000" points="154,-70 258,-70 "/>
<polyline fill="none" stroke="#000000" points="154,-46 258,-46 "/>
<text text-anchor="start" x="162" y="-30.8" font-family="Times,serif" font-size="14.00" fill="#000000">_layout</text>
</g>
<!-- UsersController -->
<g id="node3" class="node">
<title>UsersController</title>
<path fill="none" stroke="#000000" d="M288.5,-.5C288.5,-.5 367.5,-.5 367.5,-.5 373.5,-.5 379.5,-6.5 379.5,-12.5 379.5,-12.5 379.5,-126.5 379.5,-126.5 379.5,-132.5 373.5,-138.5 367.5,-138.5 367.5,-138.5 288.5,-138.5 288.5,-138.5 282.5,-138.5 276.5,-132.5 276.5,-126.5 276.5,-126.5 276.5,-12.5 276.5,-12.5 276.5,-6.5 282.5,-.5 288.5,-.5"/>
<text text-anchor="middle" x="328" y="-123.3" font-family="Times,serif" font-size="14.00" fill="#000000">UsersController</text>
<polyline fill="none" stroke="#000000" points="276.5,-115.5 379.5,-115.5 "/>
<text text-anchor="start" x="284.5" y="-100.3" font-family="Times,serif" font-size="14.00" fill="#000000">create</text>
<text text-anchor="start" x="284.5" y="-85.3" font-family="Times,serif" font-size="14.00" fill="#000000">index</text>
<text text-anchor="start" x="284.5" y="-70.3" font-family="Times,serif" font-size="14.00" fill="#000000">new</text>
<text text-anchor="start" x="284.5" y="-55.3" font-family="Times,serif" font-size="14.00" fill="#000000">show</text>
<polyline fill="none" stroke="#000000" points="276.5,-47.5 379.5,-47.5 "/>
<polyline fill="none" stroke="#000000" points="276.5,-23.5 379.5,-23.5 "/>
<text text-anchor="start" x="284.5" y="-8.3" font-family="Times,serif" font-size="14.00" fill="#000000">_layout</text>
</g>
</g>
</svg>
