<?xml version="1.0" encoding="UTF-8" standalone="no"?>
<!DOCTYPE svg PUBLIC "-//W3C//DTD SVG 1.1//EN"
 "http://www.w3.org/Graphics/SVG/1.1/DTD/svg11.dtd">
<!-- Generated by graphviz version 2.40.1 (20161225.0304)
 -->
<!-- Title: models_diagram Pages: 1 -->
<svg width="534pt" height="506pt"
 viewBox="0.00 0.00 534.34 506.00" xmlns="http://www.w3.org/2000/svg" xmlns:xlink="http://www.w3.org/1999/xlink">
<g id="graph0" class="graph" transform="scale(1 1) rotate(0) translate(4 502)">
<title>models_diagram</title>
<polygon fill="transparent" stroke="transparent" points="-4,4 -4,-502 530.3431,-502 530.3431,4 -4,4"/>
<!-- ApplicationRecord -->
<g id="node1" class="node">
<title>ApplicationRecord</title>
<ellipse fill="none" stroke="#000000" cx="77.3431" cy="-422" rx="77.1866" ry="18"/>
<text text-anchor="middle" x="77.3431" y="-418.3" font-family="Times,serif" font-size="14.00" fill="#000000">ApplicationRecord</text>
</g>
<!-- Item -->
<g id="node2" class="node">
<title>Item</title>
<path fill="none" stroke="#000000" d="M219.3431,-.5C219.3431,-.5 439.3431,-.5 439.3431,-.5 445.3431,-.5 451.3431,-6.5 451.3431,-12.5 451.3431,-12.5 451.3431,-169.5 451.3431,-169.5 451.3431,-175.5 445.3431,-181.5 439.3431,-181.5 439.3431,-181.5 219.3431,-181.5 219.3431,-181.5 213.3431,-181.5 207.3431,-175.5 207.3431,-169.5 207.3431,-169.5 207.3431,-12.5 207.3431,-12.5 207.3431,-6.5 213.3431,-.5 219.3431,-.5"/>
<text text-anchor="middle" x="329.3431" y="-166.3" font-family="Times,serif" font-size="14.00" fill="#000000">Item</text>
<polyline fill="none" stroke="#000000" points="207.3431,-158.5 451.3431,-158.5 "/>
<text text-anchor="start" x="215.3431" y="-143.3" font-family="Times,serif" font-size="14.00" fill="#000000">id :bigint</text>
<text text-anchor="start" x="215.3431" y="-128.3" font-family="Times,serif" font-size="14.00" fill="#000000">category :character varying</text>
<text text-anchor="start" x="215.3431" y="-113.3" font-family="Times,serif" font-size="14.00" fill="#000000">color :character varying</text>
<text text-anchor="start" x="215.3431" y="-98.3" font-family="Times,serif" font-size="14.00" fill="#000000">outfit_id :bigint</text>
<text text-anchor="start" x="215.3431" y="-83.3" font-family="Times,serif" font-size="14.00" fill="#000000">style_id :bigint</text>
<text text-anchor="start" x="215.3431" y="-68.3" font-family="Times,serif" font-size="14.00" fill="#000000">user_id :bigint</text>
<text text-anchor="start" x="215.3431" y="-53.3" font-family="Times,serif" font-size="14.00" fill="#000000">created_at :timestamp without time zone</text>
<text text-anchor="start" x="215.3431" y="-38.3" font-family="Times,serif" font-size="14.00" fill="#000000">updated_at :timestamp without time zone</text>
<text text-anchor="start" x="215.3431" y="-23.3" font-family="Times,serif" font-size="14.00" fill="#000000">photo :character varying</text>
<text text-anchor="start" x="215.3431" y="-8.3" font-family="Times,serif" font-size="14.00" fill="#000000">style :character varying</text>
</g>
<!-- Outfit -->
<g id="node3" class="node">
<title>Outfit</title>
<path fill="none" stroke="#000000" d="M294.3431,-218.5C294.3431,-218.5 514.3431,-218.5 514.3431,-218.5 520.3431,-218.5 526.3431,-224.5 526.3431,-230.5 526.3431,-230.5 526.3431,-297.5 526.3431,-297.5 526.3431,-303.5 520.3431,-309.5 514.3431,-309.5 514.3431,-309.5 294.3431,-309.5 294.3431,-309.5 288.3431,-309.5 282.3431,-303.5 282.3431,-297.5 282.3431,-297.5 282.3431,-230.5 282.3431,-230.5 282.3431,-224.5 288.3431,-218.5 294.3431,-218.5"/>
<text text-anchor="middle" x="404.3431" y="-294.3" font-family="Times,serif" font-size="14.00" fill="#000000">Outfit</text>
<polyline fill="none" stroke="#000000" points="282.3431,-286.5 526.3431,-286.5 "/>
<text text-anchor="start" x="290.3431" y="-271.3" font-family="Times,serif" font-size="14.00" fill="#000000">id :bigint</text>
<text text-anchor="start" x="290.3431" y="-256.3" font-family="Times,serif" font-size="14.00" fill="#000000">user_id :bigint</text>
<text text-anchor="start" x="290.3431" y="-241.3" font-family="Times,serif" font-size="14.00" fill="#000000">created_at :timestamp without time zone</text>
<text text-anchor="start" x="290.3431" y="-226.3" font-family="Times,serif" font-size="14.00" fill="#000000">updated_at :timestamp without time zone</text>
</g>
<!-- Outfit&#45;&gt;Item -->
<g id="edge1" class="edge">
<title>Outfit&#45;&gt;Item</title>
<path fill="none" stroke="#7a3278" d="M381.1536,-210.5096C378.4098,-204.1803 375.5456,-197.5737 372.6338,-190.857"/>
<ellipse fill="none" stroke="#7a3278" cx="382.8504" cy="-214.4234" rx="4" ry="4"/>
<polygon fill="#7a3278" stroke="#7a3278" points="372.6179,-190.8203 372.769,-179.8554 370.6291,-186.2328 368.6402,-181.6453 368.6402,-181.6453 368.6402,-181.6453 370.6291,-186.2328 364.5115,-183.4353 372.6179,-190.8203 372.6179,-190.8203"/>
</g>
<!-- User -->
<g id="node4" class="node">
<title>User</title>
<path fill="none" stroke="#000000" d="M184.8431,-346.5C184.8431,-346.5 473.8431,-346.5 473.8431,-346.5 479.8431,-346.5 485.8431,-352.5 485.8431,-358.5 485.8431,-358.5 485.8431,-485.5 485.8431,-485.5 485.8431,-491.5 479.8431,-497.5 473.8431,-497.5 473.8431,-497.5 184.8431,-497.5 184.8431,-497.5 178.8431,-497.5 172.8431,-491.5 172.8431,-485.5 172.8431,-485.5 172.8431,-358.5 172.8431,-358.5 172.8431,-352.5 178.8431,-346.5 184.8431,-346.5"/>
<text text-anchor="middle" x="329.3431" y="-482.3" font-family="Times,serif" font-size="14.00" fill="#000000">User</text>
<polyline fill="none" stroke="#000000" points="172.8431,-474.5 485.8431,-474.5 "/>
<text text-anchor="start" x="180.8431" y="-459.3" font-family="Times,serif" font-size="14.00" fill="#000000">id :bigint</text>
<text text-anchor="start" x="180.8431" y="-444.3" font-family="Times,serif" font-size="14.00" fill="#000000">email :character varying</text>
<text text-anchor="start" x="180.8431" y="-429.3" font-family="Times,serif" font-size="14.00" fill="#000000">encrypted_password :character varying</text>
<text text-anchor="start" x="180.8431" y="-414.3" font-family="Times,serif" font-size="14.00" fill="#000000">reset_password_token :character varying</text>
<text text-anchor="start" x="180.8431" y="-399.3" font-family="Times,serif" font-size="14.00" fill="#000000">reset_password_sent_at :timestamp without time zone</text>
<text text-anchor="start" x="180.8431" y="-384.3" font-family="Times,serif" font-size="14.00" fill="#000000">remember_created_at :timestamp without time zone</text>
<text text-anchor="start" x="180.8431" y="-369.3" font-family="Times,serif" font-size="14.00" fill="#000000">created_at :timestamp without time zone</text>
<text text-anchor="start" x="180.8431" y="-354.3" font-family="Times,serif" font-size="14.00" fill="#000000">updated_at :timestamp without time zone</text>
</g>
<!-- User&#45;&gt;Item -->
<g id="edge3" class="edge">
<title>User&#45;&gt;Item</title>
<path fill="none" stroke="#671a0c" d="M282.5989,-338.8024C278.8312,-329.3145 275.6093,-319.5996 273.3431,-310 263.9488,-270.2049 264.9135,-258.0105 273.3431,-218 275.2037,-209.1688 277.7186,-200.2033 280.6563,-191.3319"/>
<ellipse fill="none" stroke="#671a0c" cx="284.1981" cy="-342.661" rx="4" ry="4"/>
<polygon fill="#671a0c" stroke="#671a0c" points="280.7042,-191.1947 288.2479,-183.2359 282.3517,-186.4739 283.9992,-181.7531 283.9992,-181.7531 283.9992,-181.7531 282.3517,-186.4739 279.7505,-180.2704 280.7042,-191.1947 280.7042,-191.1947"/>
</g>
<!-- User&#45;&gt;Outfit -->
<g id="edge2" class="edge">
<title>User&#45;&gt;Outfit</title>
<path fill="none" stroke="#6e3bda" d="M368.7873,-338.9043C371.9973,-332.142 375.1882,-325.4198 378.2656,-318.9366"/>
<ellipse fill="none" stroke="#6e3bda" cx="367.0208" cy="-342.6259" rx="4" ry="4"/>
<polygon fill="#6e3bda" stroke="#6e3bda" points="378.394,-318.6661 386.7475,-311.562 380.5381,-314.1492 382.6823,-309.6322 382.6823,-309.6322 382.6823,-309.6322 380.5381,-314.1492 378.617,-307.7025 378.394,-318.6661 378.394,-318.6661"/>
</g>
</g>
</svg>
