<?xml version="1.0" encoding="UTF-8" standalone="no"?>
<!DOCTYPE svg PUBLIC "-//W3C//DTD SVG 1.1//EN"
 "http://www.w3.org/Graphics/SVG/1.1/DTD/svg11.dtd">
<!-- Generated by graphviz version 2.40.1 (20161225.0304)
 -->
<!-- Title: models_diagram Pages: 1 -->
<svg width="756pt" height="513pt"
 viewBox="0.00 0.00 756.34 513.00" xmlns="http://www.w3.org/2000/svg" xmlns:xlink="http://www.w3.org/1999/xlink">
<g id="graph0" class="graph" transform="scale(1 1) rotate(0) translate(4 509)">
<title>models_diagram</title>
<polygon fill="transparent" stroke="transparent" points="-4,4 -4,-509 752.3431,-509 752.3431,4 -4,4"/>
<!-- ApplicationRecord -->
<g id="node1" class="node">
<title>ApplicationRecord</title>
<ellipse fill="none" stroke="#000000" cx="77.3431" cy="-399" rx="77.1866" ry="18"/>
<text text-anchor="middle" x="77.3431" y="-395.3" font-family="Times,serif" font-size="14.00" fill="#000000">ApplicationRecord</text>
</g>
<!-- User -->
<g id="node2" class="node">
<title>User</title>
<path fill="none" stroke="#000000" d="M184.8431,-293.5C184.8431,-293.5 473.8431,-293.5 473.8431,-293.5 479.8431,-293.5 485.8431,-299.5 485.8431,-305.5 485.8431,-305.5 485.8431,-492.5 485.8431,-492.5 485.8431,-498.5 479.8431,-504.5 473.8431,-504.5 473.8431,-504.5 184.8431,-504.5 184.8431,-504.5 178.8431,-504.5 172.8431,-498.5 172.8431,-492.5 172.8431,-492.5 172.8431,-305.5 172.8431,-305.5 172.8431,-299.5 178.8431,-293.5 184.8431,-293.5"/>
<text text-anchor="middle" x="329.3431" y="-489.3" font-family="Times,serif" font-size="14.00" fill="#000000">User</text>
<polyline fill="none" stroke="#000000" points="172.8431,-481.5 485.8431,-481.5 "/>
<text text-anchor="start" x="180.8431" y="-466.3" font-family="Times,serif" font-size="14.00" fill="#000000">id :bigint</text>
<text text-anchor="start" x="180.8431" y="-451.3" font-family="Times,serif" font-size="14.00" fill="#000000">email :character varying</text>
<text text-anchor="start" x="180.8431" y="-436.3" font-family="Times,serif" font-size="14.00" fill="#000000">encrypted_password :character varying</text>
<text text-anchor="start" x="180.8431" y="-421.3" font-family="Times,serif" font-size="14.00" fill="#000000">reset_password_token :character varying</text>
<text text-anchor="start" x="180.8431" y="-406.3" font-family="Times,serif" font-size="14.00" fill="#000000">reset_password_sent_at :timestamp without time zone</text>
<text text-anchor="start" x="180.8431" y="-391.3" font-family="Times,serif" font-size="14.00" fill="#000000">remember_created_at :timestamp without time zone</text>
<text text-anchor="start" x="180.8431" y="-376.3" font-family="Times,serif" font-size="14.00" fill="#000000">created_at :timestamp without time zone</text>
<text text-anchor="start" x="180.8431" y="-361.3" font-family="Times,serif" font-size="14.00" fill="#000000">updated_at :timestamp without time zone</text>
<text text-anchor="start" x="180.8431" y="-346.3" font-family="Times,serif" font-size="14.00" fill="#000000">first_name :character varying</text>
<text text-anchor="start" x="180.8431" y="-331.3" font-family="Times,serif" font-size="14.00" fill="#000000">last_name :character varying</text>
<text text-anchor="start" x="180.8431" y="-316.3" font-family="Times,serif" font-size="14.00" fill="#000000">age :integer</text>
<text text-anchor="start" x="180.8431" y="-301.3" font-family="Times,serif" font-size="14.00" fill="#000000">smoker :character varying</text>
</g>
<!-- UserScore -->
<g id="node4" class="node">
<title>UserScore</title>
<path fill="none" stroke="#000000" d="M219.3431,-.5C219.3431,-.5 439.3431,-.5 439.3431,-.5 445.3431,-.5 451.3431,-6.5 451.3431,-12.5 451.3431,-12.5 451.3431,-244.5 451.3431,-244.5 451.3431,-250.5 445.3431,-256.5 439.3431,-256.5 439.3431,-256.5 219.3431,-256.5 219.3431,-256.5 213.3431,-256.5 207.3431,-250.5 207.3431,-244.5 207.3431,-244.5 207.3431,-12.5 207.3431,-12.5 207.3431,-6.5 213.3431,-.5 219.3431,-.5"/>
<text text-anchor="middle" x="329.3431" y="-241.3" font-family="Times,serif" font-size="14.00" fill="#000000">UserScore</text>
<polyline fill="none" stroke="#000000" points="207.3431,-233.5 451.3431,-233.5 "/>
<text text-anchor="start" x="215.3431" y="-218.3" font-family="Times,serif" font-size="14.00" fill="#000000">id :bigint</text>
<text text-anchor="start" x="215.3431" y="-203.3" font-family="Times,serif" font-size="14.00" fill="#000000">health_score :double precision</text>
<text text-anchor="start" x="215.3431" y="-188.3" font-family="Times,serif" font-size="14.00" fill="#000000">bmi :double precision</text>
<text text-anchor="start" x="215.3431" y="-173.3" font-family="Times,serif" font-size="14.00" fill="#000000">physical_activity :double precision</text>
<text text-anchor="start" x="215.3431" y="-158.3" font-family="Times,serif" font-size="14.00" fill="#000000">fruits_vegetables :double precision</text>
<text text-anchor="start" x="215.3431" y="-143.3" font-family="Times,serif" font-size="14.00" fill="#000000">whole_grains :double precision</text>
<text text-anchor="start" x="215.3431" y="-128.3" font-family="Times,serif" font-size="14.00" fill="#000000">red_meat :double precision</text>
<text text-anchor="start" x="215.3431" y="-113.3" font-family="Times,serif" font-size="14.00" fill="#000000">processed_meat :double precision</text>
<text text-anchor="start" x="215.3431" y="-98.3" font-family="Times,serif" font-size="14.00" fill="#000000">fats :double precision</text>
<text text-anchor="start" x="215.3431" y="-83.3" font-family="Times,serif" font-size="14.00" fill="#000000">soda :double precision</text>
<text text-anchor="start" x="215.3431" y="-68.3" font-family="Times,serif" font-size="14.00" fill="#000000">alcohol :double precision</text>
<text text-anchor="start" x="215.3431" y="-53.3" font-family="Times,serif" font-size="14.00" fill="#000000">logdate :date</text>
<text text-anchor="start" x="215.3431" y="-38.3" font-family="Times,serif" font-size="14.00" fill="#000000">user_id :bigint</text>
<text text-anchor="start" x="215.3431" y="-23.3" font-family="Times,serif" font-size="14.00" fill="#000000">created_at :timestamp without time zone</text>
<text text-anchor="start" x="215.3431" y="-8.3" font-family="Times,serif" font-size="14.00" fill="#000000">updated_at :timestamp without time zone</text>
</g>
<!-- User&#45;&gt;UserScore -->
<g id="edge1" class="edge">
<title>User&#45;&gt;UserScore</title>
<path fill="none" stroke="#8f6fd4" d="M329.3431,-285.052C329.3431,-279.0421 329.3431,-272.9746 329.3431,-266.8987"/>
<ellipse fill="none" stroke="#8f6fd4" cx="329.3432" cy="-289.2555" rx="4" ry="4"/>
<polygon fill="#8f6fd4" stroke="#8f6fd4" points="329.3432,-266.6739 333.8431,-256.6739 329.3432,-261.6739 329.3431,-256.6739 329.3431,-256.6739 329.3431,-256.6739 329.3432,-261.6739 324.8431,-256.674 329.3432,-266.6739 329.3432,-266.6739"/>
</g>
<!-- UserParam -->
<g id="node3" class="node">
<title>UserParam</title>
<path fill="none" stroke="#000000" d="M516.3431,-331C516.3431,-331 736.3431,-331 736.3431,-331 742.3431,-331 748.3431,-337 748.3431,-343 748.3431,-343 748.3431,-455 748.3431,-455 748.3431,-461 742.3431,-467 736.3431,-467 736.3431,-467 516.3431,-467 516.3431,-467 510.3431,-467 504.3431,-461 504.3431,-455 504.3431,-455 504.3431,-343 504.3431,-343 504.3431,-337 510.3431,-331 516.3431,-331"/>
<text text-anchor="middle" x="626.3431" y="-451.8" font-family="Times,serif" font-size="14.00" fill="#000000">UserParam</text>
<polyline fill="none" stroke="#000000" points="504.3431,-444 748.3431,-444 "/>
<text text-anchor="start" x="512.3431" y="-428.8" font-family="Times,serif" font-size="14.00" fill="#000000">id :bigint</text>
<text text-anchor="start" x="512.3431" y="-413.8" font-family="Times,serif" font-size="14.00" fill="#000000">bmi :double precision</text>
<text text-anchor="start" x="512.3431" y="-398.8" font-family="Times,serif" font-size="14.00" fill="#000000">weight :integer</text>
<text text-anchor="start" x="512.3431" y="-383.8" font-family="Times,serif" font-size="14.00" fill="#000000">height :integer</text>
<text text-anchor="start" x="512.3431" y="-368.8" font-family="Times,serif" font-size="14.00" fill="#000000">user_id :bigint</text>
<text text-anchor="start" x="512.3431" y="-353.8" font-family="Times,serif" font-size="14.00" fill="#000000">created_at :timestamp without time zone</text>
<text text-anchor="start" x="512.3431" y="-338.8" font-family="Times,serif" font-size="14.00" fill="#000000">updated_at :timestamp without time zone</text>
</g>
</g>
</svg>
