<?xml version="1.0" encoding="UTF-8" standalone="no"?>
<!DOCTYPE svg PUBLIC "-//W3C//DTD SVG 1.1//EN"
 "http://www.w3.org/Graphics/SVG/1.1/DTD/svg11.dtd">
<!-- Generated by graphviz version 2.40.1 (20161225.0304)
 -->
<!-- Title: models_diagram Pages: 1 -->
<svg width="1018pt" height="378pt"
 viewBox="0.00 0.00 1017.84 378.00" xmlns="http://www.w3.org/2000/svg" xmlns:xlink="http://www.w3.org/1999/xlink">
<g id="graph0" class="graph" transform="scale(1 1) rotate(0) translate(4 374)">
<title>models_diagram</title>
<polygon fill="transparent" stroke="transparent" points="-4,4 -4,-374 1013.8431,-374 1013.8431,4 -4,4"/>
<!-- ApplicationRecord -->
<g id="node1" class="node">
<title>ApplicationRecord</title>
<ellipse fill="none" stroke="#000000" cx="77.3431" cy="-294" rx="77.1866" ry="18"/>
<text text-anchor="middle" x="77.3431" y="-290.3" font-family="Times,serif" font-size="14.00" fill="#000000">ApplicationRecord</text>
</g>
<!-- Ingredient -->
<g id="node2" class="node">
<title>Ingredient</title>
<path fill="none" stroke="#000000" d="M184.3431,-248.5C184.3431,-248.5 404.3431,-248.5 404.3431,-248.5 410.3431,-248.5 416.3431,-254.5 416.3431,-260.5 416.3431,-260.5 416.3431,-327.5 416.3431,-327.5 416.3431,-333.5 410.3431,-339.5 404.3431,-339.5 404.3431,-339.5 184.3431,-339.5 184.3431,-339.5 178.3431,-339.5 172.3431,-333.5 172.3431,-327.5 172.3431,-327.5 172.3431,-260.5 172.3431,-260.5 172.3431,-254.5 178.3431,-248.5 184.3431,-248.5"/>
<text text-anchor="middle" x="294.3431" y="-324.3" font-family="Times,serif" font-size="14.00" fill="#000000">Ingredient</text>
<polyline fill="none" stroke="#000000" points="172.3431,-316.5 416.3431,-316.5 "/>
<text text-anchor="start" x="180.3431" y="-301.3" font-family="Times,serif" font-size="14.00" fill="#000000">id :bigint</text>
<text text-anchor="start" x="180.3431" y="-286.3" font-family="Times,serif" font-size="14.00" fill="#000000">name :character varying</text>
<text text-anchor="start" x="180.3431" y="-271.3" font-family="Times,serif" font-size="14.00" fill="#000000">created_at :timestamp without time zone</text>
<text text-anchor="start" x="180.3431" y="-256.3" font-family="Times,serif" font-size="14.00" fill="#000000">updated_at :timestamp without time zone</text>
</g>
<!-- Medication -->
<g id="node3" class="node">
<title>Medication</title>
<path fill="none" stroke="#000000" d="M184.3431,-.5C184.3431,-.5 404.3431,-.5 404.3431,-.5 410.3431,-.5 416.3431,-6.5 416.3431,-12.5 416.3431,-12.5 416.3431,-169.5 416.3431,-169.5 416.3431,-175.5 410.3431,-181.5 404.3431,-181.5 404.3431,-181.5 184.3431,-181.5 184.3431,-181.5 178.3431,-181.5 172.3431,-175.5 172.3431,-169.5 172.3431,-169.5 172.3431,-12.5 172.3431,-12.5 172.3431,-6.5 178.3431,-.5 184.3431,-.5"/>
<text text-anchor="middle" x="294.3431" y="-166.3" font-family="Times,serif" font-size="14.00" fill="#000000">Medication</text>
<polyline fill="none" stroke="#000000" points="172.3431,-158.5 416.3431,-158.5 "/>
<text text-anchor="start" x="180.3431" y="-143.3" font-family="Times,serif" font-size="14.00" fill="#000000">id :bigint</text>
<text text-anchor="start" x="180.3431" y="-128.3" font-family="Times,serif" font-size="14.00" fill="#000000">local_name :character varying</text>
<text text-anchor="start" x="180.3431" y="-113.3" font-family="Times,serif" font-size="14.00" fill="#000000">english_name :character varying</text>
<text text-anchor="start" x="180.3431" y="-98.3" font-family="Times,serif" font-size="14.00" fill="#000000">price :integer</text>
<text text-anchor="start" x="180.3431" y="-83.3" font-family="Times,serif" font-size="14.00" fill="#000000">country :character varying</text>
<text text-anchor="start" x="180.3431" y="-68.3" font-family="Times,serif" font-size="14.00" fill="#000000">photo_url :character varying</text>
<text text-anchor="start" x="180.3431" y="-53.3" font-family="Times,serif" font-size="14.00" fill="#000000">category :character varying</text>
<text text-anchor="start" x="180.3431" y="-38.3" font-family="Times,serif" font-size="14.00" fill="#000000">created_at :timestamp without time zone</text>
<text text-anchor="start" x="180.3431" y="-23.3" font-family="Times,serif" font-size="14.00" fill="#000000">updated_at :timestamp without time zone</text>
<text text-anchor="start" x="180.3431" y="-8.3" font-family="Times,serif" font-size="14.00" fill="#000000">description :character varying</text>
</g>
<!-- Ingredient&#45;&gt;Medication -->
<g id="edge1" class="edge">
<title>Ingredient&#45;&gt;Medication</title>
<path fill="none" stroke="#5bf77c" d="M288.3102,-240.3653C287.8281,-225.4553 287.5891,-208.7581 287.5932,-192.0762"/>
<ellipse fill="none" stroke="#5bf77c" cx="288.4578" cy="-244.4455" rx="4" ry="4"/>
<polygon fill="#5bf77c" stroke="#5bf77c" points="287.5943,-191.7073 292.1271,-181.7222 287.6107,-186.7074 287.6272,-181.7074 287.6272,-181.7074 287.6272,-181.7074 287.6107,-186.7074 283.1272,-181.6926 287.5943,-191.7073 287.5943,-191.7073"/>
</g>
<!-- Medication&#45;&gt;Ingredient -->
<g id="edge2" class="edge">
<title>Medication&#45;&gt;Ingredient</title>
<path fill="none" stroke="#f155ba" d="M301.0911,-189.8816C301.1166,-206.5645 300.8988,-223.3416 300.4377,-238.4089"/>
<ellipse fill="none" stroke="#f155ba" cx="301.0748" cy="-185.7074" rx="4" ry="4"/>
<polygon fill="#f155ba" stroke="#f155ba" points="300.4363,-238.4491 295.5865,-248.2841 300.26,-243.4459 300.0837,-248.4428 300.0837,-248.4428 300.0837,-248.4428 300.26,-243.4459 304.5809,-248.6015 300.4363,-238.4491 300.4363,-238.4491"/>
</g>
<!-- MedicationsIngredient -->
<g id="node4" class="node">
<title>MedicationsIngredient</title>
<path fill="none" stroke="#000000" d="M446.3431,-241C446.3431,-241 666.3431,-241 666.3431,-241 672.3431,-241 678.3431,-247 678.3431,-253 678.3431,-253 678.3431,-335 678.3431,-335 678.3431,-341 672.3431,-347 666.3431,-347 666.3431,-347 446.3431,-347 446.3431,-347 440.3431,-347 434.3431,-341 434.3431,-335 434.3431,-335 434.3431,-253 434.3431,-253 434.3431,-247 440.3431,-241 446.3431,-241"/>
<text text-anchor="middle" x="556.3431" y="-331.8" font-family="Times,serif" font-size="14.00" fill="#000000">MedicationsIngredient</text>
<polyline fill="none" stroke="#000000" points="434.3431,-324 678.3431,-324 "/>
<text text-anchor="start" x="442.3431" y="-308.8" font-family="Times,serif" font-size="14.00" fill="#000000">id :bigint</text>
<text text-anchor="start" x="442.3431" y="-293.8" font-family="Times,serif" font-size="14.00" fill="#000000">ingredient_id :bigint</text>
<text text-anchor="start" x="442.3431" y="-278.8" font-family="Times,serif" font-size="14.00" fill="#000000">medication_id :bigint</text>
<text text-anchor="start" x="442.3431" y="-263.8" font-family="Times,serif" font-size="14.00" fill="#000000">created_at :timestamp without time zone</text>
<text text-anchor="start" x="442.3431" y="-248.8" font-family="Times,serif" font-size="14.00" fill="#000000">updated_at :timestamp without time zone</text>
</g>
<!-- User -->
<g id="node5" class="node">
<title>User</title>
<path fill="none" stroke="#000000" d="M708.8431,-218.5C708.8431,-218.5 997.8431,-218.5 997.8431,-218.5 1003.8431,-218.5 1009.8431,-224.5 1009.8431,-230.5 1009.8431,-230.5 1009.8431,-357.5 1009.8431,-357.5 1009.8431,-363.5 1003.8431,-369.5 997.8431,-369.5 997.8431,-369.5 708.8431,-369.5 708.8431,-369.5 702.8431,-369.5 696.8431,-363.5 696.8431,-357.5 696.8431,-357.5 696.8431,-230.5 696.8431,-230.5 696.8431,-224.5 702.8431,-218.5 708.8431,-218.5"/>
<text text-anchor="middle" x="853.3431" y="-354.3" font-family="Times,serif" font-size="14.00" fill="#000000">User</text>
<polyline fill="none" stroke="#000000" points="696.8431,-346.5 1009.8431,-346.5 "/>
<text text-anchor="start" x="704.8431" y="-331.3" font-family="Times,serif" font-size="14.00" fill="#000000">id :bigint</text>
<text text-anchor="start" x="704.8431" y="-316.3" font-family="Times,serif" font-size="14.00" fill="#000000">email :character varying</text>
<text text-anchor="start" x="704.8431" y="-301.3" font-family="Times,serif" font-size="14.00" fill="#000000">encrypted_password :character varying</text>
<text text-anchor="start" x="704.8431" y="-286.3" font-family="Times,serif" font-size="14.00" fill="#000000">reset_password_token :character varying</text>
<text text-anchor="start" x="704.8431" y="-271.3" font-family="Times,serif" font-size="14.00" fill="#000000">reset_password_sent_at :timestamp without time zone</text>
<text text-anchor="start" x="704.8431" y="-256.3" font-family="Times,serif" font-size="14.00" fill="#000000">remember_created_at :timestamp without time zone</text>
<text text-anchor="start" x="704.8431" y="-241.3" font-family="Times,serif" font-size="14.00" fill="#000000">created_at :timestamp without time zone</text>
<text text-anchor="start" x="704.8431" y="-226.3" font-family="Times,serif" font-size="14.00" fill="#000000">updated_at :timestamp without time zone</text>
</g>
</g>
</svg>
