<?xml version="1.0" encoding="UTF-8" standalone="no"?>
<!DOCTYPE svg PUBLIC "-//W3C//DTD SVG 1.1//EN"
 "http://www.w3.org/Graphics/SVG/1.1/DTD/svg11.dtd">
<!-- Generated by graphviz version 2.40.1 (20161225.0304)
 -->
<!-- Title: controllers_diagram Pages: 1 -->
<svg width="910pt" height="252pt"
 viewBox="0.00 0.00 909.50 252.00" xmlns="http://www.w3.org/2000/svg" xmlns:xlink="http://www.w3.org/1999/xlink">
<g id="graph0" class="graph" transform="scale(1 1) rotate(0) translate(4 248)">
<title>controllers_diagram</title>
<polygon fill="transparent" stroke="transparent" points="-4,4 -4,-248 905.5,-248 905.5,4 -4,4"/>
<!-- ApplicationController -->
<g id="node1" class="node">
<title>ApplicationController</title>
<path fill="none" stroke="#000000" d="M12,-75C12,-75 124,-75 124,-75 130,-75 136,-81 136,-87 136,-87 136,-157 136,-157 136,-163 130,-169 124,-169 124,-169 12,-169 12,-169 6,-169 0,-163 0,-157 0,-157 0,-87 0,-87 0,-81 6,-75 12,-75"/>
<text text-anchor="middle" x="68" y="-153.8" font-family="Times,serif" font-size="14.00" fill="#000000">ApplicationController</text>
<polyline fill="none" stroke="#000000" points="0,-146 136,-146 "/>
<polyline fill="none" stroke="#000000" points="0,-122 136,-122 "/>
<polyline fill="none" stroke="#000000" points="0,-98 136,-98 "/>
<text text-anchor="start" x="8" y="-82.8" font-family="Times,serif" font-size="14.00" fill="#000000">_layout</text>
</g>
<!-- CookingListItemsController -->
<g id="node2" class="node">
<title>CookingListItemsController</title>
<path fill="none" stroke="#000000" d="M166,-68C166,-68 312,-68 312,-68 318,-68 324,-74 324,-80 324,-80 324,-164 324,-164 324,-170 318,-176 312,-176 312,-176 166,-176 166,-176 160,-176 154,-170 154,-164 154,-164 154,-80 154,-80 154,-74 160,-68 166,-68"/>
<text text-anchor="middle" x="239" y="-160.8" font-family="Times,serif" font-size="14.00" fill="#000000">CookingListItemsController</text>
<polyline fill="none" stroke="#000000" points="154,-153 324,-153 "/>
<text text-anchor="start" x="162" y="-137.8" font-family="Times,serif" font-size="14.00" fill="#000000">create</text>
<text text-anchor="start" x="162" y="-122.8" font-family="Times,serif" font-size="14.00" fill="#000000">index</text>
<polyline fill="none" stroke="#000000" points="154,-115 324,-115 "/>
<polyline fill="none" stroke="#000000" points="154,-91 324,-91 "/>
<text text-anchor="start" x="162" y="-75.8" font-family="Times,serif" font-size="14.00" fill="#000000">_layout</text>
</g>
<!-- FridgeItemsController -->
<g id="node3" class="node">
<title>FridgeItemsController</title>
<path fill="none" stroke="#000000" d="M354,-15.5C354,-15.5 468,-15.5 468,-15.5 474,-15.5 480,-21.5 480,-27.5 480,-27.5 480,-216.5 480,-216.5 480,-222.5 474,-228.5 468,-228.5 468,-228.5 354,-228.5 354,-228.5 348,-228.5 342,-222.5 342,-216.5 342,-216.5 342,-27.5 342,-27.5 342,-21.5 348,-15.5 354,-15.5"/>
<text text-anchor="middle" x="411" y="-213.3" font-family="Times,serif" font-size="14.00" fill="#000000">FridgeItemsController</text>
<polyline fill="none" stroke="#000000" points="342,-205.5 480,-205.5 "/>
<text text-anchor="start" x="350" y="-190.3" font-family="Times,serif" font-size="14.00" fill="#000000">create</text>
<text text-anchor="start" x="350" y="-175.3" font-family="Times,serif" font-size="14.00" fill="#000000">decrease</text>
<text text-anchor="start" x="350" y="-160.3" font-family="Times,serif" font-size="14.00" fill="#000000">delete</text>
<text text-anchor="start" x="350" y="-145.3" font-family="Times,serif" font-size="14.00" fill="#000000">empty</text>
<text text-anchor="start" x="350" y="-130.3" font-family="Times,serif" font-size="14.00" fill="#000000">fill</text>
<text text-anchor="start" x="350" y="-115.3" font-family="Times,serif" font-size="14.00" fill="#000000">increase</text>
<text text-anchor="start" x="350" y="-100.3" font-family="Times,serif" font-size="14.00" fill="#000000">index</text>
<polyline fill="none" stroke="#000000" points="342,-92.5 480,-92.5 "/>
<polyline fill="none" stroke="#000000" points="342,-68.5 480,-68.5 "/>
<text text-anchor="start" x="350" y="-53.3" font-family="Times,serif" font-size="14.00" fill="#000000">_layout</text>
<text text-anchor="start" x="350" y="-38.3" font-family="Times,serif" font-size="14.00" fill="#000000">params_permit</text>
<text text-anchor="start" x="350" y="-23.3" font-family="Times,serif" font-size="14.00" fill="#000000">set_fridge_item</text>
</g>
<!-- GroceryItemsController -->
<g id="node4" class="node">
<title>GroceryItemsController</title>
<path fill="none" stroke="#000000" d="M510.5,-.5C510.5,-.5 633.5,-.5 633.5,-.5 639.5,-.5 645.5,-6.5 645.5,-12.5 645.5,-12.5 645.5,-231.5 645.5,-231.5 645.5,-237.5 639.5,-243.5 633.5,-243.5 633.5,-243.5 510.5,-243.5 510.5,-243.5 504.5,-243.5 498.5,-237.5 498.5,-231.5 498.5,-231.5 498.5,-12.5 498.5,-12.5 498.5,-6.5 504.5,-.5 510.5,-.5"/>
<text text-anchor="middle" x="572" y="-228.3" font-family="Times,serif" font-size="14.00" fill="#000000">GroceryItemsController</text>
<polyline fill="none" stroke="#000000" points="498.5,-220.5 645.5,-220.5 "/>
<text text-anchor="start" x="506.5" y="-205.3" font-family="Times,serif" font-size="14.00" fill="#000000">check</text>
<text text-anchor="start" x="506.5" y="-190.3" font-family="Times,serif" font-size="14.00" fill="#000000">create</text>
<text text-anchor="start" x="506.5" y="-175.3" font-family="Times,serif" font-size="14.00" fill="#000000">decrease</text>
<text text-anchor="start" x="506.5" y="-160.3" font-family="Times,serif" font-size="14.00" fill="#000000">increase</text>
<text text-anchor="start" x="506.5" y="-145.3" font-family="Times,serif" font-size="14.00" fill="#000000">index</text>
<text text-anchor="start" x="506.5" y="-130.3" font-family="Times,serif" font-size="14.00" fill="#000000">uncheck</text>
<text text-anchor="start" x="506.5" y="-115.3" font-family="Times,serif" font-size="14.00" fill="#000000">update</text>
<polyline fill="none" stroke="#000000" points="498.5,-107.5 645.5,-107.5 "/>
<polyline fill="none" stroke="#000000" points="498.5,-83.5 645.5,-83.5 "/>
<text text-anchor="start" x="506.5" y="-68.3" font-family="Times,serif" font-size="14.00" fill="#000000">_layout</text>
<text text-anchor="start" x="506.5" y="-53.3" font-family="Times,serif" font-size="14.00" fill="#000000">params_permit</text>
<text text-anchor="start" x="506.5" y="-38.3" font-family="Times,serif" font-size="14.00" fill="#000000">render_create_js</text>
<text text-anchor="start" x="506.5" y="-23.3" font-family="Times,serif" font-size="14.00" fill="#000000">render_refresh_js</text>
<text text-anchor="start" x="506.5" y="-8.3" font-family="Times,serif" font-size="14.00" fill="#000000">set_grocery_item</text>
</g>
<!-- PagesController -->
<g id="node5" class="node">
<title>PagesController</title>
<path fill="none" stroke="#000000" d="M676,-75.5C676,-75.5 756,-75.5 756,-75.5 762,-75.5 768,-81.5 768,-87.5 768,-87.5 768,-156.5 768,-156.5 768,-162.5 762,-168.5 756,-168.5 756,-168.5 676,-168.5 676,-168.5 670,-168.5 664,-162.5 664,-156.5 664,-156.5 664,-87.5 664,-87.5 664,-81.5 670,-75.5 676,-75.5"/>
<text text-anchor="middle" x="716" y="-153.3" font-family="Times,serif" font-size="14.00" fill="#000000">PagesController</text>
<polyline fill="none" stroke="#000000" points="664,-145.5 768,-145.5 "/>
<text text-anchor="start" x="672" y="-130.3" font-family="Times,serif" font-size="14.00" fill="#000000">landing</text>
<polyline fill="none" stroke="#000000" points="664,-122.5 768,-122.5 "/>
<polyline fill="none" stroke="#000000" points="664,-98.5 768,-98.5 "/>
<text text-anchor="start" x="672" y="-83.3" font-family="Times,serif" font-size="14.00" fill="#000000">_layout</text>
</g>
<!-- RecipesController -->
<g id="node6" class="node">
<title>RecipesController</title>
<path fill="none" stroke="#000000" d="M798.5,-60.5C798.5,-60.5 889.5,-60.5 889.5,-60.5 895.5,-60.5 901.5,-66.5 901.5,-72.5 901.5,-72.5 901.5,-171.5 901.5,-171.5 901.5,-177.5 895.5,-183.5 889.5,-183.5 889.5,-183.5 798.5,-183.5 798.5,-183.5 792.5,-183.5 786.5,-177.5 786.5,-171.5 786.5,-171.5 786.5,-72.5 786.5,-72.5 786.5,-66.5 792.5,-60.5 798.5,-60.5"/>
<text text-anchor="middle" x="844" y="-168.3" font-family="Times,serif" font-size="14.00" fill="#000000">RecipesController</text>
<polyline fill="none" stroke="#000000" points="786.5,-160.5 901.5,-160.5 "/>
<text text-anchor="start" x="794.5" y="-145.3" font-family="Times,serif" font-size="14.00" fill="#000000">index</text>
<text text-anchor="start" x="794.5" y="-130.3" font-family="Times,serif" font-size="14.00" fill="#000000">show</text>
<text text-anchor="start" x="794.5" y="-115.3" font-family="Times,serif" font-size="14.00" fill="#000000">steps</text>
<polyline fill="none" stroke="#000000" points="786.5,-107.5 901.5,-107.5 "/>
<polyline fill="none" stroke="#000000" points="786.5,-83.5 901.5,-83.5 "/>
<text text-anchor="start" x="794.5" y="-68.3" font-family="Times,serif" font-size="14.00" fill="#000000">_layout</text>
</g>
</g>
</svg>
