<?xml version="1.0" encoding="UTF-8" standalone="no"?>
<!DOCTYPE svg PUBLIC "-//W3C//DTD SVG 1.1//EN"
 "http://www.w3.org/Graphics/SVG/1.1/DTD/svg11.dtd">
<!-- Generated by graphviz version 2.40.1 (20161225.0304)
 -->
<!-- Title: controllers_diagram Pages: 1 -->
<svg width="889pt" height="222pt"
 viewBox="0.00 0.00 888.50 222.00" xmlns="http://www.w3.org/2000/svg" xmlns:xlink="http://www.w3.org/1999/xlink">
<g id="graph0" class="graph" transform="scale(1 1) rotate(0) translate(4 218)">
<title>controllers_diagram</title>
<polygon fill="transparent" stroke="transparent" points="-4,4 -4,-218 884.5,-218 884.5,4 -4,4"/>
<!-- ApplicationController -->
<g id="node1" class="node">
<title>ApplicationController</title>
<path fill="none" stroke="#000000" d="M12,-52.5C12,-52.5 124,-52.5 124,-52.5 130,-52.5 136,-58.5 136,-64.5 136,-64.5 136,-149.5 136,-149.5 136,-155.5 130,-161.5 124,-161.5 124,-161.5 12,-161.5 12,-161.5 6,-161.5 0,-155.5 0,-149.5 0,-149.5 0,-64.5 0,-64.5 0,-58.5 6,-52.5 12,-52.5"/>
<text text-anchor="middle" x="68" y="-146.3" font-family="Times,serif" font-size="14.00" fill="#000000">ApplicationController</text>
<polyline fill="none" stroke="#000000" points="0,-138.5 136,-138.5 "/>
<polyline fill="none" stroke="#000000" points="0,-114.5 136,-114.5 "/>
<polyline fill="none" stroke="#000000" points="0,-90.5 136,-90.5 "/>
<text text-anchor="start" x="8" y="-75.3" font-family="Times,serif" font-size="14.00" fill="#000000">_layout</text>
<text text-anchor="start" x="8" y="-60.3" font-family="Times,serif" font-size="14.00" fill="#000000">skip_pundit?</text>
</g>
<!-- PagesController -->
<g id="node2" class="node">
<title>PagesController</title>
<path fill="none" stroke="#000000" d="M166,-60.5C166,-60.5 246,-60.5 246,-60.5 252,-60.5 258,-66.5 258,-72.5 258,-72.5 258,-141.5 258,-141.5 258,-147.5 252,-153.5 246,-153.5 246,-153.5 166,-153.5 166,-153.5 160,-153.5 154,-147.5 154,-141.5 154,-141.5 154,-72.5 154,-72.5 154,-66.5 160,-60.5 166,-60.5"/>
<text text-anchor="middle" x="206" y="-138.3" font-family="Times,serif" font-size="14.00" fill="#000000">PagesController</text>
<polyline fill="none" stroke="#000000" points="154,-130.5 258,-130.5 "/>
<text text-anchor="start" x="162" y="-115.3" font-family="Times,serif" font-size="14.00" fill="#000000">home</text>
<polyline fill="none" stroke="#000000" points="154,-107.5 258,-107.5 "/>
<polyline fill="none" stroke="#000000" points="154,-83.5 258,-83.5 "/>
<text text-anchor="start" x="162" y="-68.3" font-family="Times,serif" font-size="14.00" fill="#000000">_layout</text>
</g>
<!-- ReviewsController -->
<g id="node3" class="node">
<title>ReviewsController</title>
<path fill="none" stroke="#000000" d="M288.5,-30.5C288.5,-30.5 383.5,-30.5 383.5,-30.5 389.5,-30.5 395.5,-36.5 395.5,-42.5 395.5,-42.5 395.5,-171.5 395.5,-171.5 395.5,-177.5 389.5,-183.5 383.5,-183.5 383.5,-183.5 288.5,-183.5 288.5,-183.5 282.5,-183.5 276.5,-177.5 276.5,-171.5 276.5,-171.5 276.5,-42.5 276.5,-42.5 276.5,-36.5 282.5,-30.5 288.5,-30.5"/>
<text text-anchor="middle" x="336" y="-168.3" font-family="Times,serif" font-size="14.00" fill="#000000">ReviewsController</text>
<polyline fill="none" stroke="#000000" points="276.5,-160.5 395.5,-160.5 "/>
<text text-anchor="start" x="284.5" y="-145.3" font-family="Times,serif" font-size="14.00" fill="#000000">create</text>
<text text-anchor="start" x="284.5" y="-130.3" font-family="Times,serif" font-size="14.00" fill="#000000">destroy</text>
<text text-anchor="start" x="284.5" y="-115.3" font-family="Times,serif" font-size="14.00" fill="#000000">edit</text>
<text text-anchor="start" x="284.5" y="-100.3" font-family="Times,serif" font-size="14.00" fill="#000000">new</text>
<text text-anchor="start" x="284.5" y="-85.3" font-family="Times,serif" font-size="14.00" fill="#000000">update</text>
<polyline fill="none" stroke="#000000" points="276.5,-77.5 395.5,-77.5 "/>
<polyline fill="none" stroke="#000000" points="276.5,-53.5 395.5,-53.5 "/>
<text text-anchor="start" x="284.5" y="-38.3" font-family="Times,serif" font-size="14.00" fill="#000000">_layout</text>
</g>
<!-- RoutesController -->
<g id="node4" class="node">
<title>RoutesController</title>
<path fill="none" stroke="#000000" d="M426,-.5C426,-.5 512,-.5 512,-.5 518,-.5 524,-6.5 524,-12.5 524,-12.5 524,-201.5 524,-201.5 524,-207.5 518,-213.5 512,-213.5 512,-213.5 426,-213.5 426,-213.5 420,-213.5 414,-207.5 414,-201.5 414,-201.5 414,-12.5 414,-12.5 414,-6.5 420,-.5 426,-.5"/>
<text text-anchor="middle" x="469" y="-198.3" font-family="Times,serif" font-size="14.00" fill="#000000">RoutesController</text>
<polyline fill="none" stroke="#000000" points="414,-190.5 524,-190.5 "/>
<text text-anchor="start" x="422" y="-175.3" font-family="Times,serif" font-size="14.00" fill="#000000">create</text>
<text text-anchor="start" x="422" y="-160.3" font-family="Times,serif" font-size="14.00" fill="#000000">destroy</text>
<text text-anchor="start" x="422" y="-145.3" font-family="Times,serif" font-size="14.00" fill="#000000">edit</text>
<text text-anchor="start" x="422" y="-130.3" font-family="Times,serif" font-size="14.00" fill="#000000">index</text>
<text text-anchor="start" x="422" y="-115.3" font-family="Times,serif" font-size="14.00" fill="#000000">new</text>
<text text-anchor="start" x="422" y="-100.3" font-family="Times,serif" font-size="14.00" fill="#000000">show</text>
<text text-anchor="start" x="422" y="-85.3" font-family="Times,serif" font-size="14.00" fill="#000000">update</text>
<polyline fill="none" stroke="#000000" points="414,-77.5 524,-77.5 "/>
<polyline fill="none" stroke="#000000" points="414,-53.5 524,-53.5 "/>
<text text-anchor="start" x="422" y="-38.3" font-family="Times,serif" font-size="14.00" fill="#000000">_layout</text>
<text text-anchor="start" x="422" y="-23.3" font-family="Times,serif" font-size="14.00" fill="#000000">route_params</text>
<text text-anchor="start" x="422" y="-8.3" font-family="Times,serif" font-size="14.00" fill="#000000">set_route</text>
</g>
<!-- SitesController -->
<g id="node5" class="node">
<title>SitesController</title>
<path fill="none" stroke="#000000" d="M554,-60.5C554,-60.5 628,-60.5 628,-60.5 634,-60.5 640,-66.5 640,-72.5 640,-72.5 640,-141.5 640,-141.5 640,-147.5 634,-153.5 628,-153.5 628,-153.5 554,-153.5 554,-153.5 548,-153.5 542,-147.5 542,-141.5 542,-141.5 542,-72.5 542,-72.5 542,-66.5 548,-60.5 554,-60.5"/>
<text text-anchor="middle" x="591" y="-138.3" font-family="Times,serif" font-size="14.00" fill="#000000">SitesController</text>
<polyline fill="none" stroke="#000000" points="542,-130.5 640,-130.5 "/>
<text text-anchor="start" x="550" y="-115.3" font-family="Times,serif" font-size="14.00" fill="#000000">show</text>
<polyline fill="none" stroke="#000000" points="542,-107.5 640,-107.5 "/>
<polyline fill="none" stroke="#000000" points="542,-83.5 640,-83.5 "/>
<text text-anchor="start" x="550" y="-68.3" font-family="Times,serif" font-size="14.00" fill="#000000">_layout</text>
</g>
<!-- TripsController -->
<g id="node6" class="node">
<title>TripsController</title>
<path fill="none" stroke="#000000" d="M670.5,-23C670.5,-23 747.5,-23 747.5,-23 753.5,-23 759.5,-29 759.5,-35 759.5,-35 759.5,-179 759.5,-179 759.5,-185 753.5,-191 747.5,-191 747.5,-191 670.5,-191 670.5,-191 664.5,-191 658.5,-185 658.5,-179 658.5,-179 658.5,-35 658.5,-35 658.5,-29 664.5,-23 670.5,-23"/>
<text text-anchor="middle" x="709" y="-175.8" font-family="Times,serif" font-size="14.00" fill="#000000">TripsController</text>
<polyline fill="none" stroke="#000000" points="658.5,-168 759.5,-168 "/>
<text text-anchor="start" x="666.5" y="-152.8" font-family="Times,serif" font-size="14.00" fill="#000000">create</text>
<text text-anchor="start" x="666.5" y="-137.8" font-family="Times,serif" font-size="14.00" fill="#000000">destroy</text>
<text text-anchor="start" x="666.5" y="-122.8" font-family="Times,serif" font-size="14.00" fill="#000000">edit</text>
<text text-anchor="start" x="666.5" y="-107.8" font-family="Times,serif" font-size="14.00" fill="#000000">new</text>
<text text-anchor="start" x="666.5" y="-92.8" font-family="Times,serif" font-size="14.00" fill="#000000">show</text>
<text text-anchor="start" x="666.5" y="-77.8" font-family="Times,serif" font-size="14.00" fill="#000000">update</text>
<polyline fill="none" stroke="#000000" points="658.5,-70 759.5,-70 "/>
<polyline fill="none" stroke="#000000" points="658.5,-46 759.5,-46 "/>
<text text-anchor="start" x="666.5" y="-30.8" font-family="Times,serif" font-size="14.00" fill="#000000">_layout</text>
</g>
<!-- UsersController -->
<g id="node7" class="node">
<title>UsersController</title>
<path fill="none" stroke="#000000" d="M789.5,-60.5C789.5,-60.5 868.5,-60.5 868.5,-60.5 874.5,-60.5 880.5,-66.5 880.5,-72.5 880.5,-72.5 880.5,-141.5 880.5,-141.5 880.5,-147.5 874.5,-153.5 868.5,-153.5 868.5,-153.5 789.5,-153.5 789.5,-153.5 783.5,-153.5 777.5,-147.5 777.5,-141.5 777.5,-141.5 777.5,-72.5 777.5,-72.5 777.5,-66.5 783.5,-60.5 789.5,-60.5"/>
<text text-anchor="middle" x="829" y="-138.3" font-family="Times,serif" font-size="14.00" fill="#000000">UsersController</text>
<polyline fill="none" stroke="#000000" points="777.5,-130.5 880.5,-130.5 "/>
<text text-anchor="start" x="785.5" y="-115.3" font-family="Times,serif" font-size="14.00" fill="#000000">show</text>
<polyline fill="none" stroke="#000000" points="777.5,-107.5 880.5,-107.5 "/>
<polyline fill="none" stroke="#000000" points="777.5,-83.5 880.5,-83.5 "/>
<text text-anchor="start" x="785.5" y="-68.3" font-family="Times,serif" font-size="14.00" fill="#000000">_layout</text>
</g>
</g>
</svg>
