<?xml version="1.0" encoding="UTF-8" standalone="no"?>
<!DOCTYPE svg PUBLIC "-//W3C//DTD SVG 1.1//EN"
 "http://www.w3.org/Graphics/SVG/1.1/DTD/svg11.dtd">
<!-- Generated by graphviz version 2.40.1 (20161225.0304)
 -->
<!-- Title: models_diagram Pages: 1 -->
<svg width="1132pt" height="754pt"
 viewBox="0.00 0.00 1132.00 754.00" xmlns="http://www.w3.org/2000/svg" xmlns:xlink="http://www.w3.org/1999/xlink">
<g id="graph0" class="graph" transform="scale(1 1) rotate(0) translate(4 750)">
<title>models_diagram</title>
<polygon fill="transparent" stroke="transparent" points="-4,4 -4,-750 1128,-750 1128,4 -4,4"/>
<!-- ApplicationRecord -->
<g id="node1" class="node">
<title>ApplicationRecord</title>
<ellipse fill="none" stroke="#000000" cx="170" cy="-692.5" rx="77.1866" ry="18"/>
<text text-anchor="middle" x="170" y="-688.8" font-family="Times,serif" font-size="14.00" fill="#000000">ApplicationRecord</text>
</g>
<!-- FridgeItem -->
<g id="node2" class="node">
<title>FridgeItem</title>
<path fill="none" stroke="#000000" d="M68,-233.5C68,-233.5 288,-233.5 288,-233.5 294,-233.5 300,-239.5 300,-245.5 300,-245.5 300,-342.5 300,-342.5 300,-348.5 294,-354.5 288,-354.5 288,-354.5 68,-354.5 68,-354.5 62,-354.5 56,-348.5 56,-342.5 56,-342.5 56,-245.5 56,-245.5 56,-239.5 62,-233.5 68,-233.5"/>
<text text-anchor="middle" x="178" y="-339.3" font-family="Times,serif" font-size="14.00" fill="#000000">FridgeItem</text>
<polyline fill="none" stroke="#000000" points="56,-331.5 300,-331.5 "/>
<text text-anchor="start" x="64" y="-316.3" font-family="Times,serif" font-size="14.00" fill="#000000">id :bigint</text>
<text text-anchor="start" x="64" y="-301.3" font-family="Times,serif" font-size="14.00" fill="#000000">user_id :bigint</text>
<text text-anchor="start" x="64" y="-286.3" font-family="Times,serif" font-size="14.00" fill="#000000">ingredient_id :bigint</text>
<text text-anchor="start" x="64" y="-271.3" font-family="Times,serif" font-size="14.00" fill="#000000">quantity :integer</text>
<text text-anchor="start" x="64" y="-256.3" font-family="Times,serif" font-size="14.00" fill="#000000">created_at :timestamp without time zone</text>
<text text-anchor="start" x="64" y="-241.3" font-family="Times,serif" font-size="14.00" fill="#000000">updated_at :timestamp without time zone</text>
</g>
<!-- GroceryItem -->
<g id="node3" class="node">
<title>GroceryItem</title>
<path fill="none" stroke="#000000" d="M330,-226C330,-226 550,-226 550,-226 556,-226 562,-232 562,-238 562,-238 562,-350 562,-350 562,-356 556,-362 550,-362 550,-362 330,-362 330,-362 324,-362 318,-356 318,-350 318,-350 318,-238 318,-238 318,-232 324,-226 330,-226"/>
<text text-anchor="middle" x="440" y="-346.8" font-family="Times,serif" font-size="14.00" fill="#000000">GroceryItem</text>
<polyline fill="none" stroke="#000000" points="318,-339 562,-339 "/>
<text text-anchor="start" x="326" y="-323.8" font-family="Times,serif" font-size="14.00" fill="#000000">id :bigint</text>
<text text-anchor="start" x="326" y="-308.8" font-family="Times,serif" font-size="14.00" fill="#000000">user_id :bigint</text>
<text text-anchor="start" x="326" y="-293.8" font-family="Times,serif" font-size="14.00" fill="#000000">ingredient_id :bigint</text>
<text text-anchor="start" x="326" y="-278.8" font-family="Times,serif" font-size="14.00" fill="#000000">quantity :integer</text>
<text text-anchor="start" x="326" y="-263.8" font-family="Times,serif" font-size="14.00" fill="#000000">checked :boolean</text>
<text text-anchor="start" x="326" y="-248.8" font-family="Times,serif" font-size="14.00" fill="#000000">created_at :timestamp without time zone</text>
<text text-anchor="start" x="326" y="-233.8" font-family="Times,serif" font-size="14.00" fill="#000000">updated_at :timestamp without time zone</text>
</g>
<!-- Ingredient -->
<g id="node4" class="node">
<title>Ingredient</title>
<path fill="none" stroke="#000000" d="M277,-639.5C277,-639.5 497,-639.5 497,-639.5 503,-639.5 509,-645.5 509,-651.5 509,-651.5 509,-733.5 509,-733.5 509,-739.5 503,-745.5 497,-745.5 497,-745.5 277,-745.5 277,-745.5 271,-745.5 265,-739.5 265,-733.5 265,-733.5 265,-651.5 265,-651.5 265,-645.5 271,-639.5 277,-639.5"/>
<text text-anchor="middle" x="387" y="-730.3" font-family="Times,serif" font-size="14.00" fill="#000000">Ingredient</text>
<polyline fill="none" stroke="#000000" points="265,-722.5 509,-722.5 "/>
<text text-anchor="start" x="273" y="-707.3" font-family="Times,serif" font-size="14.00" fill="#000000">id :bigint</text>
<text text-anchor="start" x="273" y="-692.3" font-family="Times,serif" font-size="14.00" fill="#000000">name :character varying</text>
<text text-anchor="start" x="273" y="-677.3" font-family="Times,serif" font-size="14.00" fill="#000000">unit_of_measure :character varying</text>
<text text-anchor="start" x="273" y="-662.3" font-family="Times,serif" font-size="14.00" fill="#000000">created_at :timestamp without time zone</text>
<text text-anchor="start" x="273" y="-647.3" font-family="Times,serif" font-size="14.00" fill="#000000">updated_at :timestamp without time zone</text>
</g>
<!-- Ingredient&#45;&gt;FridgeItem -->
<g id="edge1" class="edge">
<title>Ingredient&#45;&gt;FridgeItem</title>
<path fill="none" stroke="#2577b7" d="M355.3068,-632.0706C317.4661,-559.9199 254.3065,-439.4936 214.4716,-363.5404"/>
<ellipse fill="none" stroke="#2577b7" cx="357.1723" cy="-635.6276" rx="4" ry="4"/>
<polygon fill="#2577b7" stroke="#2577b7" points="214.3773,-363.3605 213.7178,-352.4144 212.055,-358.9325 209.7326,-354.5045 209.7326,-354.5045 209.7326,-354.5045 212.055,-358.9325 205.7474,-356.5946 214.3773,-363.3605 214.3773,-363.3605"/>
</g>
<!-- Ingredient&#45;&gt;GroceryItem -->
<g id="edge2" class="edge">
<title>Ingredient&#45;&gt;GroceryItem</title>
<path fill="none" stroke="#016605" d="M388.7753,-631.0048C390.944,-578.8455 395.696,-502.172 406,-436 409.2513,-415.1204 413.9902,-392.7822 418.9032,-372.1493"/>
<ellipse fill="none" stroke="#016605" cx="388.6089" cy="-635.1634" rx="4" ry="4"/>
<polygon fill="#016605" stroke="#016605" points="418.9662,-371.8895 425.6965,-363.2319 420.1447,-367.0303 421.3233,-362.1712 421.3233,-362.1712 421.3233,-362.1712 420.1447,-367.0303 416.9501,-361.1105 418.9662,-371.8895 418.9662,-371.8895"/>
</g>
<!-- RecipeItem -->
<g id="node6" class="node">
<title>RecipeItem</title>
<path fill="none" stroke="#000000" d="M12,-15.5C12,-15.5 232,-15.5 232,-15.5 238,-15.5 244,-21.5 244,-27.5 244,-27.5 244,-124.5 244,-124.5 244,-130.5 238,-136.5 232,-136.5 232,-136.5 12,-136.5 12,-136.5 6,-136.5 0,-130.5 0,-124.5 0,-124.5 0,-27.5 0,-27.5 0,-21.5 6,-15.5 12,-15.5"/>
<text text-anchor="middle" x="122" y="-121.3" font-family="Times,serif" font-size="14.00" fill="#000000">RecipeItem</text>
<polyline fill="none" stroke="#000000" points="0,-113.5 244,-113.5 "/>
<text text-anchor="start" x="8" y="-98.3" font-family="Times,serif" font-size="14.00" fill="#000000">id :bigint</text>
<text text-anchor="start" x="8" y="-83.3" font-family="Times,serif" font-size="14.00" fill="#000000">recipe_id :bigint</text>
<text text-anchor="start" x="8" y="-68.3" font-family="Times,serif" font-size="14.00" fill="#000000">ingredient_id :bigint</text>
<text text-anchor="start" x="8" y="-53.3" font-family="Times,serif" font-size="14.00" fill="#000000">quantity :integer</text>
<text text-anchor="start" x="8" y="-38.3" font-family="Times,serif" font-size="14.00" fill="#000000">created_at :timestamp without time zone</text>
<text text-anchor="start" x="8" y="-23.3" font-family="Times,serif" font-size="14.00" fill="#000000">updated_at :timestamp without time zone</text>
</g>
<!-- Ingredient&#45;&gt;RecipeItem -->
<g id="edge3" class="edge">
<title>Ingredient&#45;&gt;RecipeItem</title>
<path fill="none" stroke="#48a82b" d="M277.1557,-635.0462C195.5438,-585.314 91.0439,-504.8815 47,-400 10.5185,-313.1269 19.6031,-278.1512 47,-188 51.4654,-173.3063 58.57,-158.786 66.6672,-145.3158"/>
<ellipse fill="none" stroke="#48a82b" cx="281.0553" cy="-637.3987" rx="4" ry="4"/>
<polygon fill="#48a82b" stroke="#48a82b" points="66.8036,-145.098 75.9269,-139.0139 69.4587,-140.8612 72.1138,-136.6244 72.1138,-136.6244 72.1138,-136.6244 69.4587,-140.8612 68.3006,-134.2348 66.8036,-145.098 66.8036,-145.098"/>
</g>
<!-- User -->
<g id="node9" class="node">
<title>User</title>
<path fill="none" stroke="#000000" d="M427.5,-436.5C427.5,-436.5 716.5,-436.5 716.5,-436.5 722.5,-436.5 728.5,-442.5 728.5,-448.5 728.5,-448.5 728.5,-590.5 728.5,-590.5 728.5,-596.5 722.5,-602.5 716.5,-602.5 716.5,-602.5 427.5,-602.5 427.5,-602.5 421.5,-602.5 415.5,-596.5 415.5,-590.5 415.5,-590.5 415.5,-448.5 415.5,-448.5 415.5,-442.5 421.5,-436.5 427.5,-436.5"/>
<text text-anchor="middle" x="572" y="-587.3" font-family="Times,serif" font-size="14.00" fill="#000000">User</text>
<polyline fill="none" stroke="#000000" points="415.5,-579.5 728.5,-579.5 "/>
<text text-anchor="start" x="423.5" y="-564.3" font-family="Times,serif" font-size="14.00" fill="#000000">id :bigint</text>
<text text-anchor="start" x="423.5" y="-549.3" font-family="Times,serif" font-size="14.00" fill="#000000">email :character varying</text>
<text text-anchor="start" x="423.5" y="-534.3" font-family="Times,serif" font-size="14.00" fill="#000000">encrypted_password :character varying</text>
<text text-anchor="start" x="423.5" y="-519.3" font-family="Times,serif" font-size="14.00" fill="#000000">reset_password_token :character varying</text>
<text text-anchor="start" x="423.5" y="-504.3" font-family="Times,serif" font-size="14.00" fill="#000000">reset_password_sent_at :timestamp without time zone</text>
<text text-anchor="start" x="423.5" y="-489.3" font-family="Times,serif" font-size="14.00" fill="#000000">remember_created_at :timestamp without time zone</text>
<text text-anchor="start" x="423.5" y="-474.3" font-family="Times,serif" font-size="14.00" fill="#000000">created_at :timestamp without time zone</text>
<text text-anchor="start" x="423.5" y="-459.3" font-family="Times,serif" font-size="14.00" fill="#000000">updated_at :timestamp without time zone</text>
<text text-anchor="start" x="423.5" y="-444.3" font-family="Times,serif" font-size="14.00" fill="#000000">avatar :character varying</text>
</g>
<!-- Ingredient&#45;&gt;User -->
<g id="edge4" class="edge">
<title>Ingredient&#45;&gt;User</title>
<path fill="none" stroke="#afcd12" d="M451.1529,-632.5084C459.0276,-625.1445 467.2057,-617.4968 475.4268,-609.8089"/>
<polygon fill="#afcd12" stroke="#afcd12" points="451.0674,-632.5884 440.6897,-636.1318 447.4154,-636.0035 443.7633,-639.4186 443.7633,-639.4186 443.7633,-639.4186 447.4154,-636.0035 446.837,-642.7054 451.0674,-632.5884 451.0674,-632.5884"/>
<polygon fill="#afcd12" stroke="#afcd12" points="475.6775,-609.5746 486.0551,-606.0312 479.3295,-606.1595 482.9815,-602.7444 482.9815,-602.7444 482.9815,-602.7444 479.3295,-606.1595 479.9079,-599.4576 475.6775,-609.5746 475.6775,-609.5746"/>
</g>
<!-- Recipe -->
<g id="node5" class="node">
<title>Recipe</title>
<path fill="none" stroke="#000000" d="M630,-188.5C630,-188.5 850,-188.5 850,-188.5 856,-188.5 862,-194.5 862,-200.5 862,-200.5 862,-387.5 862,-387.5 862,-393.5 856,-399.5 850,-399.5 850,-399.5 630,-399.5 630,-399.5 624,-399.5 618,-393.5 618,-387.5 618,-387.5 618,-200.5 618,-200.5 618,-194.5 624,-188.5 630,-188.5"/>
<text text-anchor="middle" x="740" y="-384.3" font-family="Times,serif" font-size="14.00" fill="#000000">Recipe</text>
<polyline fill="none" stroke="#000000" points="618,-376.5 862,-376.5 "/>
<text text-anchor="start" x="626" y="-361.3" font-family="Times,serif" font-size="14.00" fill="#000000">id :bigint</text>
<text text-anchor="start" x="626" y="-346.3" font-family="Times,serif" font-size="14.00" fill="#000000">user_id :bigint</text>
<text text-anchor="start" x="626" y="-331.3" font-family="Times,serif" font-size="14.00" fill="#000000">name :character varying</text>
<text text-anchor="start" x="626" y="-316.3" font-family="Times,serif" font-size="14.00" fill="#000000">prep_time :integer</text>
<text text-anchor="start" x="626" y="-301.3" font-family="Times,serif" font-size="14.00" fill="#000000">cook_time :integer</text>
<text text-anchor="start" x="626" y="-286.3" font-family="Times,serif" font-size="14.00" fill="#000000">servings :integer</text>
<text text-anchor="start" x="626" y="-271.3" font-family="Times,serif" font-size="14.00" fill="#000000">steps :character varying</text>
<text text-anchor="start" x="626" y="-256.3" font-family="Times,serif" font-size="14.00" fill="#000000">rating :integer</text>
<text text-anchor="start" x="626" y="-241.3" font-family="Times,serif" font-size="14.00" fill="#000000">photo :character varying</text>
<text text-anchor="start" x="626" y="-226.3" font-family="Times,serif" font-size="14.00" fill="#000000">created_at :timestamp without time zone</text>
<text text-anchor="start" x="626" y="-211.3" font-family="Times,serif" font-size="14.00" fill="#000000">updated_at :timestamp without time zone</text>
<text text-anchor="start" x="626" y="-196.3" font-family="Times,serif" font-size="14.00" fill="#000000">difficulty :character varying</text>
</g>
<!-- Recipe&#45;&gt;Ingredient -->
<g id="edge6" class="edge">
<title>Recipe&#45;&gt;Ingredient</title>
<path fill="none" stroke="#2cde17" d="M771.0296,-409.8497C780.7933,-473.205 779.8846,-549.4537 738,-603 710.6719,-637.9369 606.8857,-661.5464 519.2004,-675.7041"/>
<polygon fill="#2cde17" stroke="#2cde17" points="770.9993,-409.665 773.8158,-399.067 770.1874,-404.7314 769.3755,-399.7977 769.3755,-399.7977 769.3755,-399.7977 770.1874,-404.7314 764.9352,-400.5284 770.9993,-409.665 770.9993,-409.665"/>
<polygon fill="#2cde17" stroke="#2cde17" points="519.0161,-675.7332 508.4348,-672.8544 514.0777,-676.5161 509.1394,-677.2989 509.1394,-677.2989 509.1394,-677.2989 514.0777,-676.5161 509.844,-681.7434 519.0161,-675.7332 519.0161,-675.7332"/>
</g>
<!-- Recipe&#45;&gt;RecipeItem -->
<g id="edge5" class="edge">
<title>Recipe&#45;&gt;RecipeItem</title>
<path fill="none" stroke="#4f1f2c" d="M610.6648,-205.8257C597.6083,-199.0928 584.2655,-192.9897 571,-188 476.6226,-152.5006 444.8816,-176.2178 347,-152 316.4826,-144.4494 284.1841,-134.6546 253.8726,-124.6222"/>
<ellipse fill="none" stroke="#4f1f2c" cx="614.3472" cy="-207.7645" rx="4" ry="4"/>
<polygon fill="#4f1f2c" stroke="#4f1f2c" points="253.5905,-124.528 245.5318,-117.091 248.8482,-122.9435 244.1058,-121.3591 244.1058,-121.3591 244.1058,-121.3591 248.8482,-122.9435 242.6798,-125.6272 253.5905,-124.528 253.5905,-124.528"/>
</g>
<!-- Review -->
<g id="node7" class="node">
<title>Review</title>
<path fill="none" stroke="#000000" d="M892,-.5C892,-.5 1112,-.5 1112,-.5 1118,-.5 1124,-6.5 1124,-12.5 1124,-12.5 1124,-139.5 1124,-139.5 1124,-145.5 1118,-151.5 1112,-151.5 1112,-151.5 892,-151.5 892,-151.5 886,-151.5 880,-145.5 880,-139.5 880,-139.5 880,-12.5 880,-12.5 880,-6.5 886,-.5 892,-.5"/>
<text text-anchor="middle" x="1002" y="-136.3" font-family="Times,serif" font-size="14.00" fill="#000000">Review</text>
<polyline fill="none" stroke="#000000" points="880,-128.5 1124,-128.5 "/>
<text text-anchor="start" x="888" y="-113.3" font-family="Times,serif" font-size="14.00" fill="#000000">id :bigint</text>
<text text-anchor="start" x="888" y="-98.3" font-family="Times,serif" font-size="14.00" fill="#000000">content :text</text>
<text text-anchor="start" x="888" y="-83.3" font-family="Times,serif" font-size="14.00" fill="#000000">rating :integer</text>
<text text-anchor="start" x="888" y="-68.3" font-family="Times,serif" font-size="14.00" fill="#000000">date :date</text>
<text text-anchor="start" x="888" y="-53.3" font-family="Times,serif" font-size="14.00" fill="#000000">user_id :bigint</text>
<text text-anchor="start" x="888" y="-38.3" font-family="Times,serif" font-size="14.00" fill="#000000">recipe_id :bigint</text>
<text text-anchor="start" x="888" y="-23.3" font-family="Times,serif" font-size="14.00" fill="#000000">created_at :timestamp without time zone</text>
<text text-anchor="start" x="888" y="-8.3" font-family="Times,serif" font-size="14.00" fill="#000000">updated_at :timestamp without time zone</text>
</g>
<!-- Recipe&#45;&gt;Review -->
<g id="edge7" class="edge">
<title>Recipe&#45;&gt;Review</title>
<path fill="none" stroke="#19dfc6" d="M868.3388,-187.2142C880.0261,-177.4897 891.7416,-167.7417 903.113,-158.28"/>
<ellipse fill="none" stroke="#19dfc6" cx="865.2536" cy="-189.7813" rx="4" ry="4"/>
<polygon fill="#19dfc6" stroke="#19dfc6" points="903.239,-158.1752 913.8043,-155.2383 907.0825,-154.9772 910.926,-151.7791 910.926,-151.7791 910.926,-151.7791 907.0825,-154.9772 908.0478,-148.3199 903.239,-158.1752 903.239,-158.1752"/>
</g>
<!-- Step -->
<g id="node8" class="node">
<title>Step</title>
<path fill="none" stroke="#000000" d="M630,-15.5C630,-15.5 850,-15.5 850,-15.5 856,-15.5 862,-21.5 862,-27.5 862,-27.5 862,-124.5 862,-124.5 862,-130.5 856,-136.5 850,-136.5 850,-136.5 630,-136.5 630,-136.5 624,-136.5 618,-130.5 618,-124.5 618,-124.5 618,-27.5 618,-27.5 618,-21.5 624,-15.5 630,-15.5"/>
<text text-anchor="middle" x="740" y="-121.3" font-family="Times,serif" font-size="14.00" fill="#000000">Step</text>
<polyline fill="none" stroke="#000000" points="618,-113.5 862,-113.5 "/>
<text text-anchor="start" x="626" y="-98.3" font-family="Times,serif" font-size="14.00" fill="#000000">id :bigint</text>
<text text-anchor="start" x="626" y="-83.3" font-family="Times,serif" font-size="14.00" fill="#000000">content :text</text>
<text text-anchor="start" x="626" y="-68.3" font-family="Times,serif" font-size="14.00" fill="#000000">order :integer</text>
<text text-anchor="start" x="626" y="-53.3" font-family="Times,serif" font-size="14.00" fill="#000000">recipe_id :bigint</text>
<text text-anchor="start" x="626" y="-38.3" font-family="Times,serif" font-size="14.00" fill="#000000">created_at :timestamp without time zone</text>
<text text-anchor="start" x="626" y="-23.3" font-family="Times,serif" font-size="14.00" fill="#000000">updated_at :timestamp without time zone</text>
</g>
<!-- Recipe&#45;&gt;Step -->
<g id="edge8" class="edge">
<title>Recipe&#45;&gt;Step</title>
<path fill="none" stroke="#8d1618" d="M740,-179.9031C740,-168.6034 740,-157.3768 740,-146.7107"/>
<ellipse fill="none" stroke="#8d1618" cx="740" cy="-184.193" rx="4" ry="4"/>
<polygon fill="#8d1618" stroke="#8d1618" points="740.0001,-146.672 744.5,-136.6719 740,-141.672 740,-136.672 740,-136.672 740,-136.672 740,-141.672 735.5,-136.672 740.0001,-146.672 740.0001,-146.672"/>
</g>
<!-- Recipe&#45;&gt;User -->
<g id="edge10" class="edge">
<title>Recipe&#45;&gt;User</title>
<path fill="none" stroke="#0f7342" d="M661.8998,-407.8907C656.7942,-414.7388 651.6596,-421.5813 646.5712,-428.3172"/>
<polygon fill="#0f7342" stroke="#0f7342" points="661.9081,-407.8795 671.4865,-402.5404 664.8918,-403.8673 667.8755,-399.8551 667.8755,-399.8551 667.8755,-399.8551 664.8918,-403.8673 664.2645,-397.1698 661.9081,-407.8795 661.9081,-407.8795"/>
<polygon fill="#0f7342" stroke="#0f7342" points="646.4164,-428.5216 636.791,-433.7756 643.3972,-432.5072 640.3781,-436.4928 640.3781,-436.4928 640.3781,-436.4928 643.3972,-432.5072 643.9651,-439.2101 646.4164,-428.5216 646.4164,-428.5216"/>
</g>
<!-- WishlistItem -->
<g id="node10" class="node">
<title>WishlistItem</title>
<path fill="none" stroke="#000000" d="M368,-23C368,-23 588,-23 588,-23 594,-23 600,-29 600,-35 600,-35 600,-117 600,-117 600,-123 594,-129 588,-129 588,-129 368,-129 368,-129 362,-129 356,-123 356,-117 356,-117 356,-35 356,-35 356,-29 362,-23 368,-23"/>
<text text-anchor="middle" x="478" y="-113.8" font-family="Times,serif" font-size="14.00" fill="#000000">WishlistItem</text>
<polyline fill="none" stroke="#000000" points="356,-106 600,-106 "/>
<text text-anchor="start" x="364" y="-90.8" font-family="Times,serif" font-size="14.00" fill="#000000">id :bigint</text>
<text text-anchor="start" x="364" y="-75.8" font-family="Times,serif" font-size="14.00" fill="#000000">user_id :bigint</text>
<text text-anchor="start" x="364" y="-60.8" font-family="Times,serif" font-size="14.00" fill="#000000">recipe_id :bigint</text>
<text text-anchor="start" x="364" y="-45.8" font-family="Times,serif" font-size="14.00" fill="#000000">created_at :timestamp without time zone</text>
<text text-anchor="start" x="364" y="-30.8" font-family="Times,serif" font-size="14.00" fill="#000000">updated_at :timestamp without time zone</text>
</g>
<!-- Recipe&#45;&gt;WishlistItem -->
<g id="edge9" class="edge">
<title>Recipe&#45;&gt;WishlistItem</title>
<path fill="none" stroke="#139c17" d="M611.6549,-187.209C590.3217,-169.4585 568.8945,-151.6298 549.6377,-135.6069"/>
<ellipse fill="none" stroke="#139c17" cx="614.7464" cy="-189.7813" rx="4" ry="4"/>
<polygon fill="#139c17" stroke="#139c17" points="549.4948,-135.488 544.686,-125.6328 545.6513,-132.29 541.8077,-129.0919 541.8077,-129.0919 541.8077,-129.0919 545.6513,-132.29 538.9295,-132.5511 549.4948,-135.488 549.4948,-135.488"/>
</g>
<!-- User&#45;&gt;FridgeItem -->
<g id="edge13" class="edge">
<title>User&#45;&gt;FridgeItem</title>
<path fill="none" stroke="#f93450" d="M407.7126,-452.6389C374.2332,-436.8736 339.8408,-419.053 309,-400 290.438,-388.5327 271.5733,-374.7507 254.1576,-360.9759"/>
<ellipse fill="none" stroke="#f93450" cx="411.6673" cy="-454.4868" rx="4" ry="4"/>
<polygon fill="#f93450" stroke="#f93450" points="254.0702,-360.906 249.0766,-351.143 250.1671,-357.7809 246.264,-354.6558 246.264,-354.6558 246.264,-354.6558 250.1671,-357.7809 243.4514,-358.1686 254.0702,-360.906 254.0702,-360.906"/>
</g>
<!-- User&#45;&gt;GroceryItem -->
<g id="edge12" class="edge">
<title>User&#45;&gt;GroceryItem</title>
<path fill="none" stroke="#a331a8" d="M519.3502,-429.5565C507.9829,-410.1374 496.0642,-389.7764 485.0202,-370.9096"/>
<ellipse fill="none" stroke="#a331a8" cx="521.3897" cy="-433.0407" rx="4" ry="4"/>
<polygon fill="#a331a8" stroke="#a331a8" points="484.8964,-370.698 483.7282,-359.7945 482.3705,-366.3829 479.8446,-362.0678 479.8446,-362.0678 479.8446,-362.0678 482.3705,-366.3829 475.961,-364.3412 484.8964,-370.698 484.8964,-370.698"/>
</g>
<!-- User&#45;&gt;Recipe -->
<g id="edge11" class="edge">
<title>User&#45;&gt;Recipe</title>
<path fill="none" stroke="#8a9ed8" d="M632.0439,-430.0188C637.3849,-422.7397 642.8657,-415.3253 648.3904,-407.9043"/>
<ellipse fill="none" stroke="#8a9ed8" cx="629.6673" cy="-433.2652" rx="4" ry="4"/>
<polygon fill="#8a9ed8" stroke="#8a9ed8" points="648.4166,-407.8691 658.0043,-402.5467 651.4073,-403.8621 654.398,-399.8551 654.398,-399.8551 654.398,-399.8551 651.4073,-403.8621 650.7917,-397.1635 648.4166,-407.8691 648.4166,-407.8691"/>
</g>
<!-- User&#45;&gt;Review -->
<g id="edge15" class="edge">
<title>User&#45;&gt;Review</title>
<path fill="none" stroke="#558055" d="M736.4535,-480.4886C784.6076,-462.5036 834.1554,-436.6972 871,-400 936.0763,-335.184 969.9963,-233.7304 986.8521,-161.633"/>
<ellipse fill="none" stroke="#558055" cx="732.496" cy="-481.9351" rx="4" ry="4"/>
<polygon fill="#558055" stroke="#558055" points="986.9021,-161.4127 993.5068,-152.6589 988.0104,-156.5371 989.1187,-151.6614 989.1187,-151.6614 989.1187,-151.6614 988.0104,-156.5371 984.7307,-150.664 986.9021,-161.4127 986.9021,-161.4127"/>
</g>
<!-- User&#45;&gt;WishlistItem -->
<g id="edge14" class="edge">
<title>User&#45;&gt;WishlistItem</title>
<path fill="none" stroke="#310e1c" d="M587.9618,-428.2317C596.0812,-359.9743 599.1009,-265.4638 571,-188 564.3945,-169.791 553.4087,-152.4465 541.2575,-137.0809"/>
<ellipse fill="none" stroke="#310e1c" cx="587.4394" cy="-432.453" rx="4" ry="4"/>
<polygon fill="#310e1c" stroke="#310e1c" points="541.1592,-136.9611 538.2921,-126.3766 537.9866,-133.0965 534.814,-129.232 534.814,-129.232 534.814,-129.232 537.9866,-133.0965 531.3359,-132.0873 541.1592,-136.9611 541.1592,-136.9611"/>
</g>
</g>
</svg>
