<?xml version="1.0" encoding="UTF-8" standalone="no"?>
<!DOCTYPE svg PUBLIC "-//W3C//DTD SVG 1.1//EN"
 "http://www.w3.org/Graphics/SVG/1.1/DTD/svg11.dtd">
<!-- Generated by graphviz version 2.40.1 (20161225.0304)
 -->
<!-- Title: controllers_diagram Pages: 1 -->
<svg width="400pt" height="132pt"
 viewBox="0.00 0.00 400.00 132.00" xmlns="http://www.w3.org/2000/svg" xmlns:xlink="http://www.w3.org/1999/xlink">
<g id="graph0" class="graph" transform="scale(1 1) rotate(0) translate(4 128)">
<title>controllers_diagram</title>
<polygon fill="transparent" stroke="transparent" points="-4,4 -4,-128 396,-128 396,4 -4,4"/>
<!-- ApplicationController -->
<g id="node1" class="node">
<title>ApplicationController</title>
<path fill="none" stroke="#000000" d="M12,-15C12,-15 124,-15 124,-15 130,-15 136,-21 136,-27 136,-27 136,-97 136,-97 136,-103 130,-109 124,-109 124,-109 12,-109 12,-109 6,-109 0,-103 0,-97 0,-97 0,-27 0,-27 0,-21 6,-15 12,-15"/>
<text text-anchor="middle" x="68" y="-93.8" font-family="Times,serif" font-size="14.00" fill="#000000">ApplicationController</text>
<polyline fill="none" stroke="#000000" points="0,-86 136,-86 "/>
<polyline fill="none" stroke="#000000" points="0,-62 136,-62 "/>
<polyline fill="none" stroke="#000000" points="0,-38 136,-38 "/>
<text text-anchor="start" x="8" y="-22.8" font-family="Times,serif" font-size="14.00" fill="#000000">_layout</text>
</g>
<!-- PagesController -->
<g id="node2" class="node">
<title>PagesController</title>
<path fill="none" stroke="#000000" d="M166,-15.5C166,-15.5 246,-15.5 246,-15.5 252,-15.5 258,-21.5 258,-27.5 258,-27.5 258,-96.5 258,-96.5 258,-102.5 252,-108.5 246,-108.5 246,-108.5 166,-108.5 166,-108.5 160,-108.5 154,-102.5 154,-96.5 154,-96.5 154,-27.5 154,-27.5 154,-21.5 160,-15.5 166,-15.5"/>
<text text-anchor="middle" x="206" y="-93.3" font-family="Times,serif" font-size="14.00" fill="#000000">PagesController</text>
<polyline fill="none" stroke="#000000" points="154,-85.5 258,-85.5 "/>
<text text-anchor="start" x="162" y="-70.3" font-family="Times,serif" font-size="14.00" fill="#000000">home</text>
<polyline fill="none" stroke="#000000" points="154,-62.5 258,-62.5 "/>
<polyline fill="none" stroke="#000000" points="154,-38.5 258,-38.5 "/>
<text text-anchor="start" x="162" y="-23.3" font-family="Times,serif" font-size="14.00" fill="#000000">_layout</text>
</g>
<!-- ProjectsController -->
<g id="node3" class="node">
<title>ProjectsController</title>
<path fill="none" stroke="#000000" d="M288,-.5C288,-.5 380,-.5 380,-.5 386,-.5 392,-6.5 392,-12.5 392,-12.5 392,-111.5 392,-111.5 392,-117.5 386,-123.5 380,-123.5 380,-123.5 288,-123.5 288,-123.5 282,-123.5 276,-117.5 276,-111.5 276,-111.5 276,-12.5 276,-12.5 276,-6.5 282,-.5 288,-.5"/>
<text text-anchor="middle" x="334" y="-108.3" font-family="Times,serif" font-size="14.00" fill="#000000">ProjectsController</text>
<polyline fill="none" stroke="#000000" points="276,-100.5 392,-100.5 "/>
<text text-anchor="start" x="284" y="-85.3" font-family="Times,serif" font-size="14.00" fill="#000000">index</text>
<text text-anchor="start" x="284" y="-70.3" font-family="Times,serif" font-size="14.00" fill="#000000">new</text>
<text text-anchor="start" x="284" y="-55.3" font-family="Times,serif" font-size="14.00" fill="#000000">show</text>
<polyline fill="none" stroke="#000000" points="276,-47.5 392,-47.5 "/>
<polyline fill="none" stroke="#000000" points="276,-23.5 392,-23.5 "/>
<text text-anchor="start" x="284" y="-8.3" font-family="Times,serif" font-size="14.00" fill="#000000">_layout</text>
</g>
</g>
</svg>
