<?xml version="1.0" encoding="UTF-8" standalone="no"?>
<!DOCTYPE svg PUBLIC "-//W3C//DTD SVG 1.1//EN"
 "http://www.w3.org/Graphics/SVG/1.1/DTD/svg11.dtd">
<!-- Generated by graphviz version 2.40.1 (20161225.0304)
 -->
<!-- Title: models_diagram Pages: 1 -->
<svg width="1301pt" height="754pt"
 viewBox="0.00 0.00 1301.34 754.00" xmlns="http://www.w3.org/2000/svg" xmlns:xlink="http://www.w3.org/1999/xlink">
<g id="graph0" class="graph" transform="scale(1 1) rotate(0) translate(4 750)">
<title>models_diagram</title>
<polygon fill="transparent" stroke="transparent" points="-4,4 -4,-750 1297.3431,-750 1297.3431,4 -4,4"/>
<!-- ApplicationRecord -->
<g id="node1" class="node">
<title>ApplicationRecord</title>
<ellipse fill="none" stroke="#000000" cx="77.3431" cy="-692.5" rx="77.1866" ry="18"/>
<text text-anchor="middle" x="77.3431" y="-688.8" font-family="Times,serif" font-size="14.00" fill="#000000">ApplicationRecord</text>
</g>
<!-- FavoriteItem -->
<g id="node2" class="node">
<title>FavoriteItem</title>
<path fill="none" stroke="#000000" d="M184.3431,-639.5C184.3431,-639.5 404.3431,-639.5 404.3431,-639.5 410.3431,-639.5 416.3431,-645.5 416.3431,-651.5 416.3431,-651.5 416.3431,-733.5 416.3431,-733.5 416.3431,-739.5 410.3431,-745.5 404.3431,-745.5 404.3431,-745.5 184.3431,-745.5 184.3431,-745.5 178.3431,-745.5 172.3431,-739.5 172.3431,-733.5 172.3431,-733.5 172.3431,-651.5 172.3431,-651.5 172.3431,-645.5 178.3431,-639.5 184.3431,-639.5"/>
<text text-anchor="middle" x="294.3431" y="-730.3" font-family="Times,serif" font-size="14.00" fill="#000000">FavoriteItem</text>
<polyline fill="none" stroke="#000000" points="172.3431,-722.5 416.3431,-722.5 "/>
<text text-anchor="start" x="180.3431" y="-707.3" font-family="Times,serif" font-size="14.00" fill="#000000">id :bigint</text>
<text text-anchor="start" x="180.3431" y="-692.3" font-family="Times,serif" font-size="14.00" fill="#000000">user_id :bigint</text>
<text text-anchor="start" x="180.3431" y="-677.3" font-family="Times,serif" font-size="14.00" fill="#000000">recipe_id :bigint</text>
<text text-anchor="start" x="180.3431" y="-662.3" font-family="Times,serif" font-size="14.00" fill="#000000">created_at :timestamp without time zone</text>
<text text-anchor="start" x="180.3431" y="-647.3" font-family="Times,serif" font-size="14.00" fill="#000000">updated_at :timestamp without time zone</text>
</g>
<!-- FridgeItem -->
<g id="node3" class="node">
<title>FridgeItem</title>
<path fill="none" stroke="#000000" d="M237.3431,-233.5C237.3431,-233.5 457.3431,-233.5 457.3431,-233.5 463.3431,-233.5 469.3431,-239.5 469.3431,-245.5 469.3431,-245.5 469.3431,-342.5 469.3431,-342.5 469.3431,-348.5 463.3431,-354.5 457.3431,-354.5 457.3431,-354.5 237.3431,-354.5 237.3431,-354.5 231.3431,-354.5 225.3431,-348.5 225.3431,-342.5 225.3431,-342.5 225.3431,-245.5 225.3431,-245.5 225.3431,-239.5 231.3431,-233.5 237.3431,-233.5"/>
<text text-anchor="middle" x="347.3431" y="-339.3" font-family="Times,serif" font-size="14.00" fill="#000000">FridgeItem</text>
<polyline fill="none" stroke="#000000" points="225.3431,-331.5 469.3431,-331.5 "/>
<text text-anchor="start" x="233.3431" y="-316.3" font-family="Times,serif" font-size="14.00" fill="#000000">id :bigint</text>
<text text-anchor="start" x="233.3431" y="-301.3" font-family="Times,serif" font-size="14.00" fill="#000000">user_id :bigint</text>
<text text-anchor="start" x="233.3431" y="-286.3" font-family="Times,serif" font-size="14.00" fill="#000000">ingredient_id :bigint</text>
<text text-anchor="start" x="233.3431" y="-271.3" font-family="Times,serif" font-size="14.00" fill="#000000">quantity :integer</text>
<text text-anchor="start" x="233.3431" y="-256.3" font-family="Times,serif" font-size="14.00" fill="#000000">created_at :timestamp without time zone</text>
<text text-anchor="start" x="233.3431" y="-241.3" font-family="Times,serif" font-size="14.00" fill="#000000">updated_at :timestamp without time zone</text>
</g>
<!-- GroceryItem -->
<g id="node4" class="node">
<title>GroceryItem</title>
<path fill="none" stroke="#000000" d="M499.3431,-226C499.3431,-226 719.3431,-226 719.3431,-226 725.3431,-226 731.3431,-232 731.3431,-238 731.3431,-238 731.3431,-350 731.3431,-350 731.3431,-356 725.3431,-362 719.3431,-362 719.3431,-362 499.3431,-362 499.3431,-362 493.3431,-362 487.3431,-356 487.3431,-350 487.3431,-350 487.3431,-238 487.3431,-238 487.3431,-232 493.3431,-226 499.3431,-226"/>
<text text-anchor="middle" x="609.3431" y="-346.8" font-family="Times,serif" font-size="14.00" fill="#000000">GroceryItem</text>
<polyline fill="none" stroke="#000000" points="487.3431,-339 731.3431,-339 "/>
<text text-anchor="start" x="495.3431" y="-323.8" font-family="Times,serif" font-size="14.00" fill="#000000">id :bigint</text>
<text text-anchor="start" x="495.3431" y="-308.8" font-family="Times,serif" font-size="14.00" fill="#000000">user_id :bigint</text>
<text text-anchor="start" x="495.3431" y="-293.8" font-family="Times,serif" font-size="14.00" fill="#000000">ingredient_id :bigint</text>
<text text-anchor="start" x="495.3431" y="-278.8" font-family="Times,serif" font-size="14.00" fill="#000000">quantity :integer</text>
<text text-anchor="start" x="495.3431" y="-263.8" font-family="Times,serif" font-size="14.00" fill="#000000">checked :boolean</text>
<text text-anchor="start" x="495.3431" y="-248.8" font-family="Times,serif" font-size="14.00" fill="#000000">created_at :timestamp without time zone</text>
<text text-anchor="start" x="495.3431" y="-233.8" font-family="Times,serif" font-size="14.00" fill="#000000">updated_at :timestamp without time zone</text>
</g>
<!-- Ingredient -->
<g id="node5" class="node">
<title>Ingredient</title>
<path fill="none" stroke="#000000" d="M446.3431,-639.5C446.3431,-639.5 666.3431,-639.5 666.3431,-639.5 672.3431,-639.5 678.3431,-645.5 678.3431,-651.5 678.3431,-651.5 678.3431,-733.5 678.3431,-733.5 678.3431,-739.5 672.3431,-745.5 666.3431,-745.5 666.3431,-745.5 446.3431,-745.5 446.3431,-745.5 440.3431,-745.5 434.3431,-739.5 434.3431,-733.5 434.3431,-733.5 434.3431,-651.5 434.3431,-651.5 434.3431,-645.5 440.3431,-639.5 446.3431,-639.5"/>
<text text-anchor="middle" x="556.3431" y="-730.3" font-family="Times,serif" font-size="14.00" fill="#000000">Ingredient</text>
<polyline fill="none" stroke="#000000" points="434.3431,-722.5 678.3431,-722.5 "/>
<text text-anchor="start" x="442.3431" y="-707.3" font-family="Times,serif" font-size="14.00" fill="#000000">id :bigint</text>
<text text-anchor="start" x="442.3431" y="-692.3" font-family="Times,serif" font-size="14.00" fill="#000000">name :character varying</text>
<text text-anchor="start" x="442.3431" y="-677.3" font-family="Times,serif" font-size="14.00" fill="#000000">unit_of_measure :character varying</text>
<text text-anchor="start" x="442.3431" y="-662.3" font-family="Times,serif" font-size="14.00" fill="#000000">created_at :timestamp without time zone</text>
<text text-anchor="start" x="442.3431" y="-647.3" font-family="Times,serif" font-size="14.00" fill="#000000">updated_at :timestamp without time zone</text>
</g>
<!-- Ingredient&#45;&gt;FridgeItem -->
<g id="edge1" class="edge">
<title>Ingredient&#45;&gt;FridgeItem</title>
<path fill="none" stroke="#d37071" d="M524.6499,-632.0706C486.8093,-559.9199 423.6497,-439.4936 383.8148,-363.5404"/>
<ellipse fill="none" stroke="#d37071" cx="526.5155" cy="-635.6276" rx="4" ry="4"/>
<polygon fill="#d37071" stroke="#d37071" points="383.7204,-363.3605 383.0609,-352.4144 381.3981,-358.9325 379.0758,-354.5045 379.0758,-354.5045 379.0758,-354.5045 381.3981,-358.9325 375.0906,-356.5946 383.7204,-363.3605 383.7204,-363.3605"/>
</g>
<!-- Ingredient&#45;&gt;GroceryItem -->
<g id="edge2" class="edge">
<title>Ingredient&#45;&gt;GroceryItem</title>
<path fill="none" stroke="#fe0f76" d="M558.1184,-631.0048C560.2871,-578.8455 565.0391,-502.172 575.3431,-436 578.5944,-415.1204 583.3334,-392.7822 588.2464,-372.1493"/>
<ellipse fill="none" stroke="#fe0f76" cx="557.952" cy="-635.1634" rx="4" ry="4"/>
<polygon fill="#fe0f76" stroke="#fe0f76" points="588.3093,-371.8895 595.0397,-363.2319 589.4879,-367.0303 590.6664,-362.1712 590.6664,-362.1712 590.6664,-362.1712 589.4879,-367.0303 586.2932,-361.1105 588.3093,-371.8895 588.3093,-371.8895"/>
</g>
<!-- RecipeItem -->
<g id="node7" class="node">
<title>RecipeItem</title>
<path fill="none" stroke="#000000" d="M246.3431,-15.5C246.3431,-15.5 466.3431,-15.5 466.3431,-15.5 472.3431,-15.5 478.3431,-21.5 478.3431,-27.5 478.3431,-27.5 478.3431,-124.5 478.3431,-124.5 478.3431,-130.5 472.3431,-136.5 466.3431,-136.5 466.3431,-136.5 246.3431,-136.5 246.3431,-136.5 240.3431,-136.5 234.3431,-130.5 234.3431,-124.5 234.3431,-124.5 234.3431,-27.5 234.3431,-27.5 234.3431,-21.5 240.3431,-15.5 246.3431,-15.5"/>
<text text-anchor="middle" x="356.3431" y="-121.3" font-family="Times,serif" font-size="14.00" fill="#000000">RecipeItem</text>
<polyline fill="none" stroke="#000000" points="234.3431,-113.5 478.3431,-113.5 "/>
<text text-anchor="start" x="242.3431" y="-98.3" font-family="Times,serif" font-size="14.00" fill="#000000">id :bigint</text>
<text text-anchor="start" x="242.3431" y="-83.3" font-family="Times,serif" font-size="14.00" fill="#000000">recipe_id :bigint</text>
<text text-anchor="start" x="242.3431" y="-68.3" font-family="Times,serif" font-size="14.00" fill="#000000">ingredient_id :bigint</text>
<text text-anchor="start" x="242.3431" y="-53.3" font-family="Times,serif" font-size="14.00" fill="#000000">quantity :integer</text>
<text text-anchor="start" x="242.3431" y="-38.3" font-family="Times,serif" font-size="14.00" fill="#000000">created_at :timestamp without time zone</text>
<text text-anchor="start" x="242.3431" y="-23.3" font-family="Times,serif" font-size="14.00" fill="#000000">updated_at :timestamp without time zone</text>
</g>
<!-- Ingredient&#45;&gt;RecipeItem -->
<g id="edge3" class="edge">
<title>Ingredient&#45;&gt;RecipeItem</title>
<path fill="none" stroke="#8dec6e" d="M446.4989,-635.0462C364.8869,-585.314 260.3871,-504.8815 216.3431,-400 179.8617,-313.1269 175.5271,-272.9228 216.3431,-188 224.25,-171.5488 235.8804,-156.7577 249.1136,-143.7293"/>
<ellipse fill="none" stroke="#8dec6e" cx="450.3985" cy="-637.3987" rx="4" ry="4"/>
<polygon fill="#8dec6e" stroke="#8dec6e" points="249.3319,-143.524 259.6996,-139.9515 252.9743,-140.0987 256.6168,-136.6733 256.6168,-136.6733 256.6168,-136.6733 252.9743,-140.0987 253.534,-133.3951 249.3319,-143.524 249.3319,-143.524"/>
</g>
<!-- User -->
<g id="node10" class="node">
<title>User</title>
<path fill="none" stroke="#000000" d="M596.8431,-436.5C596.8431,-436.5 885.8431,-436.5 885.8431,-436.5 891.8431,-436.5 897.8431,-442.5 897.8431,-448.5 897.8431,-448.5 897.8431,-590.5 897.8431,-590.5 897.8431,-596.5 891.8431,-602.5 885.8431,-602.5 885.8431,-602.5 596.8431,-602.5 596.8431,-602.5 590.8431,-602.5 584.8431,-596.5 584.8431,-590.5 584.8431,-590.5 584.8431,-448.5 584.8431,-448.5 584.8431,-442.5 590.8431,-436.5 596.8431,-436.5"/>
<text text-anchor="middle" x="741.3431" y="-587.3" font-family="Times,serif" font-size="14.00" fill="#000000">User</text>
<polyline fill="none" stroke="#000000" points="584.8431,-579.5 897.8431,-579.5 "/>
<text text-anchor="start" x="592.8431" y="-564.3" font-family="Times,serif" font-size="14.00" fill="#000000">id :bigint</text>
<text text-anchor="start" x="592.8431" y="-549.3" font-family="Times,serif" font-size="14.00" fill="#000000">email :character varying</text>
<text text-anchor="start" x="592.8431" y="-534.3" font-family="Times,serif" font-size="14.00" fill="#000000">encrypted_password :character varying</text>
<text text-anchor="start" x="592.8431" y="-519.3" font-family="Times,serif" font-size="14.00" fill="#000000">reset_password_token :character varying</text>
<text text-anchor="start" x="592.8431" y="-504.3" font-family="Times,serif" font-size="14.00" fill="#000000">reset_password_sent_at :timestamp without time zone</text>
<text text-anchor="start" x="592.8431" y="-489.3" font-family="Times,serif" font-size="14.00" fill="#000000">remember_created_at :timestamp without time zone</text>
<text text-anchor="start" x="592.8431" y="-474.3" font-family="Times,serif" font-size="14.00" fill="#000000">created_at :timestamp without time zone</text>
<text text-anchor="start" x="592.8431" y="-459.3" font-family="Times,serif" font-size="14.00" fill="#000000">updated_at :timestamp without time zone</text>
<text text-anchor="start" x="592.8431" y="-444.3" font-family="Times,serif" font-size="14.00" fill="#000000">avatar :character varying</text>
</g>
<!-- Ingredient&#45;&gt;User -->
<g id="edge4" class="edge">
<title>Ingredient&#45;&gt;User</title>
<path fill="none" stroke="#4a78b7" d="M620.496,-632.5084C628.3707,-625.1445 636.5489,-617.4968 644.77,-609.8089"/>
<polygon fill="#4a78b7" stroke="#4a78b7" points="620.4105,-632.5884 610.0329,-636.1318 616.7585,-636.0035 613.1065,-639.4186 613.1065,-639.4186 613.1065,-639.4186 616.7585,-636.0035 616.1801,-642.7054 620.4105,-632.5884 620.4105,-632.5884"/>
<polygon fill="#4a78b7" stroke="#4a78b7" points="645.0206,-609.5746 655.3982,-606.0312 648.6726,-606.1595 652.3246,-602.7444 652.3246,-602.7444 652.3246,-602.7444 648.6726,-606.1595 649.251,-599.4576 645.0206,-609.5746 645.0206,-609.5746"/>
</g>
<!-- Recipe -->
<g id="node6" class="node">
<title>Recipe</title>
<path fill="none" stroke="#000000" d="M799.3431,-188.5C799.3431,-188.5 1019.3431,-188.5 1019.3431,-188.5 1025.3431,-188.5 1031.3431,-194.5 1031.3431,-200.5 1031.3431,-200.5 1031.3431,-387.5 1031.3431,-387.5 1031.3431,-393.5 1025.3431,-399.5 1019.3431,-399.5 1019.3431,-399.5 799.3431,-399.5 799.3431,-399.5 793.3431,-399.5 787.3431,-393.5 787.3431,-387.5 787.3431,-387.5 787.3431,-200.5 787.3431,-200.5 787.3431,-194.5 793.3431,-188.5 799.3431,-188.5"/>
<text text-anchor="middle" x="909.3431" y="-384.3" font-family="Times,serif" font-size="14.00" fill="#000000">Recipe</text>
<polyline fill="none" stroke="#000000" points="787.3431,-376.5 1031.3431,-376.5 "/>
<text text-anchor="start" x="795.3431" y="-361.3" font-family="Times,serif" font-size="14.00" fill="#000000">id :bigint</text>
<text text-anchor="start" x="795.3431" y="-346.3" font-family="Times,serif" font-size="14.00" fill="#000000">user_id :bigint</text>
<text text-anchor="start" x="795.3431" y="-331.3" font-family="Times,serif" font-size="14.00" fill="#000000">name :character varying</text>
<text text-anchor="start" x="795.3431" y="-316.3" font-family="Times,serif" font-size="14.00" fill="#000000">prep_time :integer</text>
<text text-anchor="start" x="795.3431" y="-301.3" font-family="Times,serif" font-size="14.00" fill="#000000">cook_time :integer</text>
<text text-anchor="start" x="795.3431" y="-286.3" font-family="Times,serif" font-size="14.00" fill="#000000">servings :integer</text>
<text text-anchor="start" x="795.3431" y="-271.3" font-family="Times,serif" font-size="14.00" fill="#000000">steps :character varying</text>
<text text-anchor="start" x="795.3431" y="-256.3" font-family="Times,serif" font-size="14.00" fill="#000000">rating :integer</text>
<text text-anchor="start" x="795.3431" y="-241.3" font-family="Times,serif" font-size="14.00" fill="#000000">photo :character varying</text>
<text text-anchor="start" x="795.3431" y="-226.3" font-family="Times,serif" font-size="14.00" fill="#000000">created_at :timestamp without time zone</text>
<text text-anchor="start" x="795.3431" y="-211.3" font-family="Times,serif" font-size="14.00" fill="#000000">updated_at :timestamp without time zone</text>
<text text-anchor="start" x="795.3431" y="-196.3" font-family="Times,serif" font-size="14.00" fill="#000000">difficulty :character varying</text>
</g>
<!-- Recipe&#45;&gt;Ingredient -->
<g id="edge6" class="edge">
<title>Recipe&#45;&gt;Ingredient</title>
<path fill="none" stroke="#cbf876" d="M940.3727,-409.8497C950.1365,-473.205 949.2278,-549.4537 907.3431,-603 880.015,-637.9369 776.2288,-661.5464 688.5436,-675.7041"/>
<polygon fill="#cbf876" stroke="#cbf876" points="940.3424,-409.665 943.159,-399.067 939.5305,-404.7314 938.7187,-399.7977 938.7187,-399.7977 938.7187,-399.7977 939.5305,-404.7314 934.2784,-400.5284 940.3424,-409.665 940.3424,-409.665"/>
<polygon fill="#cbf876" stroke="#cbf876" points="688.3592,-675.7332 677.778,-672.8544 683.4209,-676.5161 678.4825,-677.2989 678.4825,-677.2989 678.4825,-677.2989 683.4209,-676.5161 679.1871,-681.7434 688.3592,-675.7332 688.3592,-675.7332"/>
</g>
<!-- Recipe&#45;&gt;RecipeItem -->
<g id="edge5" class="edge">
<title>Recipe&#45;&gt;RecipeItem</title>
<path fill="none" stroke="#16f15d" d="M779.6958,-207.7714C766.6574,-200.5999 753.406,-193.8648 740.3431,-188 695.0648,-167.6715 580.6299,-135.1261 488.3842,-110.3446"/>
<ellipse fill="none" stroke="#16f15d" cx="783.4215" cy="-209.8492" rx="4" ry="4"/>
<polygon fill="#16f15d" stroke="#16f15d" points="488.3373,-110.3321 479.8428,-103.397 483.5077,-109.0378 478.678,-107.7436 478.678,-107.7436 478.678,-107.7436 483.5077,-109.0378 477.5132,-112.0903 488.3373,-110.3321 488.3373,-110.3321"/>
</g>
<!-- Review -->
<g id="node8" class="node">
<title>Review</title>
<path fill="none" stroke="#000000" d="M1061.3431,-.5C1061.3431,-.5 1281.3431,-.5 1281.3431,-.5 1287.3431,-.5 1293.3431,-6.5 1293.3431,-12.5 1293.3431,-12.5 1293.3431,-139.5 1293.3431,-139.5 1293.3431,-145.5 1287.3431,-151.5 1281.3431,-151.5 1281.3431,-151.5 1061.3431,-151.5 1061.3431,-151.5 1055.3431,-151.5 1049.3431,-145.5 1049.3431,-139.5 1049.3431,-139.5 1049.3431,-12.5 1049.3431,-12.5 1049.3431,-6.5 1055.3431,-.5 1061.3431,-.5"/>
<text text-anchor="middle" x="1171.3431" y="-136.3" font-family="Times,serif" font-size="14.00" fill="#000000">Review</text>
<polyline fill="none" stroke="#000000" points="1049.3431,-128.5 1293.3431,-128.5 "/>
<text text-anchor="start" x="1057.3431" y="-113.3" font-family="Times,serif" font-size="14.00" fill="#000000">id :bigint</text>
<text text-anchor="start" x="1057.3431" y="-98.3" font-family="Times,serif" font-size="14.00" fill="#000000">content :text</text>
<text text-anchor="start" x="1057.3431" y="-83.3" font-family="Times,serif" font-size="14.00" fill="#000000">rating :integer</text>
<text text-anchor="start" x="1057.3431" y="-68.3" font-family="Times,serif" font-size="14.00" fill="#000000">date :date</text>
<text text-anchor="start" x="1057.3431" y="-53.3" font-family="Times,serif" font-size="14.00" fill="#000000">user_id :bigint</text>
<text text-anchor="start" x="1057.3431" y="-38.3" font-family="Times,serif" font-size="14.00" fill="#000000">recipe_id :bigint</text>
<text text-anchor="start" x="1057.3431" y="-23.3" font-family="Times,serif" font-size="14.00" fill="#000000">created_at :timestamp without time zone</text>
<text text-anchor="start" x="1057.3431" y="-8.3" font-family="Times,serif" font-size="14.00" fill="#000000">updated_at :timestamp without time zone</text>
</g>
<!-- Recipe&#45;&gt;Review -->
<g id="edge7" class="edge">
<title>Recipe&#45;&gt;Review</title>
<path fill="none" stroke="#b78651" d="M1037.682,-187.2142C1049.3692,-177.4897 1061.0847,-167.7417 1072.4562,-158.28"/>
<ellipse fill="none" stroke="#b78651" cx="1034.5967" cy="-189.7813" rx="4" ry="4"/>
<polygon fill="#b78651" stroke="#b78651" points="1072.5821,-158.1752 1083.1474,-155.2383 1076.4256,-154.9772 1080.2692,-151.7791 1080.2692,-151.7791 1080.2692,-151.7791 1076.4256,-154.9772 1077.3909,-148.3199 1072.5821,-158.1752 1072.5821,-158.1752"/>
</g>
<!-- Step -->
<g id="node9" class="node">
<title>Step</title>
<path fill="none" stroke="#000000" d="M799.3431,-15.5C799.3431,-15.5 1019.3431,-15.5 1019.3431,-15.5 1025.3431,-15.5 1031.3431,-21.5 1031.3431,-27.5 1031.3431,-27.5 1031.3431,-124.5 1031.3431,-124.5 1031.3431,-130.5 1025.3431,-136.5 1019.3431,-136.5 1019.3431,-136.5 799.3431,-136.5 799.3431,-136.5 793.3431,-136.5 787.3431,-130.5 787.3431,-124.5 787.3431,-124.5 787.3431,-27.5 787.3431,-27.5 787.3431,-21.5 793.3431,-15.5 799.3431,-15.5"/>
<text text-anchor="middle" x="909.3431" y="-121.3" font-family="Times,serif" font-size="14.00" fill="#000000">Step</text>
<polyline fill="none" stroke="#000000" points="787.3431,-113.5 1031.3431,-113.5 "/>
<text text-anchor="start" x="795.3431" y="-98.3" font-family="Times,serif" font-size="14.00" fill="#000000">id :bigint</text>
<text text-anchor="start" x="795.3431" y="-83.3" font-family="Times,serif" font-size="14.00" fill="#000000">content :text</text>
<text text-anchor="start" x="795.3431" y="-68.3" font-family="Times,serif" font-size="14.00" fill="#000000">order :integer</text>
<text text-anchor="start" x="795.3431" y="-53.3" font-family="Times,serif" font-size="14.00" fill="#000000">recipe_id :bigint</text>
<text text-anchor="start" x="795.3431" y="-38.3" font-family="Times,serif" font-size="14.00" fill="#000000">created_at :timestamp without time zone</text>
<text text-anchor="start" x="795.3431" y="-23.3" font-family="Times,serif" font-size="14.00" fill="#000000">updated_at :timestamp without time zone</text>
</g>
<!-- Recipe&#45;&gt;Step -->
<g id="edge8" class="edge">
<title>Recipe&#45;&gt;Step</title>
<path fill="none" stroke="#8ebb65" d="M909.3431,-179.9031C909.3431,-168.6034 909.3431,-157.3768 909.3431,-146.7107"/>
<ellipse fill="none" stroke="#8ebb65" cx="909.3432" cy="-184.193" rx="4" ry="4"/>
<polygon fill="#8ebb65" stroke="#8ebb65" points="909.3432,-146.672 913.8431,-136.6719 909.3432,-141.672 909.3431,-136.672 909.3431,-136.672 909.3431,-136.672 909.3432,-141.672 904.8431,-136.672 909.3432,-146.672 909.3432,-146.672"/>
</g>
<!-- Recipe&#45;&gt;User -->
<g id="edge10" class="edge">
<title>Recipe&#45;&gt;User</title>
<path fill="none" stroke="#4e2a20" d="M831.243,-407.8907C826.1374,-414.7388 821.0027,-421.5813 815.9144,-428.3172"/>
<polygon fill="#4e2a20" stroke="#4e2a20" points="831.2513,-407.8795 840.8296,-402.5404 834.235,-403.8673 837.2187,-399.8551 837.2187,-399.8551 837.2187,-399.8551 834.235,-403.8673 833.6077,-397.1698 831.2513,-407.8795 831.2513,-407.8795"/>
<polygon fill="#4e2a20" stroke="#4e2a20" points="815.7595,-428.5216 806.1342,-433.7756 812.7403,-432.5072 809.7212,-436.4928 809.7212,-436.4928 809.7212,-436.4928 812.7403,-432.5072 813.3082,-439.2101 815.7595,-428.5216 815.7595,-428.5216"/>
</g>
<!-- WishlistItem -->
<g id="node11" class="node">
<title>WishlistItem</title>
<ellipse fill="none" stroke="#000000" cx="712.3431" cy="-76" rx="57.3905" ry="18"/>
<text text-anchor="middle" x="712.3431" y="-72.3" font-family="Times,serif" font-size="14.00" fill="#000000">WishlistItem</text>
</g>
<!-- Recipe&#45;&gt;WishlistItem -->
<g id="edge9" class="edge">
<title>Recipe&#45;&gt;WishlistItem</title>
<path fill="none" stroke="#bcb012" d="M805.8426,-182.4402C796.5044,-172.1846 787.2257,-161.9234 778.3431,-152 763.3954,-135.3007 746.86,-116.259 734.0794,-101.4131"/>
<ellipse fill="none" stroke="#bcb012" cx="808.6501" cy="-185.5194" rx="4" ry="4"/>
<polygon fill="#bcb012" stroke="#bcb012" points="733.9163,-101.2233 730.8124,-90.7058 730.6578,-97.4309 727.3992,-93.6385 727.3992,-93.6385 727.3992,-93.6385 730.6578,-97.4309 723.9861,-96.5712 733.9163,-101.2233 733.9163,-101.2233"/>
</g>
<!-- User&#45;&gt;FridgeItem -->
<g id="edge13" class="edge">
<title>User&#45;&gt;FridgeItem</title>
<path fill="none" stroke="#6e5162" d="M577.0557,-452.6389C543.5763,-436.8736 509.184,-419.053 478.3431,-400 459.7811,-388.5327 440.9164,-374.7507 423.5007,-360.9759"/>
<ellipse fill="none" stroke="#6e5162" cx="581.0104" cy="-454.4868" rx="4" ry="4"/>
<polygon fill="#6e5162" stroke="#6e5162" points="423.4133,-360.906 418.4197,-351.143 419.5102,-357.7809 415.6072,-354.6558 415.6072,-354.6558 415.6072,-354.6558 419.5102,-357.7809 412.7946,-358.1686 423.4133,-360.906 423.4133,-360.906"/>
</g>
<!-- User&#45;&gt;GroceryItem -->
<g id="edge12" class="edge">
<title>User&#45;&gt;GroceryItem</title>
<path fill="none" stroke="#404a2a" d="M688.6933,-429.5565C677.326,-410.1374 665.4073,-389.7764 654.3634,-370.9096"/>
<ellipse fill="none" stroke="#404a2a" cx="690.7328" cy="-433.0407" rx="4" ry="4"/>
<polygon fill="#404a2a" stroke="#404a2a" points="654.2396,-370.698 653.0713,-359.7945 651.7136,-366.3829 649.1877,-362.0678 649.1877,-362.0678 649.1877,-362.0678 651.7136,-366.3829 645.3042,-364.3412 654.2396,-370.698 654.2396,-370.698"/>
</g>
<!-- User&#45;&gt;Recipe -->
<g id="edge11" class="edge">
<title>User&#45;&gt;Recipe</title>
<path fill="none" stroke="#c5ced9" d="M801.3871,-430.0188C806.728,-422.7397 812.2088,-415.3253 817.7335,-407.9043"/>
<ellipse fill="none" stroke="#c5ced9" cx="799.0105" cy="-433.2652" rx="4" ry="4"/>
<polygon fill="#c5ced9" stroke="#c5ced9" points="817.7597,-407.8691 827.3474,-402.5467 820.7504,-403.8621 823.7411,-399.8551 823.7411,-399.8551 823.7411,-399.8551 820.7504,-403.8621 820.1348,-397.1635 817.7597,-407.8691 817.7597,-407.8691"/>
</g>
<!-- User&#45;&gt;Review -->
<g id="edge15" class="edge">
<title>User&#45;&gt;Review</title>
<path fill="none" stroke="#695d9b" d="M905.7966,-480.4886C953.9507,-462.5036 1003.4986,-436.6972 1040.3431,-400 1105.4194,-335.184 1139.3395,-233.7304 1156.1952,-161.633"/>
<ellipse fill="none" stroke="#695d9b" cx="901.8392" cy="-481.9351" rx="4" ry="4"/>
<polygon fill="#695d9b" stroke="#695d9b" points="1156.2452,-161.4127 1162.8499,-152.6589 1157.3535,-156.5371 1158.4619,-151.6614 1158.4619,-151.6614 1158.4619,-151.6614 1157.3535,-156.5371 1154.0738,-150.664 1156.2452,-161.4127 1156.2452,-161.4127"/>
</g>
<!-- User&#45;&gt;WishlistItem -->
<g id="edge14" class="edge">
<title>User&#45;&gt;WishlistItem</title>
<path fill="none" stroke="#e136a9" d="M746.9667,-428.3702C749.6585,-361.564 750.4151,-268.8102 740.3431,-188 736.7052,-158.8114 728.0363,-126.281 721.3003,-103.8329"/>
<ellipse fill="none" stroke="#e136a9" cx="746.7976" cy="-432.3897" rx="4" ry="4"/>
<polygon fill="#e136a9" stroke="#e136a9" points="721.2099,-103.5385 722.5746,-92.6579 719.7415,-98.759 718.2731,-93.9795 718.2731,-93.9795 718.2731,-93.9795 719.7415,-98.759 713.9715,-95.3011 721.2099,-103.5385 721.2099,-103.5385"/>
</g>
</g>
</svg>
