<?xml version="1.0" encoding="UTF-8" standalone="no"?>
<!DOCTYPE svg PUBLIC "-//W3C//DTD SVG 1.1//EN"
 "http://www.w3.org/Graphics/SVG/1.1/DTD/svg11.dtd">
<!-- Generated by graphviz version 2.40.1 (20161225.0304)
 -->
<!-- Title: controllers_diagram Pages: 1 -->
<svg width="510pt" height="132pt"
 viewBox="0.00 0.00 509.50 132.00" xmlns="http://www.w3.org/2000/svg" xmlns:xlink="http://www.w3.org/1999/xlink">
<g id="graph0" class="graph" transform="scale(1 1) rotate(0) translate(4 128)">
<title>controllers_diagram</title>
<polygon fill="transparent" stroke="transparent" points="-4,4 -4,-128 505.5,-128 505.5,4 -4,4"/>
<!-- ApplicationController -->
<g id="node1" class="node">
<title>ApplicationController</title>
<path fill="none" stroke="#000000" d="M12,-15C12,-15 124,-15 124,-15 130,-15 136,-21 136,-27 136,-27 136,-97 136,-97 136,-103 130,-109 124,-109 124,-109 12,-109 12,-109 6,-109 0,-103 0,-97 0,-97 0,-27 0,-27 0,-21 6,-15 12,-15"/>
<text text-anchor="middle" x="68" y="-93.8" font-family="Times,serif" font-size="14.00" fill="#000000">ApplicationController</text>
<polyline fill="none" stroke="#000000" points="0,-86 136,-86 "/>
<polyline fill="none" stroke="#000000" points="0,-62 136,-62 "/>
<polyline fill="none" stroke="#000000" points="0,-38 136,-38 "/>
<text text-anchor="start" x="8" y="-22.8" font-family="Times,serif" font-size="14.00" fill="#000000">_layout</text>
</g>
<!-- MapsController -->
<g id="node2" class="node">
<title>MapsController</title>
<path fill="none" stroke="#000000" d="M166.5,-15.5C166.5,-15.5 245.5,-15.5 245.5,-15.5 251.5,-15.5 257.5,-21.5 257.5,-27.5 257.5,-27.5 257.5,-96.5 257.5,-96.5 257.5,-102.5 251.5,-108.5 245.5,-108.5 245.5,-108.5 166.5,-108.5 166.5,-108.5 160.5,-108.5 154.5,-102.5 154.5,-96.5 154.5,-96.5 154.5,-27.5 154.5,-27.5 154.5,-21.5 160.5,-15.5 166.5,-15.5"/>
<text text-anchor="middle" x="206" y="-93.3" font-family="Times,serif" font-size="14.00" fill="#000000">MapsController</text>
<polyline fill="none" stroke="#000000" points="154.5,-85.5 257.5,-85.5 "/>
<text text-anchor="start" x="162.5" y="-70.3" font-family="Times,serif" font-size="14.00" fill="#000000">index</text>
<polyline fill="none" stroke="#000000" points="154.5,-62.5 257.5,-62.5 "/>
<polyline fill="none" stroke="#000000" points="154.5,-38.5 257.5,-38.5 "/>
<text text-anchor="start" x="162.5" y="-23.3" font-family="Times,serif" font-size="14.00" fill="#000000">_layout</text>
</g>
<!-- PagesController -->
<g id="node3" class="node">
<title>PagesController</title>
<path fill="none" stroke="#000000" d="M288,-15.5C288,-15.5 368,-15.5 368,-15.5 374,-15.5 380,-21.5 380,-27.5 380,-27.5 380,-96.5 380,-96.5 380,-102.5 374,-108.5 368,-108.5 368,-108.5 288,-108.5 288,-108.5 282,-108.5 276,-102.5 276,-96.5 276,-96.5 276,-27.5 276,-27.5 276,-21.5 282,-15.5 288,-15.5"/>
<text text-anchor="middle" x="328" y="-93.3" font-family="Times,serif" font-size="14.00" fill="#000000">PagesController</text>
<polyline fill="none" stroke="#000000" points="276,-85.5 380,-85.5 "/>
<text text-anchor="start" x="284" y="-70.3" font-family="Times,serif" font-size="14.00" fill="#000000">index</text>
<polyline fill="none" stroke="#000000" points="276,-62.5 380,-62.5 "/>
<polyline fill="none" stroke="#000000" points="276,-38.5 380,-38.5 "/>
<text text-anchor="start" x="284" y="-23.3" font-family="Times,serif" font-size="14.00" fill="#000000">_layout</text>
</g>
<!-- UsersController -->
<g id="node4" class="node">
<title>UsersController</title>
<path fill="none" stroke="#000000" d="M410.5,-.5C410.5,-.5 489.5,-.5 489.5,-.5 495.5,-.5 501.5,-6.5 501.5,-12.5 501.5,-12.5 501.5,-111.5 501.5,-111.5 501.5,-117.5 495.5,-123.5 489.5,-123.5 489.5,-123.5 410.5,-123.5 410.5,-123.5 404.5,-123.5 398.5,-117.5 398.5,-111.5 398.5,-111.5 398.5,-12.5 398.5,-12.5 398.5,-6.5 404.5,-.5 410.5,-.5"/>
<text text-anchor="middle" x="450" y="-108.3" font-family="Times,serif" font-size="14.00" fill="#000000">UsersController</text>
<polyline fill="none" stroke="#000000" points="398.5,-100.5 501.5,-100.5 "/>
<text text-anchor="start" x="406.5" y="-85.3" font-family="Times,serif" font-size="14.00" fill="#000000">index</text>
<text text-anchor="start" x="406.5" y="-70.3" font-family="Times,serif" font-size="14.00" fill="#000000">new</text>
<text text-anchor="start" x="406.5" y="-55.3" font-family="Times,serif" font-size="14.00" fill="#000000">show</text>
<polyline fill="none" stroke="#000000" points="398.5,-47.5 501.5,-47.5 "/>
<polyline fill="none" stroke="#000000" points="398.5,-23.5 501.5,-23.5 "/>
<text text-anchor="start" x="406.5" y="-8.3" font-family="Times,serif" font-size="14.00" fill="#000000">_layout</text>
</g>
</g>
</svg>
