<?xml version="1.0" encoding="UTF-8" standalone="no"?>
<!DOCTYPE svg PUBLIC "-//W3C//DTD SVG 1.1//EN"
 "http://www.w3.org/Graphics/SVG/1.1/DTD/svg11.dtd">
<!-- Generated by graphviz version 2.40.1 (20161225.0304)
 -->
<!-- Title: controllers_diagram Pages: 1 -->
<svg width="540pt" height="132pt"
 viewBox="0.00 0.00 540.00 132.00" xmlns="http://www.w3.org/2000/svg" xmlns:xlink="http://www.w3.org/1999/xlink">
<g id="graph0" class="graph" transform="scale(1 1) rotate(0) translate(4 128)">
<title>controllers_diagram</title>
<polygon fill="transparent" stroke="transparent" points="-4,4 -4,-128 536,-128 536,4 -4,4"/>
<!-- ApplicationController -->
<g id="node1" class="node">
<title>ApplicationController</title>
<path fill="none" stroke="#000000" d="M12,-15C12,-15 124,-15 124,-15 130,-15 136,-21 136,-27 136,-27 136,-97 136,-97 136,-103 130,-109 124,-109 124,-109 12,-109 12,-109 6,-109 0,-103 0,-97 0,-97 0,-27 0,-27 0,-21 6,-15 12,-15"/>
<text text-anchor="middle" x="68" y="-93.8" font-family="Times,serif" font-size="14.00" fill="#000000">ApplicationController</text>
<polyline fill="none" stroke="#000000" points="0,-86 136,-86 "/>
<polyline fill="none" stroke="#000000" points="0,-62 136,-62 "/>
<polyline fill="none" stroke="#000000" points="0,-38 136,-38 "/>
<text text-anchor="start" x="8" y="-22.8" font-family="Times,serif" font-size="14.00" fill="#000000">_layout</text>
</g>
<!-- FavoritesController -->
<g id="node2" class="node">
<title>FavoritesController</title>
<path fill="none" stroke="#000000" d="M166,-15C166,-15 264,-15 264,-15 270,-15 276,-21 276,-27 276,-27 276,-97 276,-97 276,-103 270,-109 264,-109 264,-109 166,-109 166,-109 160,-109 154,-103 154,-97 154,-97 154,-27 154,-27 154,-21 160,-15 166,-15"/>
<text text-anchor="middle" x="215" y="-93.8" font-family="Times,serif" font-size="14.00" fill="#000000">FavoritesController</text>
<polyline fill="none" stroke="#000000" points="154,-86 276,-86 "/>
<polyline fill="none" stroke="#000000" points="154,-62 276,-62 "/>
<polyline fill="none" stroke="#000000" points="154,-38 276,-38 "/>
<text text-anchor="start" x="162" y="-22.8" font-family="Times,serif" font-size="14.00" fill="#000000">_layout</text>
</g>
<!-- PagesController -->
<g id="node3" class="node">
<title>PagesController</title>
<path fill="none" stroke="#000000" d="M306,-8C306,-8 386,-8 386,-8 392,-8 398,-14 398,-20 398,-20 398,-104 398,-104 398,-110 392,-116 386,-116 386,-116 306,-116 306,-116 300,-116 294,-110 294,-104 294,-104 294,-20 294,-20 294,-14 300,-8 306,-8"/>
<text text-anchor="middle" x="346" y="-100.8" font-family="Times,serif" font-size="14.00" fill="#000000">PagesController</text>
<polyline fill="none" stroke="#000000" points="294,-93 398,-93 "/>
<text text-anchor="start" x="302" y="-77.8" font-family="Times,serif" font-size="14.00" fill="#000000">home</text>
<text text-anchor="start" x="302" y="-62.8" font-family="Times,serif" font-size="14.00" fill="#000000">profile</text>
<polyline fill="none" stroke="#000000" points="294,-55 398,-55 "/>
<polyline fill="none" stroke="#000000" points="294,-31 398,-31 "/>
<text text-anchor="start" x="302" y="-15.8" font-family="Times,serif" font-size="14.00" fill="#000000">_layout</text>
</g>
<!-- ProjectsController -->
<g id="node4" class="node">
<title>ProjectsController</title>
<path fill="none" stroke="#000000" d="M428,-.5C428,-.5 520,-.5 520,-.5 526,-.5 532,-6.5 532,-12.5 532,-12.5 532,-111.5 532,-111.5 532,-117.5 526,-123.5 520,-123.5 520,-123.5 428,-123.5 428,-123.5 422,-123.5 416,-117.5 416,-111.5 416,-111.5 416,-12.5 416,-12.5 416,-6.5 422,-.5 428,-.5"/>
<text text-anchor="middle" x="474" y="-108.3" font-family="Times,serif" font-size="14.00" fill="#000000">ProjectsController</text>
<polyline fill="none" stroke="#000000" points="416,-100.5 532,-100.5 "/>
<text text-anchor="start" x="424" y="-85.3" font-family="Times,serif" font-size="14.00" fill="#000000">index</text>
<text text-anchor="start" x="424" y="-70.3" font-family="Times,serif" font-size="14.00" fill="#000000">new</text>
<text text-anchor="start" x="424" y="-55.3" font-family="Times,serif" font-size="14.00" fill="#000000">show</text>
<polyline fill="none" stroke="#000000" points="416,-47.5 532,-47.5 "/>
<polyline fill="none" stroke="#000000" points="416,-23.5 532,-23.5 "/>
<text text-anchor="start" x="424" y="-8.3" font-family="Times,serif" font-size="14.00" fill="#000000">_layout</text>
</g>
</g>
</svg>
