<?xml version="1.0" encoding="UTF-8" standalone="no"?>
<!DOCTYPE svg PUBLIC "-//W3C//DTD SVG 1.1//EN"
 "http://www.w3.org/Graphics/SVG/1.1/DTD/svg11.dtd">
<!-- Generated by graphviz version 2.40.1 (20161225.0304)
 -->
<!-- Title: models_diagram Pages: 1 -->
<svg width="1569pt" height="731pt"
 viewBox="0.00 0.00 1569.00 731.00" xmlns="http://www.w3.org/2000/svg" xmlns:xlink="http://www.w3.org/1999/xlink">
<g id="graph0" class="graph" transform="scale(1 1) rotate(0) translate(4 727)">
<title>models_diagram</title>
<polygon fill="transparent" stroke="transparent" points="-4,4 -4,-727 1565,-727 1565,4 -4,4"/>
<!-- ApplicationRecord -->
<g id="node1" class="node">
<title>ApplicationRecord</title>
<ellipse fill="none" stroke="#000000" cx="366" cy="-594.5" rx="77.1866" ry="18"/>
<text text-anchor="middle" x="366" y="-590.8" font-family="Times,serif" font-size="14.00" fill="#000000">ApplicationRecord</text>
</g>
<!-- City -->
<g id="node2" class="node">
<title>City</title>
<path fill="none" stroke="#000000" d="M274,-23C274,-23 494,-23 494,-23 500,-23 506,-29 506,-35 506,-35 506,-117 506,-117 506,-123 500,-129 494,-129 494,-129 274,-129 274,-129 268,-129 262,-123 262,-117 262,-117 262,-35 262,-35 262,-29 268,-23 274,-23"/>
<text text-anchor="middle" x="384" y="-113.8" font-family="Times,serif" font-size="14.00" fill="#000000">City</text>
<polyline fill="none" stroke="#000000" points="262,-106 506,-106 "/>
<text text-anchor="start" x="270" y="-90.8" font-family="Times,serif" font-size="14.00" fill="#000000">id :bigint</text>
<text text-anchor="start" x="270" y="-75.8" font-family="Times,serif" font-size="14.00" fill="#000000">name :character varying</text>
<text text-anchor="start" x="270" y="-60.8" font-family="Times,serif" font-size="14.00" fill="#000000">state_province_id :bigint</text>
<text text-anchor="start" x="270" y="-45.8" font-family="Times,serif" font-size="14.00" fill="#000000">created_at :timestamp without time zone</text>
<text text-anchor="start" x="270" y="-30.8" font-family="Times,serif" font-size="14.00" fill="#000000">updated_at :timestamp without time zone</text>
</g>
<!-- FavouriteRoute -->
<g id="node3" class="node">
<title>FavouriteRoute</title>
<path fill="none" stroke="#000000" d="M805,-541.5C805,-541.5 1025,-541.5 1025,-541.5 1031,-541.5 1037,-547.5 1037,-553.5 1037,-553.5 1037,-635.5 1037,-635.5 1037,-641.5 1031,-647.5 1025,-647.5 1025,-647.5 805,-647.5 805,-647.5 799,-647.5 793,-641.5 793,-635.5 793,-635.5 793,-553.5 793,-553.5 793,-547.5 799,-541.5 805,-541.5"/>
<text text-anchor="middle" x="915" y="-632.3" font-family="Times,serif" font-size="14.00" fill="#000000">FavouriteRoute</text>
<polyline fill="none" stroke="#000000" points="793,-624.5 1037,-624.5 "/>
<text text-anchor="start" x="801" y="-609.3" font-family="Times,serif" font-size="14.00" fill="#000000">id :bigint</text>
<text text-anchor="start" x="801" y="-594.3" font-family="Times,serif" font-size="14.00" fill="#000000">route_id :bigint</text>
<text text-anchor="start" x="801" y="-579.3" font-family="Times,serif" font-size="14.00" fill="#000000">user_id :bigint</text>
<text text-anchor="start" x="801" y="-564.3" font-family="Times,serif" font-size="14.00" fill="#000000">created_at :timestamp without time zone</text>
<text text-anchor="start" x="801" y="-549.3" font-family="Times,serif" font-size="14.00" fill="#000000">updated_at :timestamp without time zone</text>
</g>
<!-- Photo -->
<g id="node4" class="node">
<title>Photo</title>
<path fill="none" stroke="#000000" d="M536,-15.5C536,-15.5 756,-15.5 756,-15.5 762,-15.5 768,-21.5 768,-27.5 768,-27.5 768,-124.5 768,-124.5 768,-130.5 762,-136.5 756,-136.5 756,-136.5 536,-136.5 536,-136.5 530,-136.5 524,-130.5 524,-124.5 524,-124.5 524,-27.5 524,-27.5 524,-21.5 530,-15.5 536,-15.5"/>
<text text-anchor="middle" x="646" y="-121.3" font-family="Times,serif" font-size="14.00" fill="#000000">Photo</text>
<polyline fill="none" stroke="#000000" points="524,-113.5 768,-113.5 "/>
<text text-anchor="start" x="532" y="-98.3" font-family="Times,serif" font-size="14.00" fill="#000000">id :bigint</text>
<text text-anchor="start" x="532" y="-83.3" font-family="Times,serif" font-size="14.00" fill="#000000">imageable_type :character varying</text>
<text text-anchor="start" x="532" y="-68.3" font-family="Times,serif" font-size="14.00" fill="#000000">imageable_id :bigint</text>
<text text-anchor="start" x="532" y="-53.3" font-family="Times,serif" font-size="14.00" fill="#000000">photo :character varying</text>
<text text-anchor="start" x="532" y="-38.3" font-family="Times,serif" font-size="14.00" fill="#000000">created_at :timestamp without time zone</text>
<text text-anchor="start" x="532" y="-23.3" font-family="Times,serif" font-size="14.00" fill="#000000">updated_at :timestamp without time zone</text>
</g>
<!-- Review -->
<g id="node5" class="node">
<title>Review</title>
<path fill="none" stroke="#000000" d="M12,-.5C12,-.5 232,-.5 232,-.5 238,-.5 244,-6.5 244,-12.5 244,-12.5 244,-139.5 244,-139.5 244,-145.5 238,-151.5 232,-151.5 232,-151.5 12,-151.5 12,-151.5 6,-151.5 0,-145.5 0,-139.5 0,-139.5 0,-12.5 0,-12.5 0,-6.5 6,-.5 12,-.5"/>
<text text-anchor="middle" x="122" y="-136.3" font-family="Times,serif" font-size="14.00" fill="#000000">Review</text>
<polyline fill="none" stroke="#000000" points="0,-128.5 244,-128.5 "/>
<text text-anchor="start" x="8" y="-113.3" font-family="Times,serif" font-size="14.00" fill="#000000">id :bigint</text>
<text text-anchor="start" x="8" y="-98.3" font-family="Times,serif" font-size="14.00" fill="#000000">user_id :bigint</text>
<text text-anchor="start" x="8" y="-83.3" font-family="Times,serif" font-size="14.00" fill="#000000">title :character varying</text>
<text text-anchor="start" x="8" y="-68.3" font-family="Times,serif" font-size="14.00" fill="#000000">description :text</text>
<text text-anchor="start" x="8" y="-53.3" font-family="Times,serif" font-size="14.00" fill="#000000">rating :integer</text>
<text text-anchor="start" x="8" y="-38.3" font-family="Times,serif" font-size="14.00" fill="#000000">created_at :timestamp without time zone</text>
<text text-anchor="start" x="8" y="-23.3" font-family="Times,serif" font-size="14.00" fill="#000000">updated_at :timestamp without time zone</text>
<text text-anchor="start" x="8" y="-8.3" font-family="Times,serif" font-size="14.00" fill="#000000">route_id :bigint</text>
</g>
<!-- Route -->
<g id="node6" class="node">
<title>Route</title>
<path fill="none" stroke="#000000" d="M246,-188.5C246,-188.5 466,-188.5 466,-188.5 472,-188.5 478,-194.5 478,-200.5 478,-200.5 478,-417.5 478,-417.5 478,-423.5 472,-429.5 466,-429.5 466,-429.5 246,-429.5 246,-429.5 240,-429.5 234,-423.5 234,-417.5 234,-417.5 234,-200.5 234,-200.5 234,-194.5 240,-188.5 246,-188.5"/>
<text text-anchor="middle" x="356" y="-414.3" font-family="Times,serif" font-size="14.00" fill="#000000">Route</text>
<polyline fill="none" stroke="#000000" points="234,-406.5 478,-406.5 "/>
<text text-anchor="start" x="242" y="-391.3" font-family="Times,serif" font-size="14.00" fill="#000000">id :bigint</text>
<text text-anchor="start" x="242" y="-376.3" font-family="Times,serif" font-size="14.00" fill="#000000">name :character varying</text>
<text text-anchor="start" x="242" y="-361.3" font-family="Times,serif" font-size="14.00" fill="#000000">longitude :double precision</text>
<text text-anchor="start" x="242" y="-346.3" font-family="Times,serif" font-size="14.00" fill="#000000">latitude :double precision</text>
<text text-anchor="start" x="242" y="-331.3" font-family="Times,serif" font-size="14.00" fill="#000000">description :text</text>
<text text-anchor="start" x="242" y="-316.3" font-family="Times,serif" font-size="14.00" fill="#000000">type :character varying</text>
<text text-anchor="start" x="242" y="-301.3" font-family="Times,serif" font-size="14.00" fill="#000000">style :character varying</text>
<text text-anchor="start" x="242" y="-286.3" font-family="Times,serif" font-size="14.00" fill="#000000">level :character varying</text>
<text text-anchor="start" x="242" y="-271.3" font-family="Times,serif" font-size="14.00" fill="#000000">rating :integer</text>
<text text-anchor="start" x="242" y="-256.3" font-family="Times,serif" font-size="14.00" fill="#000000">created_at :timestamp without time zone</text>
<text text-anchor="start" x="242" y="-241.3" font-family="Times,serif" font-size="14.00" fill="#000000">updated_at :timestamp without time zone</text>
<text text-anchor="start" x="242" y="-226.3" font-family="Times,serif" font-size="14.00" fill="#000000">user_id :bigint</text>
<text text-anchor="start" x="242" y="-211.3" font-family="Times,serif" font-size="14.00" fill="#000000">type_of :character varying</text>
<text text-anchor="start" x="242" y="-196.3" font-family="Times,serif" font-size="14.00" fill="#000000">site_id :integer</text>
</g>
<!-- Route&#45;&gt;City -->
<g id="edge1" class="edge">
<title>Route&#45;&gt;City</title>
<path fill="none" stroke="#8a9373" d="M371.4845,-180.1469C373.2685,-165.3015 375.02,-150.7266 376.6213,-137.4013"/>
<ellipse fill="none" stroke="#8a9373" cx="370.9694" cy="-184.4336" rx="4" ry="4"/>
<ellipse fill="#8a9373" stroke="#8a9373" cx="377.1206" cy="-133.246" rx="4" ry="4"/>
</g>
<!-- Route&#45;&gt;Photo -->
<g id="edge2" class="edge">
<title>Route&#45;&gt;Photo</title>
<path fill="none" stroke="#c103f6" d="M484.5581,-189.9813C485.3733,-189.3173 486.1873,-188.6568 487,-188 505.9264,-172.7042 526.798,-157.144 547.0196,-142.6805"/>
<ellipse fill="none" stroke="#c103f6" cx="481.378" cy="-192.5964" rx="4" ry="4"/>
<polygon fill="#c103f6" stroke="#c103f6" points="547.1843,-142.5634 557.9418,-140.4357 551.2592,-139.6659 555.334,-136.7683 555.334,-136.7683 555.334,-136.7683 551.2592,-139.6659 552.7262,-133.101 547.1843,-142.5634 547.1843,-142.5634"/>
</g>
<!-- Route&#45;&gt;Review -->
<g id="edge3" class="edge">
<title>Route&#45;&gt;Review</title>
<path fill="none" stroke="#acfb98" d="M228.9874,-182.5302C220.8689,-174.4464 212.8152,-166.4271 204.9841,-158.6295"/>
<ellipse fill="none" stroke="#acfb98" cx="232.053" cy="-185.5827" rx="4" ry="4"/>
<polygon fill="#acfb98" stroke="#acfb98" points="204.9457,-158.5912 201.0346,-148.3465 201.4026,-155.0632 197.8594,-151.5353 197.8594,-151.5353 197.8594,-151.5353 201.4026,-155.0632 194.6843,-154.7241 204.9457,-158.5912 204.9457,-158.5912"/>
</g>
<!-- RouteTrip -->
<g id="node7" class="node">
<title>RouteTrip</title>
<path fill="none" stroke="#000000" d="M1067,-541.5C1067,-541.5 1287,-541.5 1287,-541.5 1293,-541.5 1299,-547.5 1299,-553.5 1299,-553.5 1299,-635.5 1299,-635.5 1299,-641.5 1293,-647.5 1287,-647.5 1287,-647.5 1067,-647.5 1067,-647.5 1061,-647.5 1055,-641.5 1055,-635.5 1055,-635.5 1055,-553.5 1055,-553.5 1055,-547.5 1061,-541.5 1067,-541.5"/>
<text text-anchor="middle" x="1177" y="-632.3" font-family="Times,serif" font-size="14.00" fill="#000000">RouteTrip</text>
<polyline fill="none" stroke="#000000" points="1055,-624.5 1299,-624.5 "/>
<text text-anchor="start" x="1063" y="-609.3" font-family="Times,serif" font-size="14.00" fill="#000000">id :bigint</text>
<text text-anchor="start" x="1063" y="-594.3" font-family="Times,serif" font-size="14.00" fill="#000000">route_id :bigint</text>
<text text-anchor="start" x="1063" y="-579.3" font-family="Times,serif" font-size="14.00" fill="#000000">trip_id :bigint</text>
<text text-anchor="start" x="1063" y="-564.3" font-family="Times,serif" font-size="14.00" fill="#000000">created_at :timestamp without time zone</text>
<text text-anchor="start" x="1063" y="-549.3" font-family="Times,serif" font-size="14.00" fill="#000000">updated_at :timestamp without time zone</text>
</g>
<!-- Site -->
<g id="node8" class="node">
<title>Site</title>
<path fill="none" stroke="#000000" d="M508,-256C508,-256 728,-256 728,-256 734,-256 740,-262 740,-268 740,-268 740,-350 740,-350 740,-356 734,-362 728,-362 728,-362 508,-362 508,-362 502,-362 496,-356 496,-350 496,-350 496,-268 496,-268 496,-262 502,-256 508,-256"/>
<text text-anchor="middle" x="618" y="-346.8" font-family="Times,serif" font-size="14.00" fill="#000000">Site</text>
<polyline fill="none" stroke="#000000" points="496,-339 740,-339 "/>
<text text-anchor="start" x="504" y="-323.8" font-family="Times,serif" font-size="14.00" fill="#000000">id :bigint</text>
<text text-anchor="start" x="504" y="-308.8" font-family="Times,serif" font-size="14.00" fill="#000000">city_id :bigint</text>
<text text-anchor="start" x="504" y="-293.8" font-family="Times,serif" font-size="14.00" fill="#000000">name :character varying</text>
<text text-anchor="start" x="504" y="-278.8" font-family="Times,serif" font-size="14.00" fill="#000000">created_at :timestamp without time zone</text>
<text text-anchor="start" x="504" y="-263.8" font-family="Times,serif" font-size="14.00" fill="#000000">updated_at :timestamp without time zone</text>
</g>
<!-- Site&#45;&gt;Photo -->
<g id="edge4" class="edge">
<title>Site&#45;&gt;Photo</title>
<path fill="none" stroke="#00a393" d="M625.3587,-247.7649C629.0743,-216.8461 633.6022,-179.1678 637.4694,-146.987"/>
<ellipse fill="none" stroke="#00a393" cx="624.866" cy="-251.8657" rx="4" ry="4"/>
<polygon fill="#00a393" stroke="#00a393" points="637.5067,-146.676 643.1677,-137.2844 638.1033,-141.7117 638.6999,-136.7474 638.6999,-136.7474 638.6999,-136.7474 638.1033,-141.7117 634.232,-136.2105 637.5067,-146.676 637.5067,-146.676"/>
</g>
<!-- StateProvince -->
<g id="node9" class="node">
<title>StateProvince</title>
<path fill="none" stroke="#000000" d="M1329,-549C1329,-549 1549,-549 1549,-549 1555,-549 1561,-555 1561,-561 1561,-561 1561,-628 1561,-628 1561,-634 1555,-640 1549,-640 1549,-640 1329,-640 1329,-640 1323,-640 1317,-634 1317,-628 1317,-628 1317,-561 1317,-561 1317,-555 1323,-549 1329,-549"/>
<text text-anchor="middle" x="1439" y="-624.8" font-family="Times,serif" font-size="14.00" fill="#000000">StateProvince</text>
<polyline fill="none" stroke="#000000" points="1317,-617 1561,-617 "/>
<text text-anchor="start" x="1325" y="-601.8" font-family="Times,serif" font-size="14.00" fill="#000000">id :bigint</text>
<text text-anchor="start" x="1325" y="-586.8" font-family="Times,serif" font-size="14.00" fill="#000000">name :character varying</text>
<text text-anchor="start" x="1325" y="-571.8" font-family="Times,serif" font-size="14.00" fill="#000000">created_at :timestamp without time zone</text>
<text text-anchor="start" x="1325" y="-556.8" font-family="Times,serif" font-size="14.00" fill="#000000">updated_at :timestamp without time zone</text>
</g>
<!-- Trip -->
<g id="node10" class="node">
<title>Trip</title>
<path fill="none" stroke="#000000" d="M770,-241C770,-241 990,-241 990,-241 996,-241 1002,-247 1002,-253 1002,-253 1002,-365 1002,-365 1002,-371 996,-377 990,-377 990,-377 770,-377 770,-377 764,-377 758,-371 758,-365 758,-365 758,-253 758,-253 758,-247 764,-241 770,-241"/>
<text text-anchor="middle" x="880" y="-361.8" font-family="Times,serif" font-size="14.00" fill="#000000">Trip</text>
<polyline fill="none" stroke="#000000" points="758,-354 1002,-354 "/>
<text text-anchor="start" x="766" y="-338.8" font-family="Times,serif" font-size="14.00" fill="#000000">id :bigint</text>
<text text-anchor="start" x="766" y="-323.8" font-family="Times,serif" font-size="14.00" fill="#000000">start_date :character varying</text>
<text text-anchor="start" x="766" y="-308.8" font-family="Times,serif" font-size="14.00" fill="#000000">end_date :character varying</text>
<text text-anchor="start" x="766" y="-293.8" font-family="Times,serif" font-size="14.00" fill="#000000">weather :character varying</text>
<text text-anchor="start" x="766" y="-278.8" font-family="Times,serif" font-size="14.00" fill="#000000">created_at :timestamp without time zone</text>
<text text-anchor="start" x="766" y="-263.8" font-family="Times,serif" font-size="14.00" fill="#000000">updated_at :timestamp without time zone</text>
<text text-anchor="start" x="766" y="-248.8" font-family="Times,serif" font-size="14.00" fill="#000000">user_id :bigint</text>
</g>
<!-- User -->
<g id="node11" class="node">
<title>User</title>
<path fill="none" stroke="#000000" d="M473.5,-466.5C473.5,-466.5 762.5,-466.5 762.5,-466.5 768.5,-466.5 774.5,-472.5 774.5,-478.5 774.5,-478.5 774.5,-710.5 774.5,-710.5 774.5,-716.5 768.5,-722.5 762.5,-722.5 762.5,-722.5 473.5,-722.5 473.5,-722.5 467.5,-722.5 461.5,-716.5 461.5,-710.5 461.5,-710.5 461.5,-478.5 461.5,-478.5 461.5,-472.5 467.5,-466.5 473.5,-466.5"/>
<text text-anchor="middle" x="618" y="-707.3" font-family="Times,serif" font-size="14.00" fill="#000000">User</text>
<polyline fill="none" stroke="#000000" points="461.5,-699.5 774.5,-699.5 "/>
<text text-anchor="start" x="469.5" y="-684.3" font-family="Times,serif" font-size="14.00" fill="#000000">id :bigint</text>
<text text-anchor="start" x="469.5" y="-669.3" font-family="Times,serif" font-size="14.00" fill="#000000">email :character varying</text>
<text text-anchor="start" x="469.5" y="-654.3" font-family="Times,serif" font-size="14.00" fill="#000000">encrypted_password :character varying</text>
<text text-anchor="start" x="469.5" y="-639.3" font-family="Times,serif" font-size="14.00" fill="#000000">reset_password_token :character varying</text>
<text text-anchor="start" x="469.5" y="-624.3" font-family="Times,serif" font-size="14.00" fill="#000000">reset_password_sent_at :timestamp without time zone</text>
<text text-anchor="start" x="469.5" y="-609.3" font-family="Times,serif" font-size="14.00" fill="#000000">remember_created_at :timestamp without time zone</text>
<text text-anchor="start" x="469.5" y="-594.3" font-family="Times,serif" font-size="14.00" fill="#000000">created_at :timestamp without time zone</text>
<text text-anchor="start" x="469.5" y="-579.3" font-family="Times,serif" font-size="14.00" fill="#000000">updated_at :timestamp without time zone</text>
<text text-anchor="start" x="469.5" y="-564.3" font-family="Times,serif" font-size="14.00" fill="#000000">route_setter :boolean</text>
<text text-anchor="start" x="469.5" y="-549.3" font-family="Times,serif" font-size="14.00" fill="#000000">username :character varying</text>
<text text-anchor="start" x="469.5" y="-534.3" font-family="Times,serif" font-size="14.00" fill="#000000">avatar_photo :character varying</text>
<text text-anchor="start" x="469.5" y="-519.3" font-family="Times,serif" font-size="14.00" fill="#000000">location :character varying</text>
<text text-anchor="start" x="469.5" y="-504.3" font-family="Times,serif" font-size="14.00" fill="#000000">bio :text</text>
<text text-anchor="start" x="469.5" y="-489.3" font-family="Times,serif" font-size="14.00" fill="#000000">favorite_styles :character varying</text>
<text text-anchor="start" x="469.5" y="-474.3" font-family="Times,serif" font-size="14.00" fill="#000000">current_level :character varying</text>
</g>
<!-- User&#45;&gt;Photo -->
<g id="edge7" class="edge">
<title>User&#45;&gt;Photo</title>
<path fill="none" stroke="#a1cb55" d="M782.3071,-466.7391C782.8712,-466.4904 783.4355,-466.244 784,-466 877.7644,-425.4684 944.6669,-507.6819 1011,-430 1080.8435,-348.2071 1074.9323,-274.492 1011,-188 982.6313,-149.6209 870.6851,-118.9803 778.1643,-99.516"/>
<ellipse fill="none" stroke="#a1cb55" cx="778.6253" cy="-468.4304" rx="4" ry="4"/>
<polygon fill="#a1cb55" stroke="#a1cb55" points="777.9242,-99.4662 769.048,-93.027 773.0287,-98.4496 768.1331,-97.433 768.1331,-97.433 768.1331,-97.433 773.0287,-98.4496 767.2181,-101.839 777.9242,-99.4662 777.9242,-99.4662"/>
</g>
<!-- User&#45;&gt;Review -->
<g id="edge5" class="edge">
<title>User&#45;&gt;Review</title>
<path fill="none" stroke="#7e718f" d="M453.6929,-466.7391C453.1288,-466.4904 452.5645,-466.244 452,-466 358.2356,-425.4684 301.6304,-497.5452 225,-430 148.9072,-362.9286 127.5525,-243.2429 122.3254,-161.7845"/>
<ellipse fill="none" stroke="#7e718f" cx="457.3747" cy="-468.4304" rx="4" ry="4"/>
<polygon fill="#7e718f" stroke="#7e718f" points="122.3111,-161.5332 126.2329,-151.2926 122.0257,-156.5414 121.7402,-151.5495 121.7402,-151.5495 121.7402,-151.5495 122.0257,-156.5414 117.2475,-151.8065 122.3111,-161.5332 122.3111,-161.5332"/>
</g>
<!-- User&#45;&gt;Route -->
<g id="edge6" class="edge">
<title>User&#45;&gt;Route</title>
<path fill="none" stroke="#5c69ce" d="M494.9122,-460.3719C487.8971,-452.7276 480.8517,-445.0502 473.8568,-437.4279"/>
<ellipse fill="none" stroke="#5c69ce" cx="497.7071" cy="-463.4175" rx="4" ry="4"/>
<polygon fill="#5c69ce" stroke="#5c69ce" points="473.643,-437.1949 470.1972,-426.7845 470.2623,-433.511 466.8816,-429.8271 466.8816,-429.8271 466.8816,-429.8271 470.2623,-433.511 463.5661,-432.8697 473.643,-437.1949 473.643,-437.1949"/>
</g>
<!-- User&#45;&gt;Trip -->
<g id="edge8" class="edge">
<title>User&#45;&gt;Trip</title>
<path fill="none" stroke="#d06a40" d="M741.2077,-460.2412C765.0038,-434.3108 789.1439,-408.0054 810.4725,-384.7638"/>
<ellipse fill="none" stroke="#d06a40" cx="738.2929" cy="-463.4175" rx="4" ry="4"/>
<polygon fill="#d06a40" stroke="#d06a40" points="810.5332,-384.6976 820.6101,-380.3724 813.9139,-381.0137 817.2946,-377.3298 817.2946,-377.3298 817.2946,-377.3298 813.9139,-381.0137 813.979,-374.2872 810.5332,-384.6976 810.5332,-384.6976"/>
</g>
</g>
</svg>
