<?xml version="1.0" encoding="UTF-8" standalone="no"?>
<!DOCTYPE svg PUBLIC "-//W3C//DTD SVG 1.1//EN"
 "http://www.w3.org/Graphics/SVG/1.1/DTD/svg11.dtd">
<!-- Generated by graphviz version 2.40.1 (20161225.0304)
 -->
<!-- Title: controllers_diagram Pages: 1 -->
<svg width="889pt" height="207pt"
 viewBox="0.00 0.00 888.50 207.00" xmlns="http://www.w3.org/2000/svg" xmlns:xlink="http://www.w3.org/1999/xlink">
<g id="graph0" class="graph" transform="scale(1 1) rotate(0) translate(4 203)">
<title>controllers_diagram</title>
<polygon fill="transparent" stroke="transparent" points="-4,4 -4,-203 884.5,-203 884.5,4 -4,4"/>
<!-- ApplicationController -->
<g id="node1" class="node">
<title>ApplicationController</title>
<path fill="none" stroke="#000000" d="M12,-45C12,-45 124,-45 124,-45 130,-45 136,-51 136,-57 136,-57 136,-142 136,-142 136,-148 130,-154 124,-154 124,-154 12,-154 12,-154 6,-154 0,-148 0,-142 0,-142 0,-57 0,-57 0,-51 6,-45 12,-45"/>
<text text-anchor="middle" x="68" y="-138.8" font-family="Times,serif" font-size="14.00" fill="#000000">ApplicationController</text>
<polyline fill="none" stroke="#000000" points="0,-131 136,-131 "/>
<polyline fill="none" stroke="#000000" points="0,-107 136,-107 "/>
<polyline fill="none" stroke="#000000" points="0,-83 136,-83 "/>
<text text-anchor="start" x="8" y="-67.8" font-family="Times,serif" font-size="14.00" fill="#000000">_layout</text>
<text text-anchor="start" x="8" y="-52.8" font-family="Times,serif" font-size="14.00" fill="#000000">skip_pundit?</text>
</g>
<!-- PagesController -->
<g id="node2" class="node">
<title>PagesController</title>
<path fill="none" stroke="#000000" d="M166,-53C166,-53 246,-53 246,-53 252,-53 258,-59 258,-65 258,-65 258,-134 258,-134 258,-140 252,-146 246,-146 246,-146 166,-146 166,-146 160,-146 154,-140 154,-134 154,-134 154,-65 154,-65 154,-59 160,-53 166,-53"/>
<text text-anchor="middle" x="206" y="-130.8" font-family="Times,serif" font-size="14.00" fill="#000000">PagesController</text>
<polyline fill="none" stroke="#000000" points="154,-123 258,-123 "/>
<text text-anchor="start" x="162" y="-107.8" font-family="Times,serif" font-size="14.00" fill="#000000">home</text>
<polyline fill="none" stroke="#000000" points="154,-100 258,-100 "/>
<polyline fill="none" stroke="#000000" points="154,-76 258,-76 "/>
<text text-anchor="start" x="162" y="-60.8" font-family="Times,serif" font-size="14.00" fill="#000000">_layout</text>
</g>
<!-- ReviewsController -->
<g id="node3" class="node">
<title>ReviewsController</title>
<path fill="none" stroke="#000000" d="M288.5,-15.5C288.5,-15.5 383.5,-15.5 383.5,-15.5 389.5,-15.5 395.5,-21.5 395.5,-27.5 395.5,-27.5 395.5,-171.5 395.5,-171.5 395.5,-177.5 389.5,-183.5 383.5,-183.5 383.5,-183.5 288.5,-183.5 288.5,-183.5 282.5,-183.5 276.5,-177.5 276.5,-171.5 276.5,-171.5 276.5,-27.5 276.5,-27.5 276.5,-21.5 282.5,-15.5 288.5,-15.5"/>
<text text-anchor="middle" x="336" y="-168.3" font-family="Times,serif" font-size="14.00" fill="#000000">ReviewsController</text>
<polyline fill="none" stroke="#000000" points="276.5,-160.5 395.5,-160.5 "/>
<text text-anchor="start" x="284.5" y="-145.3" font-family="Times,serif" font-size="14.00" fill="#000000">create</text>
<text text-anchor="start" x="284.5" y="-130.3" font-family="Times,serif" font-size="14.00" fill="#000000">destroy</text>
<text text-anchor="start" x="284.5" y="-115.3" font-family="Times,serif" font-size="14.00" fill="#000000">edit</text>
<text text-anchor="start" x="284.5" y="-100.3" font-family="Times,serif" font-size="14.00" fill="#000000">new</text>
<text text-anchor="start" x="284.5" y="-85.3" font-family="Times,serif" font-size="14.00" fill="#000000">update</text>
<polyline fill="none" stroke="#000000" points="276.5,-77.5 395.5,-77.5 "/>
<polyline fill="none" stroke="#000000" points="276.5,-53.5 395.5,-53.5 "/>
<text text-anchor="start" x="284.5" y="-38.3" font-family="Times,serif" font-size="14.00" fill="#000000">_layout</text>
<text text-anchor="start" x="284.5" y="-23.3" font-family="Times,serif" font-size="14.00" fill="#000000">set_review</text>
</g>
<!-- RoutesController -->
<g id="node4" class="node">
<title>RoutesController</title>
<path fill="none" stroke="#000000" d="M426,-.5C426,-.5 512,-.5 512,-.5 518,-.5 524,-6.5 524,-12.5 524,-12.5 524,-186.5 524,-186.5 524,-192.5 518,-198.5 512,-198.5 512,-198.5 426,-198.5 426,-198.5 420,-198.5 414,-192.5 414,-186.5 414,-186.5 414,-12.5 414,-12.5 414,-6.5 420,-.5 426,-.5"/>
<text text-anchor="middle" x="469" y="-183.3" font-family="Times,serif" font-size="14.00" fill="#000000">RoutesController</text>
<polyline fill="none" stroke="#000000" points="414,-175.5 524,-175.5 "/>
<text text-anchor="start" x="422" y="-160.3" font-family="Times,serif" font-size="14.00" fill="#000000">create</text>
<text text-anchor="start" x="422" y="-145.3" font-family="Times,serif" font-size="14.00" fill="#000000">edit</text>
<text text-anchor="start" x="422" y="-130.3" font-family="Times,serif" font-size="14.00" fill="#000000">index</text>
<text text-anchor="start" x="422" y="-115.3" font-family="Times,serif" font-size="14.00" fill="#000000">new</text>
<text text-anchor="start" x="422" y="-100.3" font-family="Times,serif" font-size="14.00" fill="#000000">show</text>
<text text-anchor="start" x="422" y="-85.3" font-family="Times,serif" font-size="14.00" fill="#000000">update</text>
<polyline fill="none" stroke="#000000" points="414,-77.5 524,-77.5 "/>
<polyline fill="none" stroke="#000000" points="414,-53.5 524,-53.5 "/>
<text text-anchor="start" x="422" y="-38.3" font-family="Times,serif" font-size="14.00" fill="#000000">_layout</text>
<text text-anchor="start" x="422" y="-23.3" font-family="Times,serif" font-size="14.00" fill="#000000">route_params</text>
<text text-anchor="start" x="422" y="-8.3" font-family="Times,serif" font-size="14.00" fill="#000000">set_route</text>
</g>
<!-- SitesController -->
<g id="node5" class="node">
<title>SitesController</title>
<path fill="none" stroke="#000000" d="M554,-53C554,-53 628,-53 628,-53 634,-53 640,-59 640,-65 640,-65 640,-134 640,-134 640,-140 634,-146 628,-146 628,-146 554,-146 554,-146 548,-146 542,-140 542,-134 542,-134 542,-65 542,-65 542,-59 548,-53 554,-53"/>
<text text-anchor="middle" x="591" y="-130.8" font-family="Times,serif" font-size="14.00" fill="#000000">SitesController</text>
<polyline fill="none" stroke="#000000" points="542,-123 640,-123 "/>
<text text-anchor="start" x="550" y="-107.8" font-family="Times,serif" font-size="14.00" fill="#000000">show</text>
<polyline fill="none" stroke="#000000" points="542,-100 640,-100 "/>
<polyline fill="none" stroke="#000000" points="542,-76 640,-76 "/>
<text text-anchor="start" x="550" y="-60.8" font-family="Times,serif" font-size="14.00" fill="#000000">_layout</text>
</g>
<!-- TripsController -->
<g id="node6" class="node">
<title>TripsController</title>
<path fill="none" stroke="#000000" d="M670.5,-8C670.5,-8 747.5,-8 747.5,-8 753.5,-8 759.5,-14 759.5,-20 759.5,-20 759.5,-179 759.5,-179 759.5,-185 753.5,-191 747.5,-191 747.5,-191 670.5,-191 670.5,-191 664.5,-191 658.5,-185 658.5,-179 658.5,-179 658.5,-20 658.5,-20 658.5,-14 664.5,-8 670.5,-8"/>
<text text-anchor="middle" x="709" y="-175.8" font-family="Times,serif" font-size="14.00" fill="#000000">TripsController</text>
<polyline fill="none" stroke="#000000" points="658.5,-168 759.5,-168 "/>
<text text-anchor="start" x="666.5" y="-152.8" font-family="Times,serif" font-size="14.00" fill="#000000">create</text>
<text text-anchor="start" x="666.5" y="-137.8" font-family="Times,serif" font-size="14.00" fill="#000000">destroy</text>
<text text-anchor="start" x="666.5" y="-122.8" font-family="Times,serif" font-size="14.00" fill="#000000">edit</text>
<text text-anchor="start" x="666.5" y="-107.8" font-family="Times,serif" font-size="14.00" fill="#000000">new</text>
<text text-anchor="start" x="666.5" y="-92.8" font-family="Times,serif" font-size="14.00" fill="#000000">show</text>
<text text-anchor="start" x="666.5" y="-77.8" font-family="Times,serif" font-size="14.00" fill="#000000">update</text>
<polyline fill="none" stroke="#000000" points="658.5,-70 759.5,-70 "/>
<polyline fill="none" stroke="#000000" points="658.5,-46 759.5,-46 "/>
<text text-anchor="start" x="666.5" y="-30.8" font-family="Times,serif" font-size="14.00" fill="#000000">_layout</text>
<text text-anchor="start" x="666.5" y="-15.8" font-family="Times,serif" font-size="14.00" fill="#000000">set_trip</text>
</g>
<!-- UsersController -->
<g id="node7" class="node">
<title>UsersController</title>
<path fill="none" stroke="#000000" d="M789.5,-53C789.5,-53 868.5,-53 868.5,-53 874.5,-53 880.5,-59 880.5,-65 880.5,-65 880.5,-134 880.5,-134 880.5,-140 874.5,-146 868.5,-146 868.5,-146 789.5,-146 789.5,-146 783.5,-146 777.5,-140 777.5,-134 777.5,-134 777.5,-65 777.5,-65 777.5,-59 783.5,-53 789.5,-53"/>
<text text-anchor="middle" x="829" y="-130.8" font-family="Times,serif" font-size="14.00" fill="#000000">UsersController</text>
<polyline fill="none" stroke="#000000" points="777.5,-123 880.5,-123 "/>
<text text-anchor="start" x="785.5" y="-107.8" font-family="Times,serif" font-size="14.00" fill="#000000">show</text>
<polyline fill="none" stroke="#000000" points="777.5,-100 880.5,-100 "/>
<polyline fill="none" stroke="#000000" points="777.5,-76 880.5,-76 "/>
<text text-anchor="start" x="785.5" y="-60.8" font-family="Times,serif" font-size="14.00" fill="#000000">_layout</text>
</g>
</g>
</svg>
