<?xml version="1.0" encoding="UTF-8" standalone="no"?>
<!DOCTYPE svg PUBLIC "-//W3C//DTD SVG 1.1//EN"
 "http://www.w3.org/Graphics/SVG/1.1/DTD/svg11.dtd">
<!-- Generated by graphviz version 2.40.1 (20161225.0304)
 -->
<!-- Title: models_diagram Pages: 1 -->
<svg width="867pt" height="724pt"
 viewBox="0.00 0.00 867.00 724.00" xmlns="http://www.w3.org/2000/svg" xmlns:xlink="http://www.w3.org/1999/xlink">
<g id="graph0" class="graph" transform="scale(1 1) rotate(0) translate(4 720)">
<title>models_diagram</title>
<polygon fill="transparent" stroke="transparent" points="-4,4 -4,-720 863,-720 863,4 -4,4"/>
<!-- ApplicationRecord -->
<g id="node1" class="node">
<title>ApplicationRecord</title>
<ellipse fill="none" stroke="#000000" cx="147" cy="-610" rx="77.1866" ry="18"/>
<text text-anchor="middle" x="147" y="-606.3" font-family="Times,serif" font-size="14.00" fill="#000000">ApplicationRecord</text>
</g>
<!-- CookingListItem -->
<g id="node2" class="node">
<title>CookingListItem</title>
<path fill="none" stroke="#000000" d="M12,-15.5C12,-15.5 232,-15.5 232,-15.5 238,-15.5 244,-21.5 244,-27.5 244,-27.5 244,-109.5 244,-109.5 244,-115.5 238,-121.5 232,-121.5 232,-121.5 12,-121.5 12,-121.5 6,-121.5 0,-115.5 0,-109.5 0,-109.5 0,-27.5 0,-27.5 0,-21.5 6,-15.5 12,-15.5"/>
<text text-anchor="middle" x="122" y="-106.3" font-family="Times,serif" font-size="14.00" fill="#000000">CookingListItem</text>
<polyline fill="none" stroke="#000000" points="0,-98.5 244,-98.5 "/>
<text text-anchor="start" x="8" y="-83.3" font-family="Times,serif" font-size="14.00" fill="#000000">id :bigint</text>
<text text-anchor="start" x="8" y="-68.3" font-family="Times,serif" font-size="14.00" fill="#000000">user_id :bigint</text>
<text text-anchor="start" x="8" y="-53.3" font-family="Times,serif" font-size="14.00" fill="#000000">recipe_id :bigint</text>
<text text-anchor="start" x="8" y="-38.3" font-family="Times,serif" font-size="14.00" fill="#000000">created_at :timestamp without time zone</text>
<text text-anchor="start" x="8" y="-23.3" font-family="Times,serif" font-size="14.00" fill="#000000">updated_at :timestamp without time zone</text>
</g>
<!-- FavoriteItem -->
<g id="node3" class="node">
<title>FavoriteItem</title>
<path fill="none" stroke="#000000" d="M516,-557C516,-557 736,-557 736,-557 742,-557 748,-563 748,-569 748,-569 748,-651 748,-651 748,-657 742,-663 736,-663 736,-663 516,-663 516,-663 510,-663 504,-657 504,-651 504,-651 504,-569 504,-569 504,-563 510,-557 516,-557"/>
<text text-anchor="middle" x="626" y="-647.8" font-family="Times,serif" font-size="14.00" fill="#000000">FavoriteItem</text>
<polyline fill="none" stroke="#000000" points="504,-640 748,-640 "/>
<text text-anchor="start" x="512" y="-624.8" font-family="Times,serif" font-size="14.00" fill="#000000">id :bigint</text>
<text text-anchor="start" x="512" y="-609.8" font-family="Times,serif" font-size="14.00" fill="#000000">user_id :bigint</text>
<text text-anchor="start" x="512" y="-594.8" font-family="Times,serif" font-size="14.00" fill="#000000">recipe_id :bigint</text>
<text text-anchor="start" x="512" y="-579.8" font-family="Times,serif" font-size="14.00" fill="#000000">created_at :timestamp without time zone</text>
<text text-anchor="start" x="512" y="-564.8" font-family="Times,serif" font-size="14.00" fill="#000000">updated_at :timestamp without time zone</text>
</g>
<!-- FridgeItem -->
<g id="node4" class="node">
<title>FridgeItem</title>
<path fill="none" stroke="#000000" d="M536,-8C536,-8 756,-8 756,-8 762,-8 768,-14 768,-20 768,-20 768,-117 768,-117 768,-123 762,-129 756,-129 756,-129 536,-129 536,-129 530,-129 524,-123 524,-117 524,-117 524,-20 524,-20 524,-14 530,-8 536,-8"/>
<text text-anchor="middle" x="646" y="-113.8" font-family="Times,serif" font-size="14.00" fill="#000000">FridgeItem</text>
<polyline fill="none" stroke="#000000" points="524,-106 768,-106 "/>
<text text-anchor="start" x="532" y="-90.8" font-family="Times,serif" font-size="14.00" fill="#000000">id :bigint</text>
<text text-anchor="start" x="532" y="-75.8" font-family="Times,serif" font-size="14.00" fill="#000000">user_id :bigint</text>
<text text-anchor="start" x="532" y="-60.8" font-family="Times,serif" font-size="14.00" fill="#000000">ingredient_id :bigint</text>
<text text-anchor="start" x="532" y="-45.8" font-family="Times,serif" font-size="14.00" fill="#000000">quantity :integer</text>
<text text-anchor="start" x="532" y="-30.8" font-family="Times,serif" font-size="14.00" fill="#000000">created_at :timestamp without time zone</text>
<text text-anchor="start" x="532" y="-15.8" font-family="Times,serif" font-size="14.00" fill="#000000">updated_at :timestamp without time zone</text>
</g>
<!-- GroceryItem -->
<g id="node5" class="node">
<title>GroceryItem</title>
<path fill="none" stroke="#000000" d="M274,-.5C274,-.5 494,-.5 494,-.5 500,-.5 506,-6.5 506,-12.5 506,-12.5 506,-124.5 506,-124.5 506,-130.5 500,-136.5 494,-136.5 494,-136.5 274,-136.5 274,-136.5 268,-136.5 262,-130.5 262,-124.5 262,-124.5 262,-12.5 262,-12.5 262,-6.5 268,-.5 274,-.5"/>
<text text-anchor="middle" x="384" y="-121.3" font-family="Times,serif" font-size="14.00" fill="#000000">GroceryItem</text>
<polyline fill="none" stroke="#000000" points="262,-113.5 506,-113.5 "/>
<text text-anchor="start" x="270" y="-98.3" font-family="Times,serif" font-size="14.00" fill="#000000">id :bigint</text>
<text text-anchor="start" x="270" y="-83.3" font-family="Times,serif" font-size="14.00" fill="#000000">user_id :bigint</text>
<text text-anchor="start" x="270" y="-68.3" font-family="Times,serif" font-size="14.00" fill="#000000">ingredient_id :bigint</text>
<text text-anchor="start" x="270" y="-53.3" font-family="Times,serif" font-size="14.00" fill="#000000">quantity :integer</text>
<text text-anchor="start" x="270" y="-38.3" font-family="Times,serif" font-size="14.00" fill="#000000">checked :boolean</text>
<text text-anchor="start" x="270" y="-23.3" font-family="Times,serif" font-size="14.00" fill="#000000">created_at :timestamp without time zone</text>
<text text-anchor="start" x="270" y="-8.3" font-family="Times,serif" font-size="14.00" fill="#000000">updated_at :timestamp without time zone</text>
</g>
<!-- Ingredient -->
<g id="node6" class="node">
<title>Ingredient</title>
<path fill="none" stroke="#000000" d="M439,-361.5C439,-361.5 659,-361.5 659,-361.5 665,-361.5 671,-367.5 671,-373.5 671,-373.5 671,-455.5 671,-455.5 671,-461.5 665,-467.5 659,-467.5 659,-467.5 439,-467.5 439,-467.5 433,-467.5 427,-461.5 427,-455.5 427,-455.5 427,-373.5 427,-373.5 427,-367.5 433,-361.5 439,-361.5"/>
<text text-anchor="middle" x="549" y="-452.3" font-family="Times,serif" font-size="14.00" fill="#000000">Ingredient</text>
<polyline fill="none" stroke="#000000" points="427,-444.5 671,-444.5 "/>
<text text-anchor="start" x="435" y="-429.3" font-family="Times,serif" font-size="14.00" fill="#000000">id :bigint</text>
<text text-anchor="start" x="435" y="-414.3" font-family="Times,serif" font-size="14.00" fill="#000000">name :character varying</text>
<text text-anchor="start" x="435" y="-399.3" font-family="Times,serif" font-size="14.00" fill="#000000">unit_of_measure :character varying</text>
<text text-anchor="start" x="435" y="-384.3" font-family="Times,serif" font-size="14.00" fill="#000000">created_at :timestamp without time zone</text>
<text text-anchor="start" x="435" y="-369.3" font-family="Times,serif" font-size="14.00" fill="#000000">updated_at :timestamp without time zone</text>
</g>
<!-- Ingredient&#45;&gt;FridgeItem -->
<g id="edge1" class="edge">
<title>Ingredient&#45;&gt;FridgeItem</title>
<path fill="none" stroke="#cd1024" d="M561.1029,-353.1801C571.3754,-304.0008 587.3879,-233.451 606,-173 609.461,-161.7589 613.5224,-149.9896 617.7065,-138.5708"/>
<ellipse fill="none" stroke="#cd1024" cx="560.2538" cy="-357.2728" rx="4" ry="4"/>
<polygon fill="#cd1024" stroke="#cd1024" points="617.7506,-138.4523 625.4568,-130.6507 619.4951,-133.7665 621.2396,-129.0807 621.2396,-129.0807 621.2396,-129.0807 619.4951,-133.7665 617.0224,-127.5106 617.7506,-138.4523 617.7506,-138.4523"/>
</g>
<!-- Ingredient&#45;&gt;GroceryItem -->
<g id="edge2" class="edge">
<title>Ingredient&#45;&gt;GroceryItem</title>
<path fill="none" stroke="#f380ac" d="M557.8403,-353.2917C562.2177,-301.8452 561.1124,-228.0973 530,-173 524.0728,-162.5035 516.6047,-152.7936 508.1965,-143.8721"/>
<ellipse fill="none" stroke="#f380ac" cx="557.4631" cy="-357.3678" rx="4" ry="4"/>
<polygon fill="#f380ac" stroke="#f380ac" points="507.9784,-143.6529 504.1158,-133.3898 504.452,-140.1082 500.9256,-136.5636 500.9256,-136.5636 500.9256,-136.5636 504.452,-140.1082 497.7354,-139.7373 507.9784,-143.6529 507.9784,-143.6529"/>
</g>
<!-- RecipeItem -->
<g id="node8" class="node">
<title>RecipeItem</title>
<path fill="none" stroke="#000000" d="M627,-188.5C627,-188.5 847,-188.5 847,-188.5 853,-188.5 859,-194.5 859,-200.5 859,-200.5 859,-297.5 859,-297.5 859,-303.5 853,-309.5 847,-309.5 847,-309.5 627,-309.5 627,-309.5 621,-309.5 615,-303.5 615,-297.5 615,-297.5 615,-200.5 615,-200.5 615,-194.5 621,-188.5 627,-188.5"/>
<text text-anchor="middle" x="737" y="-294.3" font-family="Times,serif" font-size="14.00" fill="#000000">RecipeItem</text>
<polyline fill="none" stroke="#000000" points="615,-286.5 859,-286.5 "/>
<text text-anchor="start" x="623" y="-271.3" font-family="Times,serif" font-size="14.00" fill="#000000">id :bigint</text>
<text text-anchor="start" x="623" y="-256.3" font-family="Times,serif" font-size="14.00" fill="#000000">recipe_id :bigint</text>
<text text-anchor="start" x="623" y="-241.3" font-family="Times,serif" font-size="14.00" fill="#000000">ingredient_id :bigint</text>
<text text-anchor="start" x="623" y="-226.3" font-family="Times,serif" font-size="14.00" fill="#000000">quantity :integer</text>
<text text-anchor="start" x="623" y="-211.3" font-family="Times,serif" font-size="14.00" fill="#000000">created_at :timestamp without time zone</text>
<text text-anchor="start" x="623" y="-196.3" font-family="Times,serif" font-size="14.00" fill="#000000">updated_at :timestamp without time zone</text>
</g>
<!-- Ingredient&#45;&gt;RecipeItem -->
<g id="edge3" class="edge">
<title>Ingredient&#45;&gt;RecipeItem</title>
<path fill="none" stroke="#1e4155" d="M615.497,-355.9614C630.0631,-343.1386 645.5954,-329.4652 660.5172,-316.3293"/>
<ellipse fill="none" stroke="#1e4155" cx="612.2625" cy="-358.8088" rx="4" ry="4"/>
<polygon fill="#1e4155" stroke="#1e4155" points="660.7503,-316.124 671.2298,-312.8941 664.5033,-312.8202 668.2563,-309.5164 668.2563,-309.5164 668.2563,-309.5164 664.5033,-312.8202 665.2829,-306.1387 660.7503,-316.124 660.7503,-316.124"/>
</g>
<!-- User -->
<g id="node9" class="node">
<title>User</title>
<path fill="none" stroke="#000000" d="M219.5,-173.5C219.5,-173.5 508.5,-173.5 508.5,-173.5 514.5,-173.5 520.5,-179.5 520.5,-185.5 520.5,-185.5 520.5,-312.5 520.5,-312.5 520.5,-318.5 514.5,-324.5 508.5,-324.5 508.5,-324.5 219.5,-324.5 219.5,-324.5 213.5,-324.5 207.5,-318.5 207.5,-312.5 207.5,-312.5 207.5,-185.5 207.5,-185.5 207.5,-179.5 213.5,-173.5 219.5,-173.5"/>
<text text-anchor="middle" x="364" y="-309.3" font-family="Times,serif" font-size="14.00" fill="#000000">User</text>
<polyline fill="none" stroke="#000000" points="207.5,-301.5 520.5,-301.5 "/>
<text text-anchor="start" x="215.5" y="-286.3" font-family="Times,serif" font-size="14.00" fill="#000000">id :bigint</text>
<text text-anchor="start" x="215.5" y="-271.3" font-family="Times,serif" font-size="14.00" fill="#000000">email :character varying</text>
<text text-anchor="start" x="215.5" y="-256.3" font-family="Times,serif" font-size="14.00" fill="#000000">encrypted_password :character varying</text>
<text text-anchor="start" x="215.5" y="-241.3" font-family="Times,serif" font-size="14.00" fill="#000000">reset_password_token :character varying</text>
<text text-anchor="start" x="215.5" y="-226.3" font-family="Times,serif" font-size="14.00" fill="#000000">reset_password_sent_at :timestamp without time zone</text>
<text text-anchor="start" x="215.5" y="-211.3" font-family="Times,serif" font-size="14.00" fill="#000000">remember_created_at :timestamp without time zone</text>
<text text-anchor="start" x="215.5" y="-196.3" font-family="Times,serif" font-size="14.00" fill="#000000">created_at :timestamp without time zone</text>
<text text-anchor="start" x="215.5" y="-181.3" font-family="Times,serif" font-size="14.00" fill="#000000">updated_at :timestamp without time zone</text>
</g>
<!-- Ingredient&#45;&gt;User -->
<g id="edge4" class="edge">
<title>Ingredient&#45;&gt;User</title>
<path fill="none" stroke="#7a9058" d="M482.23,-354.7679C473.7809,-347.2094 465.0205,-339.3724 456.263,-331.538"/>
<polygon fill="#7a9058" stroke="#7a9058" points="482.2485,-354.7845 486.7012,-364.8057 485.975,-358.1182 489.7015,-361.4519 489.7015,-361.4519 489.7015,-361.4519 485.975,-358.1182 492.7018,-358.098 482.2485,-354.7845 482.2485,-354.7845"/>
<polygon fill="#7a9058" stroke="#7a9058" points="456.0286,-331.3283 451.576,-321.3071 452.3021,-327.9946 448.5757,-324.6609 448.5757,-324.6609 448.5757,-324.6609 452.3021,-327.9946 445.5753,-328.0148 456.0286,-331.3283 456.0286,-331.3283"/>
</g>
<!-- Recipe -->
<g id="node7" class="node">
<title>Recipe</title>
<path fill="none" stroke="#000000" d="M254,-504.5C254,-504.5 474,-504.5 474,-504.5 480,-504.5 486,-510.5 486,-516.5 486,-516.5 486,-703.5 486,-703.5 486,-709.5 480,-715.5 474,-715.5 474,-715.5 254,-715.5 254,-715.5 248,-715.5 242,-709.5 242,-703.5 242,-703.5 242,-516.5 242,-516.5 242,-510.5 248,-504.5 254,-504.5"/>
<text text-anchor="middle" x="364" y="-700.3" font-family="Times,serif" font-size="14.00" fill="#000000">Recipe</text>
<polyline fill="none" stroke="#000000" points="242,-692.5 486,-692.5 "/>
<text text-anchor="start" x="250" y="-677.3" font-family="Times,serif" font-size="14.00" fill="#000000">id :bigint</text>
<text text-anchor="start" x="250" y="-662.3" font-family="Times,serif" font-size="14.00" fill="#000000">user_id :bigint</text>
<text text-anchor="start" x="250" y="-647.3" font-family="Times,serif" font-size="14.00" fill="#000000">name :character varying</text>
<text text-anchor="start" x="250" y="-632.3" font-family="Times,serif" font-size="14.00" fill="#000000">prep_time :integer</text>
<text text-anchor="start" x="250" y="-617.3" font-family="Times,serif" font-size="14.00" fill="#000000">cook_time :integer</text>
<text text-anchor="start" x="250" y="-602.3" font-family="Times,serif" font-size="14.00" fill="#000000">servings :integer</text>
<text text-anchor="start" x="250" y="-587.3" font-family="Times,serif" font-size="14.00" fill="#000000">steps :character varying</text>
<text text-anchor="start" x="250" y="-572.3" font-family="Times,serif" font-size="14.00" fill="#000000">rating :integer</text>
<text text-anchor="start" x="250" y="-557.3" font-family="Times,serif" font-size="14.00" fill="#000000">photo :character varying</text>
<text text-anchor="start" x="250" y="-542.3" font-family="Times,serif" font-size="14.00" fill="#000000">created_at :timestamp without time zone</text>
<text text-anchor="start" x="250" y="-527.3" font-family="Times,serif" font-size="14.00" fill="#000000">updated_at :timestamp without time zone</text>
<text text-anchor="start" x="250" y="-512.3" font-family="Times,serif" font-size="14.00" fill="#000000">difficulty :character varying</text>
</g>
<!-- Recipe&#45;&gt;CookingListItem -->
<g id="edge7" class="edge">
<title>Recipe&#45;&gt;CookingListItem</title>
<path fill="none" stroke="#fbd3d4" d="M290.0353,-497.4209C258.6643,-446.283 223.5328,-384.1113 198,-325 170.4901,-261.3113 149.2087,-184.6182 136.2533,-131.7799"/>
<ellipse fill="none" stroke="#fbd3d4" cx="292.1387" cy="-500.8352" rx="4" ry="4"/>
<polygon fill="#fbd3d4" stroke="#fbd3d4" points="136.2073,-131.5897 138.2263,-120.8113 135.0301,-126.7303 133.8528,-121.8708 133.8528,-121.8708 133.8528,-121.8708 135.0301,-126.7303 129.4793,-122.9304 136.2073,-131.5897 136.2073,-131.5897"/>
</g>
<!-- Recipe&#45;&gt;Ingredient -->
<g id="edge6" class="edge">
<title>Recipe&#45;&gt;Ingredient</title>
<path fill="none" stroke="#4fa438" d="M471.0389,-496.8859C478.0254,-489.5029 484.8984,-482.2398 491.4931,-475.2708"/>
<polygon fill="#4fa438" stroke="#4fa438" points="470.9537,-496.976 460.8118,-501.1464 467.517,-500.6077 464.0803,-504.2394 464.0803,-504.2394 464.0803,-504.2394 467.517,-500.6077 467.3489,-507.3324 470.9537,-496.976 470.9537,-496.976"/>
<polygon fill="#4fa438" stroke="#4fa438" points="491.6586,-475.0959 501.8005,-470.9254 495.0953,-471.4642 498.532,-467.8324 498.532,-467.8324 498.532,-467.8324 495.0953,-471.4642 495.2634,-464.7394 491.6586,-475.0959 491.6586,-475.0959"/>
</g>
<!-- Recipe&#45;&gt;RecipeItem -->
<g id="edge5" class="edge">
<title>Recipe&#45;&gt;RecipeItem</title>
<path fill="none" stroke="#1fe9ec" d="M493.6334,-504.6431C494.0887,-504.4269 494.5443,-504.2125 495,-504 570.9194,-468.6061 618.9498,-525.353 680,-468 720.0988,-430.3296 733.3839,-368.3393 737.1919,-319.9089"/>
<ellipse fill="none" stroke="#1fe9ec" cx="489.861" cy="-506.5228" rx="4" ry="4"/>
<polygon fill="#1fe9ec" stroke="#1fe9ec" points="737.201,-319.7717 742.3569,-310.0935 737.5339,-314.7827 737.8669,-309.7938 737.8669,-309.7938 737.8669,-309.7938 737.5339,-314.7827 733.3769,-309.4942 737.201,-319.7717 737.201,-319.7717"/>
</g>
<!-- Recipe&#45;&gt;User -->
<g id="edge8" class="edge">
<title>Recipe&#45;&gt;User</title>
<path fill="none" stroke="#377fbe" d="M357.6473,-493.895C356.9838,-442.2712 357.1514,-382.5596 358.1502,-335.0224"/>
<polygon fill="#377fbe" stroke="#377fbe" points="357.6505,-494.1283 353.2918,-504.1907 357.7209,-499.1278 357.7914,-504.1273 357.7914,-504.1273 357.7914,-504.1273 357.7209,-499.1278 362.2909,-504.0639 357.6505,-494.1283 357.6505,-494.1283"/>
<polygon fill="#377fbe" stroke="#377fbe" points="358.156,-334.7603 362.8823,-324.8653 358.2697,-329.7616 358.3834,-324.7629 358.3834,-324.7629 358.3834,-324.7629 358.2697,-329.7616 353.8846,-324.6606 358.156,-334.7603 358.156,-334.7603"/>
</g>
<!-- User&#45;&gt;CookingListItem -->
<g id="edge12" class="edge">
<title>User&#45;&gt;CookingListItem</title>
<path fill="none" stroke="#38a8c3" d="M256.1919,-168.5894C237.9126,-154.9555 219.2269,-141.0184 201.8303,-128.0429"/>
<ellipse fill="none" stroke="#38a8c3" cx="259.566" cy="-171.1061" rx="4" ry="4"/>
<polygon fill="#38a8c3" stroke="#38a8c3" points="201.417,-127.7346 196.0916,-118.1486 197.4091,-124.7452 193.4011,-121.7558 193.4011,-121.7558 193.4011,-121.7558 197.4091,-124.7452 190.7107,-125.3629 201.417,-127.7346 201.417,-127.7346"/>
</g>
<!-- User&#45;&gt;FridgeItem -->
<g id="edge11" class="edge">
<title>User&#45;&gt;FridgeItem</title>
<path fill="none" stroke="#1846fb" d="M488.7465,-169.1534C506.7626,-157.6218 525.1375,-145.8606 542.6734,-134.6364"/>
<ellipse fill="none" stroke="#1846fb" cx="485.3284" cy="-171.3412" rx="4" ry="4"/>
<polygon fill="#1846fb" stroke="#1846fb" points="542.7868,-134.5638 553.6352,-132.9629 546.9981,-131.8683 551.2093,-129.1728 551.2093,-129.1728 551.2093,-129.1728 546.9981,-131.8683 548.7833,-125.3827 542.7868,-134.5638 542.7868,-134.5638"/>
</g>
<!-- User&#45;&gt;GroceryItem -->
<g id="edge10" class="edge">
<title>User&#45;&gt;GroceryItem</title>
<path fill="none" stroke="#4217be" d="M373.2629,-165.4024C373.9498,-159.2027 374.6415,-152.9609 375.3247,-146.7948"/>
<ellipse fill="none" stroke="#4217be" cx="372.8065" cy="-169.5219" rx="4" ry="4"/>
<polygon fill="#4217be" stroke="#4217be" points="375.3629,-146.4494 380.9369,-137.0059 375.9136,-141.4798 376.4642,-136.5102 376.4642,-136.5102 376.4642,-136.5102 375.9136,-141.4798 371.9916,-136.0146 375.3629,-146.4494 375.3629,-146.4494"/>
</g>
<!-- User&#45;&gt;Recipe -->
<g id="edge9" class="edge">
<title>User&#45;&gt;Recipe</title>
<path fill="none" stroke="#5c8495" d="M369.8053,-332.9375C370.8435,-380.8054 371.026,-441.5136 370.3527,-493.895"/>
<ellipse fill="none" stroke="#5c8495" cx="369.709" cy="-328.7619" rx="4" ry="4"/>
<polygon fill="#5c8495" stroke="#5c8495" points="370.3495,-494.1283 365.7091,-504.0639 370.2791,-499.1278 370.2086,-504.1273 370.2086,-504.1273 370.2086,-504.1273 370.2791,-499.1278 374.7082,-504.1907 370.3495,-494.1283 370.3495,-494.1283"/>
</g>
</g>
</svg>
