<?xml version="1.0" encoding="UTF-8" standalone="no"?>
<!DOCTYPE svg PUBLIC "-//W3C//DTD SVG 1.1//EN"
 "http://www.w3.org/Graphics/SVG/1.1/DTD/svg11.dtd">
<!-- Generated by graphviz version 2.40.1 (20161225.0304)
 -->
<!-- Title: controllers_diagram Pages: 1 -->
<svg width="266pt" height="103pt"
 viewBox="0.00 0.00 266.00 103.00" xmlns="http://www.w3.org/2000/svg" xmlns:xlink="http://www.w3.org/1999/xlink">
<g id="graph0" class="graph" transform="scale(1 1) rotate(0) translate(4 99)">
<title>controllers_diagram</title>
<polygon fill="transparent" stroke="transparent" points="-4,4 -4,-99 262,-99 262,4 -4,4"/>
<!-- ApplicationController -->
<g id="node1" class="node">
<title>ApplicationController</title>
<path fill="none" stroke="#000000" d="M12,-.5C12,-.5 124,-.5 124,-.5 130,-.5 136,-6.5 136,-12.5 136,-12.5 136,-82.5 136,-82.5 136,-88.5 130,-94.5 124,-94.5 124,-94.5 12,-94.5 12,-94.5 6,-94.5 0,-88.5 0,-82.5 0,-82.5 0,-12.5 0,-12.5 0,-6.5 6,-.5 12,-.5"/>
<text text-anchor="middle" x="68" y="-79.3" font-family="Times,serif" font-size="14.00" fill="#000000">ApplicationController</text>
<polyline fill="none" stroke="#000000" points="0,-71.5 136,-71.5 "/>
<polyline fill="none" stroke="#000000" points="0,-47.5 136,-47.5 "/>
<polyline fill="none" stroke="#000000" points="0,-23.5 136,-23.5 "/>
<text text-anchor="start" x="8" y="-8.3" font-family="Times,serif" font-size="14.00" fill="#000000">_layout</text>
</g>
<!-- PagesController -->
<g id="node2" class="node">
<title>PagesController</title>
<path fill="none" stroke="#000000" d="M166,-1C166,-1 246,-1 246,-1 252,-1 258,-7 258,-13 258,-13 258,-82 258,-82 258,-88 252,-94 246,-94 246,-94 166,-94 166,-94 160,-94 154,-88 154,-82 154,-82 154,-13 154,-13 154,-7 160,-1 166,-1"/>
<text text-anchor="middle" x="206" y="-78.8" font-family="Times,serif" font-size="14.00" fill="#000000">PagesController</text>
<polyline fill="none" stroke="#000000" points="154,-71 258,-71 "/>
<text text-anchor="start" x="162" y="-55.8" font-family="Times,serif" font-size="14.00" fill="#000000">home</text>
<polyline fill="none" stroke="#000000" points="154,-48 258,-48 "/>
<polyline fill="none" stroke="#000000" points="154,-24 258,-24 "/>
<text text-anchor="start" x="162" y="-8.8" font-family="Times,serif" font-size="14.00" fill="#000000">_layout</text>
</g>
</g>
</svg>
