<?xml version="1.0" encoding="UTF-8" standalone="no"?>
<!DOCTYPE svg PUBLIC "-//W3C//DTD SVG 1.1//EN"
 "http://www.w3.org/Graphics/SVG/1.1/DTD/svg11.dtd">
<!-- Generated by graphviz version 2.40.1 (20161225.0304)
 -->
<!-- Title: models_diagram Pages: 1 -->
<svg width="796pt" height="476pt"
 viewBox="0.00 0.00 796.34 476.00" xmlns="http://www.w3.org/2000/svg" xmlns:xlink="http://www.w3.org/1999/xlink">
<g id="graph0" class="graph" transform="scale(1 1) rotate(0) translate(4 472)">
<title>models_diagram</title>
<polygon fill="transparent" stroke="transparent" points="-4,4 -4,-472 792.3431,-472 792.3431,4 -4,4"/>
<!-- ApplicationRecord -->
<g id="node1" class="node">
<title>ApplicationRecord</title>
<ellipse fill="none" stroke="#000000" cx="77.3431" cy="-392" rx="77.1866" ry="18"/>
<text text-anchor="middle" x="77.3431" y="-388.3" font-family="Times,serif" font-size="14.00" fill="#000000">ApplicationRecord</text>
</g>
<!-- Item -->
<g id="node2" class="node">
<title>Item</title>
<path fill="none" stroke="#000000" d="M294.3431,-.5C294.3431,-.5 514.3431,-.5 514.3431,-.5 520.3431,-.5 526.3431,-6.5 526.3431,-12.5 526.3431,-12.5 526.3431,-139.5 526.3431,-139.5 526.3431,-145.5 520.3431,-151.5 514.3431,-151.5 514.3431,-151.5 294.3431,-151.5 294.3431,-151.5 288.3431,-151.5 282.3431,-145.5 282.3431,-139.5 282.3431,-139.5 282.3431,-12.5 282.3431,-12.5 282.3431,-6.5 288.3431,-.5 294.3431,-.5"/>
<text text-anchor="middle" x="404.3431" y="-136.3" font-family="Times,serif" font-size="14.00" fill="#000000">Item</text>
<polyline fill="none" stroke="#000000" points="282.3431,-128.5 526.3431,-128.5 "/>
<text text-anchor="start" x="290.3431" y="-113.3" font-family="Times,serif" font-size="14.00" fill="#000000">id :bigint</text>
<text text-anchor="start" x="290.3431" y="-98.3" font-family="Times,serif" font-size="14.00" fill="#000000">category :character varying</text>
<text text-anchor="start" x="290.3431" y="-83.3" font-family="Times,serif" font-size="14.00" fill="#000000">color :character varying</text>
<text text-anchor="start" x="290.3431" y="-68.3" font-family="Times,serif" font-size="14.00" fill="#000000">outfit_id :bigint</text>
<text text-anchor="start" x="290.3431" y="-53.3" font-family="Times,serif" font-size="14.00" fill="#000000">style_id :bigint</text>
<text text-anchor="start" x="290.3431" y="-38.3" font-family="Times,serif" font-size="14.00" fill="#000000">user_id :bigint</text>
<text text-anchor="start" x="290.3431" y="-23.3" font-family="Times,serif" font-size="14.00" fill="#000000">created_at :timestamp without time zone</text>
<text text-anchor="start" x="290.3431" y="-8.3" font-family="Times,serif" font-size="14.00" fill="#000000">updated_at :timestamp without time zone</text>
</g>
<!-- Outfit -->
<g id="node3" class="node">
<title>Outfit</title>
<path fill="none" stroke="#000000" d="M294.3431,-188.5C294.3431,-188.5 514.3431,-188.5 514.3431,-188.5 520.3431,-188.5 526.3431,-194.5 526.3431,-200.5 526.3431,-200.5 526.3431,-267.5 526.3431,-267.5 526.3431,-273.5 520.3431,-279.5 514.3431,-279.5 514.3431,-279.5 294.3431,-279.5 294.3431,-279.5 288.3431,-279.5 282.3431,-273.5 282.3431,-267.5 282.3431,-267.5 282.3431,-200.5 282.3431,-200.5 282.3431,-194.5 288.3431,-188.5 294.3431,-188.5"/>
<text text-anchor="middle" x="404.3431" y="-264.3" font-family="Times,serif" font-size="14.00" fill="#000000">Outfit</text>
<polyline fill="none" stroke="#000000" points="282.3431,-256.5 526.3431,-256.5 "/>
<text text-anchor="start" x="290.3431" y="-241.3" font-family="Times,serif" font-size="14.00" fill="#000000">id :bigint</text>
<text text-anchor="start" x="290.3431" y="-226.3" font-family="Times,serif" font-size="14.00" fill="#000000">user_id :bigint</text>
<text text-anchor="start" x="290.3431" y="-211.3" font-family="Times,serif" font-size="14.00" fill="#000000">created_at :timestamp without time zone</text>
<text text-anchor="start" x="290.3431" y="-196.3" font-family="Times,serif" font-size="14.00" fill="#000000">updated_at :timestamp without time zone</text>
</g>
<!-- Outfit&#45;&gt;Item -->
<g id="edge1" class="edge">
<title>Outfit&#45;&gt;Item</title>
<path fill="none" stroke="#7ec483" d="M404.3431,-180.0523C404.3431,-174.1897 404.3431,-168.1217 404.3431,-161.9972"/>
<ellipse fill="none" stroke="#7ec483" cx="404.3432" cy="-184.2999" rx="4" ry="4"/>
<polygon fill="#7ec483" stroke="#7ec483" points="404.3432,-161.663 408.8431,-151.663 404.3432,-156.663 404.3431,-151.663 404.3431,-151.663 404.3431,-151.663 404.3432,-156.663 399.8431,-151.6631 404.3432,-161.663 404.3432,-161.663"/>
</g>
<!-- Style -->
<g id="node4" class="node">
<title>Style</title>
<path fill="none" stroke="#000000" d="M556.3431,-188.5C556.3431,-188.5 776.3431,-188.5 776.3431,-188.5 782.3431,-188.5 788.3431,-194.5 788.3431,-200.5 788.3431,-200.5 788.3431,-267.5 788.3431,-267.5 788.3431,-273.5 782.3431,-279.5 776.3431,-279.5 776.3431,-279.5 556.3431,-279.5 556.3431,-279.5 550.3431,-279.5 544.3431,-273.5 544.3431,-267.5 544.3431,-267.5 544.3431,-200.5 544.3431,-200.5 544.3431,-194.5 550.3431,-188.5 556.3431,-188.5"/>
<text text-anchor="middle" x="666.3431" y="-264.3" font-family="Times,serif" font-size="14.00" fill="#000000">Style</text>
<polyline fill="none" stroke="#000000" points="544.3431,-256.5 788.3431,-256.5 "/>
<text text-anchor="start" x="552.3431" y="-241.3" font-family="Times,serif" font-size="14.00" fill="#000000">id :bigint</text>
<text text-anchor="start" x="552.3431" y="-226.3" font-family="Times,serif" font-size="14.00" fill="#000000">name :character varying</text>
<text text-anchor="start" x="552.3431" y="-211.3" font-family="Times,serif" font-size="14.00" fill="#000000">created_at :timestamp without time zone</text>
<text text-anchor="start" x="552.3431" y="-196.3" font-family="Times,serif" font-size="14.00" fill="#000000">updated_at :timestamp without time zone</text>
</g>
<!-- Style&#45;&gt;Item -->
<g id="edge2" class="edge">
<title>Style&#45;&gt;Item</title>
<path fill="none" stroke="#f08573" d="M583.4119,-183.988C567.9524,-174.6651 551.456,-164.7169 534.9675,-154.7735"/>
<ellipse fill="none" stroke="#f08573" cx="587.1365" cy="-186.2342" rx="4" ry="4"/>
<polygon fill="#f08573" stroke="#f08573" points="534.9148,-154.7417 528.6753,-145.724 530.6331,-152.1596 526.3514,-149.5775 526.3514,-149.5775 526.3514,-149.5775 530.6331,-152.1596 524.0275,-153.431 534.9148,-154.7417 534.9148,-154.7417"/>
</g>
<!-- User -->
<g id="node5" class="node">
<title>User</title>
<path fill="none" stroke="#000000" d="M184.8431,-316.5C184.8431,-316.5 473.8431,-316.5 473.8431,-316.5 479.8431,-316.5 485.8431,-322.5 485.8431,-328.5 485.8431,-328.5 485.8431,-455.5 485.8431,-455.5 485.8431,-461.5 479.8431,-467.5 473.8431,-467.5 473.8431,-467.5 184.8431,-467.5 184.8431,-467.5 178.8431,-467.5 172.8431,-461.5 172.8431,-455.5 172.8431,-455.5 172.8431,-328.5 172.8431,-328.5 172.8431,-322.5 178.8431,-316.5 184.8431,-316.5"/>
<text text-anchor="middle" x="329.3431" y="-452.3" font-family="Times,serif" font-size="14.00" fill="#000000">User</text>
<polyline fill="none" stroke="#000000" points="172.8431,-444.5 485.8431,-444.5 "/>
<text text-anchor="start" x="180.8431" y="-429.3" font-family="Times,serif" font-size="14.00" fill="#000000">id :bigint</text>
<text text-anchor="start" x="180.8431" y="-414.3" font-family="Times,serif" font-size="14.00" fill="#000000">email :character varying</text>
<text text-anchor="start" x="180.8431" y="-399.3" font-family="Times,serif" font-size="14.00" fill="#000000">encrypted_password :character varying</text>
<text text-anchor="start" x="180.8431" y="-384.3" font-family="Times,serif" font-size="14.00" fill="#000000">reset_password_token :character varying</text>
<text text-anchor="start" x="180.8431" y="-369.3" font-family="Times,serif" font-size="14.00" fill="#000000">reset_password_sent_at :timestamp without time zone</text>
<text text-anchor="start" x="180.8431" y="-354.3" font-family="Times,serif" font-size="14.00" fill="#000000">remember_created_at :timestamp without time zone</text>
<text text-anchor="start" x="180.8431" y="-339.3" font-family="Times,serif" font-size="14.00" fill="#000000">created_at :timestamp without time zone</text>
<text text-anchor="start" x="180.8431" y="-324.3" font-family="Times,serif" font-size="14.00" fill="#000000">updated_at :timestamp without time zone</text>
</g>
<!-- User&#45;&gt;Item -->
<g id="edge4" class="edge">
<title>User&#45;&gt;Item</title>
<path fill="none" stroke="#c284ca" d="M280.751,-308.8055C265.0737,-270.9338 255.7665,-226.1522 273.3431,-188 277.9443,-178.0125 283.9241,-168.5845 290.7919,-159.761"/>
<ellipse fill="none" stroke="#c284ca" cx="282.3858" cy="-312.6087" rx="4" ry="4"/>
<polygon fill="#c284ca" stroke="#c284ca" points="290.9714,-159.5435 300.806,-154.6926 294.153,-155.6863 297.3346,-151.8292 297.3346,-151.8292 297.3346,-151.8292 294.153,-155.6863 293.8631,-148.9657 290.9714,-159.5435 290.9714,-159.5435"/>
</g>
<!-- User&#45;&gt;Outfit -->
<g id="edge3" class="edge">
<title>User&#45;&gt;Outfit</title>
<path fill="none" stroke="#5ed240" d="M368.7873,-308.9043C371.9973,-302.142 375.1882,-295.4198 378.2656,-288.9366"/>
<ellipse fill="none" stroke="#5ed240" cx="367.0208" cy="-312.6259" rx="4" ry="4"/>
<polygon fill="#5ed240" stroke="#5ed240" points="378.394,-288.6661 386.7475,-281.562 380.5381,-284.1492 382.6823,-279.6322 382.6823,-279.6322 382.6823,-279.6322 380.5381,-284.1492 378.617,-277.7025 378.394,-288.6661 378.394,-288.6661"/>
</g>
</g>
</svg>
