<?xml version="1.0" encoding="UTF-8" standalone="no"?>
<!DOCTYPE svg PUBLIC "-//W3C//DTD SVG 1.1//EN"
 "http://www.w3.org/Graphics/SVG/1.1/DTD/svg11.dtd">
<!-- Generated by graphviz version 2.40.1 (20161225.0304)
 -->
<!-- Title: models_diagram Pages: 1 -->
<svg width="2852pt" height="220pt"
 viewBox="0.00 0.00 2851.84 220.00" xmlns="http://www.w3.org/2000/svg" xmlns:xlink="http://www.w3.org/1999/xlink">
<g id="graph0" class="graph" transform="scale(1 1) rotate(0) translate(4 216)">
<title>models_diagram</title>
<polygon fill="transparent" stroke="transparent" points="-4,4 -4,-216 2847.8431,-216 2847.8431,4 -4,4"/>
<!-- ApplicationRecord -->
<g id="node1" class="node">
<title>ApplicationRecord</title>
<ellipse fill="none" stroke="#000000" cx="77.3431" cy="-106" rx="77.1866" ry="18"/>
<text text-anchor="middle" x="77.3431" y="-102.3" font-family="Times,serif" font-size="14.00" fill="#000000">ApplicationRecord</text>
</g>
<!-- City -->
<g id="node2" class="node">
<title>City</title>
<path fill="none" stroke="#000000" d="M184.3431,-53C184.3431,-53 404.3431,-53 404.3431,-53 410.3431,-53 416.3431,-59 416.3431,-65 416.3431,-65 416.3431,-147 416.3431,-147 416.3431,-153 410.3431,-159 404.3431,-159 404.3431,-159 184.3431,-159 184.3431,-159 178.3431,-159 172.3431,-153 172.3431,-147 172.3431,-147 172.3431,-65 172.3431,-65 172.3431,-59 178.3431,-53 184.3431,-53"/>
<text text-anchor="middle" x="294.3431" y="-143.8" font-family="Times,serif" font-size="14.00" fill="#000000">City</text>
<polyline fill="none" stroke="#000000" points="172.3431,-136 416.3431,-136 "/>
<text text-anchor="start" x="180.3431" y="-120.8" font-family="Times,serif" font-size="14.00" fill="#000000">id :bigint</text>
<text text-anchor="start" x="180.3431" y="-105.8" font-family="Times,serif" font-size="14.00" fill="#000000">name :character varying</text>
<text text-anchor="start" x="180.3431" y="-90.8" font-family="Times,serif" font-size="14.00" fill="#000000">state_province_id :bigint</text>
<text text-anchor="start" x="180.3431" y="-75.8" font-family="Times,serif" font-size="14.00" fill="#000000">created_at :timestamp without time zone</text>
<text text-anchor="start" x="180.3431" y="-60.8" font-family="Times,serif" font-size="14.00" fill="#000000">updated_at :timestamp without time zone</text>
</g>
<!-- FavouriteRoute -->
<g id="node3" class="node">
<title>FavouriteRoute</title>
<path fill="none" stroke="#000000" d="M446.3431,-53C446.3431,-53 666.3431,-53 666.3431,-53 672.3431,-53 678.3431,-59 678.3431,-65 678.3431,-65 678.3431,-147 678.3431,-147 678.3431,-153 672.3431,-159 666.3431,-159 666.3431,-159 446.3431,-159 446.3431,-159 440.3431,-159 434.3431,-153 434.3431,-147 434.3431,-147 434.3431,-65 434.3431,-65 434.3431,-59 440.3431,-53 446.3431,-53"/>
<text text-anchor="middle" x="556.3431" y="-143.8" font-family="Times,serif" font-size="14.00" fill="#000000">FavouriteRoute</text>
<polyline fill="none" stroke="#000000" points="434.3431,-136 678.3431,-136 "/>
<text text-anchor="start" x="442.3431" y="-120.8" font-family="Times,serif" font-size="14.00" fill="#000000">id :bigint</text>
<text text-anchor="start" x="442.3431" y="-105.8" font-family="Times,serif" font-size="14.00" fill="#000000">route_id :bigint</text>
<text text-anchor="start" x="442.3431" y="-90.8" font-family="Times,serif" font-size="14.00" fill="#000000">user_id :bigint</text>
<text text-anchor="start" x="442.3431" y="-75.8" font-family="Times,serif" font-size="14.00" fill="#000000">created_at :timestamp without time zone</text>
<text text-anchor="start" x="442.3431" y="-60.8" font-family="Times,serif" font-size="14.00" fill="#000000">updated_at :timestamp without time zone</text>
</g>
<!-- Imageable -->
<g id="node4" class="node">
<title>Imageable</title>
<path fill="none" stroke="#000000" d="M708.3431,-45.5C708.3431,-45.5 928.3431,-45.5 928.3431,-45.5 934.3431,-45.5 940.3431,-51.5 940.3431,-57.5 940.3431,-57.5 940.3431,-154.5 940.3431,-154.5 940.3431,-160.5 934.3431,-166.5 928.3431,-166.5 928.3431,-166.5 708.3431,-166.5 708.3431,-166.5 702.3431,-166.5 696.3431,-160.5 696.3431,-154.5 696.3431,-154.5 696.3431,-57.5 696.3431,-57.5 696.3431,-51.5 702.3431,-45.5 708.3431,-45.5"/>
<text text-anchor="middle" x="818.3431" y="-151.3" font-family="Times,serif" font-size="14.00" fill="#000000">Imageable</text>
<polyline fill="none" stroke="#000000" points="696.3431,-143.5 940.3431,-143.5 "/>
<text text-anchor="start" x="704.3431" y="-128.3" font-family="Times,serif" font-size="14.00" fill="#000000">id :bigint</text>
<text text-anchor="start" x="704.3431" y="-113.3" font-family="Times,serif" font-size="14.00" fill="#000000">imageable_type :character varying</text>
<text text-anchor="start" x="704.3431" y="-98.3" font-family="Times,serif" font-size="14.00" fill="#000000">imageable_id :bigint</text>
<text text-anchor="start" x="704.3431" y="-83.3" font-family="Times,serif" font-size="14.00" fill="#000000">photo :character varying</text>
<text text-anchor="start" x="704.3431" y="-68.3" font-family="Times,serif" font-size="14.00" fill="#000000">created_at :timestamp without time zone</text>
<text text-anchor="start" x="704.3431" y="-53.3" font-family="Times,serif" font-size="14.00" fill="#000000">updated_at :timestamp without time zone</text>
</g>
<!-- Reviewable -->
<g id="node5" class="node">
<title>Reviewable</title>
<path fill="none" stroke="#000000" d="M970.3431,-23C970.3431,-23 1190.3431,-23 1190.3431,-23 1196.3431,-23 1202.3431,-29 1202.3431,-35 1202.3431,-35 1202.3431,-177 1202.3431,-177 1202.3431,-183 1196.3431,-189 1190.3431,-189 1190.3431,-189 970.3431,-189 970.3431,-189 964.3431,-189 958.3431,-183 958.3431,-177 958.3431,-177 958.3431,-35 958.3431,-35 958.3431,-29 964.3431,-23 970.3431,-23"/>
<text text-anchor="middle" x="1080.3431" y="-173.8" font-family="Times,serif" font-size="14.00" fill="#000000">Reviewable</text>
<polyline fill="none" stroke="#000000" points="958.3431,-166 1202.3431,-166 "/>
<text text-anchor="start" x="966.3431" y="-150.8" font-family="Times,serif" font-size="14.00" fill="#000000">id :bigint</text>
<text text-anchor="start" x="966.3431" y="-135.8" font-family="Times,serif" font-size="14.00" fill="#000000">user_id :bigint</text>
<text text-anchor="start" x="966.3431" y="-120.8" font-family="Times,serif" font-size="14.00" fill="#000000">reviewable_type :character varying</text>
<text text-anchor="start" x="966.3431" y="-105.8" font-family="Times,serif" font-size="14.00" fill="#000000">reviewable_id :bigint</text>
<text text-anchor="start" x="966.3431" y="-90.8" font-family="Times,serif" font-size="14.00" fill="#000000">title :character varying</text>
<text text-anchor="start" x="966.3431" y="-75.8" font-family="Times,serif" font-size="14.00" fill="#000000">description :text</text>
<text text-anchor="start" x="966.3431" y="-60.8" font-family="Times,serif" font-size="14.00" fill="#000000">rating :integer</text>
<text text-anchor="start" x="966.3431" y="-45.8" font-family="Times,serif" font-size="14.00" fill="#000000">created_at :timestamp without time zone</text>
<text text-anchor="start" x="966.3431" y="-30.8" font-family="Times,serif" font-size="14.00" fill="#000000">updated_at :timestamp without time zone</text>
</g>
<!-- Route -->
<g id="node6" class="node">
<title>Route</title>
<path fill="none" stroke="#000000" d="M1232.3431,-.5C1232.3431,-.5 1452.3431,-.5 1452.3431,-.5 1458.3431,-.5 1464.3431,-6.5 1464.3431,-12.5 1464.3431,-12.5 1464.3431,-199.5 1464.3431,-199.5 1464.3431,-205.5 1458.3431,-211.5 1452.3431,-211.5 1452.3431,-211.5 1232.3431,-211.5 1232.3431,-211.5 1226.3431,-211.5 1220.3431,-205.5 1220.3431,-199.5 1220.3431,-199.5 1220.3431,-12.5 1220.3431,-12.5 1220.3431,-6.5 1226.3431,-.5 1232.3431,-.5"/>
<text text-anchor="middle" x="1342.3431" y="-196.3" font-family="Times,serif" font-size="14.00" fill="#000000">Route</text>
<polyline fill="none" stroke="#000000" points="1220.3431,-188.5 1464.3431,-188.5 "/>
<text text-anchor="start" x="1228.3431" y="-173.3" font-family="Times,serif" font-size="14.00" fill="#000000">id :bigint</text>
<text text-anchor="start" x="1228.3431" y="-158.3" font-family="Times,serif" font-size="14.00" fill="#000000">name :character varying</text>
<text text-anchor="start" x="1228.3431" y="-143.3" font-family="Times,serif" font-size="14.00" fill="#000000">longitude :double precision</text>
<text text-anchor="start" x="1228.3431" y="-128.3" font-family="Times,serif" font-size="14.00" fill="#000000">latitude :double precision</text>
<text text-anchor="start" x="1228.3431" y="-113.3" font-family="Times,serif" font-size="14.00" fill="#000000">description :text</text>
<text text-anchor="start" x="1228.3431" y="-98.3" font-family="Times,serif" font-size="14.00" fill="#000000">type :character varying</text>
<text text-anchor="start" x="1228.3431" y="-83.3" font-family="Times,serif" font-size="14.00" fill="#000000">style :character varying</text>
<text text-anchor="start" x="1228.3431" y="-68.3" font-family="Times,serif" font-size="14.00" fill="#000000">level :character varying</text>
<text text-anchor="start" x="1228.3431" y="-53.3" font-family="Times,serif" font-size="14.00" fill="#000000">rating :integer</text>
<text text-anchor="start" x="1228.3431" y="-38.3" font-family="Times,serif" font-size="14.00" fill="#000000">created_at :timestamp without time zone</text>
<text text-anchor="start" x="1228.3431" y="-23.3" font-family="Times,serif" font-size="14.00" fill="#000000">updated_at :timestamp without time zone</text>
<text text-anchor="start" x="1228.3431" y="-8.3" font-family="Times,serif" font-size="14.00" fill="#000000">user_id :bigint</text>
</g>
<!-- RouteTrip -->
<g id="node7" class="node">
<title>RouteTrip</title>
<path fill="none" stroke="#000000" d="M1494.3431,-53C1494.3431,-53 1714.3431,-53 1714.3431,-53 1720.3431,-53 1726.3431,-59 1726.3431,-65 1726.3431,-65 1726.3431,-147 1726.3431,-147 1726.3431,-153 1720.3431,-159 1714.3431,-159 1714.3431,-159 1494.3431,-159 1494.3431,-159 1488.3431,-159 1482.3431,-153 1482.3431,-147 1482.3431,-147 1482.3431,-65 1482.3431,-65 1482.3431,-59 1488.3431,-53 1494.3431,-53"/>
<text text-anchor="middle" x="1604.3431" y="-143.8" font-family="Times,serif" font-size="14.00" fill="#000000">RouteTrip</text>
<polyline fill="none" stroke="#000000" points="1482.3431,-136 1726.3431,-136 "/>
<text text-anchor="start" x="1490.3431" y="-120.8" font-family="Times,serif" font-size="14.00" fill="#000000">id :bigint</text>
<text text-anchor="start" x="1490.3431" y="-105.8" font-family="Times,serif" font-size="14.00" fill="#000000">route_id :bigint</text>
<text text-anchor="start" x="1490.3431" y="-90.8" font-family="Times,serif" font-size="14.00" fill="#000000">trip_id :bigint</text>
<text text-anchor="start" x="1490.3431" y="-75.8" font-family="Times,serif" font-size="14.00" fill="#000000">created_at :timestamp without time zone</text>
<text text-anchor="start" x="1490.3431" y="-60.8" font-family="Times,serif" font-size="14.00" fill="#000000">updated_at :timestamp without time zone</text>
</g>
<!-- Site -->
<g id="node8" class="node">
<title>Site</title>
<path fill="none" stroke="#000000" d="M1756.3431,-53C1756.3431,-53 1976.3431,-53 1976.3431,-53 1982.3431,-53 1988.3431,-59 1988.3431,-65 1988.3431,-65 1988.3431,-147 1988.3431,-147 1988.3431,-153 1982.3431,-159 1976.3431,-159 1976.3431,-159 1756.3431,-159 1756.3431,-159 1750.3431,-159 1744.3431,-153 1744.3431,-147 1744.3431,-147 1744.3431,-65 1744.3431,-65 1744.3431,-59 1750.3431,-53 1756.3431,-53"/>
<text text-anchor="middle" x="1866.3431" y="-143.8" font-family="Times,serif" font-size="14.00" fill="#000000">Site</text>
<polyline fill="none" stroke="#000000" points="1744.3431,-136 1988.3431,-136 "/>
<text text-anchor="start" x="1752.3431" y="-120.8" font-family="Times,serif" font-size="14.00" fill="#000000">id :bigint</text>
<text text-anchor="start" x="1752.3431" y="-105.8" font-family="Times,serif" font-size="14.00" fill="#000000">city_id :bigint</text>
<text text-anchor="start" x="1752.3431" y="-90.8" font-family="Times,serif" font-size="14.00" fill="#000000">name :character varying</text>
<text text-anchor="start" x="1752.3431" y="-75.8" font-family="Times,serif" font-size="14.00" fill="#000000">created_at :timestamp without time zone</text>
<text text-anchor="start" x="1752.3431" y="-60.8" font-family="Times,serif" font-size="14.00" fill="#000000">updated_at :timestamp without time zone</text>
</g>
<!-- StateProvince -->
<g id="node9" class="node">
<title>StateProvince</title>
<path fill="none" stroke="#000000" d="M2018.3431,-60.5C2018.3431,-60.5 2238.3431,-60.5 2238.3431,-60.5 2244.3431,-60.5 2250.3431,-66.5 2250.3431,-72.5 2250.3431,-72.5 2250.3431,-139.5 2250.3431,-139.5 2250.3431,-145.5 2244.3431,-151.5 2238.3431,-151.5 2238.3431,-151.5 2018.3431,-151.5 2018.3431,-151.5 2012.3431,-151.5 2006.3431,-145.5 2006.3431,-139.5 2006.3431,-139.5 2006.3431,-72.5 2006.3431,-72.5 2006.3431,-66.5 2012.3431,-60.5 2018.3431,-60.5"/>
<text text-anchor="middle" x="2128.3431" y="-136.3" font-family="Times,serif" font-size="14.00" fill="#000000">StateProvince</text>
<polyline fill="none" stroke="#000000" points="2006.3431,-128.5 2250.3431,-128.5 "/>
<text text-anchor="start" x="2014.3431" y="-113.3" font-family="Times,serif" font-size="14.00" fill="#000000">id :bigint</text>
<text text-anchor="start" x="2014.3431" y="-98.3" font-family="Times,serif" font-size="14.00" fill="#000000">name :character varying</text>
<text text-anchor="start" x="2014.3431" y="-83.3" font-family="Times,serif" font-size="14.00" fill="#000000">created_at :timestamp without time zone</text>
<text text-anchor="start" x="2014.3431" y="-68.3" font-family="Times,serif" font-size="14.00" fill="#000000">updated_at :timestamp without time zone</text>
</g>
<!-- Trip -->
<g id="node10" class="node">
<title>Trip</title>
<path fill="none" stroke="#000000" d="M2280.3431,-38C2280.3431,-38 2500.3431,-38 2500.3431,-38 2506.3431,-38 2512.3431,-44 2512.3431,-50 2512.3431,-50 2512.3431,-162 2512.3431,-162 2512.3431,-168 2506.3431,-174 2500.3431,-174 2500.3431,-174 2280.3431,-174 2280.3431,-174 2274.3431,-174 2268.3431,-168 2268.3431,-162 2268.3431,-162 2268.3431,-50 2268.3431,-50 2268.3431,-44 2274.3431,-38 2280.3431,-38"/>
<text text-anchor="middle" x="2390.3431" y="-158.8" font-family="Times,serif" font-size="14.00" fill="#000000">Trip</text>
<polyline fill="none" stroke="#000000" points="2268.3431,-151 2512.3431,-151 "/>
<text text-anchor="start" x="2276.3431" y="-135.8" font-family="Times,serif" font-size="14.00" fill="#000000">id :bigint</text>
<text text-anchor="start" x="2276.3431" y="-120.8" font-family="Times,serif" font-size="14.00" fill="#000000">start_date :character varying</text>
<text text-anchor="start" x="2276.3431" y="-105.8" font-family="Times,serif" font-size="14.00" fill="#000000">end_date :character varying</text>
<text text-anchor="start" x="2276.3431" y="-90.8" font-family="Times,serif" font-size="14.00" fill="#000000">weather :character varying</text>
<text text-anchor="start" x="2276.3431" y="-75.8" font-family="Times,serif" font-size="14.00" fill="#000000">created_at :timestamp without time zone</text>
<text text-anchor="start" x="2276.3431" y="-60.8" font-family="Times,serif" font-size="14.00" fill="#000000">updated_at :timestamp without time zone</text>
<text text-anchor="start" x="2276.3431" y="-45.8" font-family="Times,serif" font-size="14.00" fill="#000000">user_id :bigint</text>
</g>
<!-- User -->
<g id="node11" class="node">
<title>User</title>
<path fill="none" stroke="#000000" d="M2542.8431,-23C2542.8431,-23 2831.8431,-23 2831.8431,-23 2837.8431,-23 2843.8431,-29 2843.8431,-35 2843.8431,-35 2843.8431,-177 2843.8431,-177 2843.8431,-183 2837.8431,-189 2831.8431,-189 2831.8431,-189 2542.8431,-189 2542.8431,-189 2536.8431,-189 2530.8431,-183 2530.8431,-177 2530.8431,-177 2530.8431,-35 2530.8431,-35 2530.8431,-29 2536.8431,-23 2542.8431,-23"/>
<text text-anchor="middle" x="2687.3431" y="-173.8" font-family="Times,serif" font-size="14.00" fill="#000000">User</text>
<polyline fill="none" stroke="#000000" points="2530.8431,-166 2843.8431,-166 "/>
<text text-anchor="start" x="2538.8431" y="-150.8" font-family="Times,serif" font-size="14.00" fill="#000000">id :bigint</text>
<text text-anchor="start" x="2538.8431" y="-135.8" font-family="Times,serif" font-size="14.00" fill="#000000">email :character varying</text>
<text text-anchor="start" x="2538.8431" y="-120.8" font-family="Times,serif" font-size="14.00" fill="#000000">encrypted_password :character varying</text>
<text text-anchor="start" x="2538.8431" y="-105.8" font-family="Times,serif" font-size="14.00" fill="#000000">reset_password_token :character varying</text>
<text text-anchor="start" x="2538.8431" y="-90.8" font-family="Times,serif" font-size="14.00" fill="#000000">reset_password_sent_at :timestamp without time zone</text>
<text text-anchor="start" x="2538.8431" y="-75.8" font-family="Times,serif" font-size="14.00" fill="#000000">remember_created_at :timestamp without time zone</text>
<text text-anchor="start" x="2538.8431" y="-60.8" font-family="Times,serif" font-size="14.00" fill="#000000">created_at :timestamp without time zone</text>
<text text-anchor="start" x="2538.8431" y="-45.8" font-family="Times,serif" font-size="14.00" fill="#000000">updated_at :timestamp without time zone</text>
<text text-anchor="start" x="2538.8431" y="-30.8" font-family="Times,serif" font-size="14.00" fill="#000000">route_setter :boolean</text>
</g>
</g>
</svg>
