<?xml version="1.0" encoding="UTF-8" standalone="no"?>
<!DOCTYPE svg PUBLIC "-//W3C//DTD SVG 1.1//EN"
 "http://www.w3.org/Graphics/SVG/1.1/DTD/svg11.dtd">
<!-- Generated by graphviz version 2.40.1 (20161225.0304)
 -->
<!-- Title: controllers_diagram Pages: 1 -->
<svg width="564pt" height="162pt"
 viewBox="0.00 0.00 564.00 162.00" xmlns="http://www.w3.org/2000/svg" xmlns:xlink="http://www.w3.org/1999/xlink">
<g id="graph0" class="graph" transform="scale(1 1) rotate(0) translate(4 158)">
<title>controllers_diagram</title>
<polygon fill="transparent" stroke="transparent" points="-4,4 -4,-158 560,-158 560,4 -4,4"/>
<!-- ApplicationController -->
<g id="node1" class="node">
<title>ApplicationController</title>
<path fill="none" stroke="#000000" d="M12,-30C12,-30 124,-30 124,-30 130,-30 136,-36 136,-42 136,-42 136,-112 136,-112 136,-118 130,-124 124,-124 124,-124 12,-124 12,-124 6,-124 0,-118 0,-112 0,-112 0,-42 0,-42 0,-36 6,-30 12,-30"/>
<text text-anchor="middle" x="68" y="-108.8" font-family="Times,serif" font-size="14.00" fill="#000000">ApplicationController</text>
<polyline fill="none" stroke="#000000" points="0,-101 136,-101 "/>
<polyline fill="none" stroke="#000000" points="0,-77 136,-77 "/>
<polyline fill="none" stroke="#000000" points="0,-53 136,-53 "/>
<text text-anchor="start" x="8" y="-37.8" font-family="Times,serif" font-size="14.00" fill="#000000">_layout</text>
</g>
<!-- PagesController -->
<g id="node2" class="node">
<title>PagesController</title>
<path fill="none" stroke="#000000" d="M166,-23C166,-23 246,-23 246,-23 252,-23 258,-29 258,-35 258,-35 258,-119 258,-119 258,-125 252,-131 246,-131 246,-131 166,-131 166,-131 160,-131 154,-125 154,-119 154,-119 154,-35 154,-35 154,-29 160,-23 166,-23"/>
<text text-anchor="middle" x="206" y="-115.8" font-family="Times,serif" font-size="14.00" fill="#000000">PagesController</text>
<polyline fill="none" stroke="#000000" points="154,-108 258,-108 "/>
<text text-anchor="start" x="162" y="-92.8" font-family="Times,serif" font-size="14.00" fill="#000000">dashboard</text>
<text text-anchor="start" x="162" y="-77.8" font-family="Times,serif" font-size="14.00" fill="#000000">home</text>
<polyline fill="none" stroke="#000000" points="154,-70 258,-70 "/>
<polyline fill="none" stroke="#000000" points="154,-46 258,-46 "/>
<text text-anchor="start" x="162" y="-30.8" font-family="Times,serif" font-size="14.00" fill="#000000">_layout</text>
</g>
<!-- UserParamController -->
<g id="node3" class="node">
<title>UserParamController</title>
<path fill="none" stroke="#000000" d="M288.5,-30C288.5,-30 397.5,-30 397.5,-30 403.5,-30 409.5,-36 409.5,-42 409.5,-42 409.5,-112 409.5,-112 409.5,-118 403.5,-124 397.5,-124 397.5,-124 288.5,-124 288.5,-124 282.5,-124 276.5,-118 276.5,-112 276.5,-112 276.5,-42 276.5,-42 276.5,-36 282.5,-30 288.5,-30"/>
<text text-anchor="middle" x="343" y="-108.8" font-family="Times,serif" font-size="14.00" fill="#000000">UserParamController</text>
<polyline fill="none" stroke="#000000" points="276.5,-101 409.5,-101 "/>
<polyline fill="none" stroke="#000000" points="276.5,-77 409.5,-77 "/>
<polyline fill="none" stroke="#000000" points="276.5,-53 409.5,-53 "/>
<text text-anchor="start" x="284.5" y="-37.8" font-family="Times,serif" font-size="14.00" fill="#000000">_layout</text>
</g>
<!-- UserScoreController -->
<g id="node4" class="node">
<title>UserScoreController</title>
<path fill="none" stroke="#000000" d="M440,-.5C440,-.5 544,-.5 544,-.5 550,-.5 556,-6.5 556,-12.5 556,-12.5 556,-141.5 556,-141.5 556,-147.5 550,-153.5 544,-153.5 544,-153.5 440,-153.5 440,-153.5 434,-153.5 428,-147.5 428,-141.5 428,-141.5 428,-12.5 428,-12.5 428,-6.5 434,-.5 440,-.5"/>
<text text-anchor="middle" x="492" y="-138.3" font-family="Times,serif" font-size="14.00" fill="#000000">UserScoreController</text>
<polyline fill="none" stroke="#000000" points="428,-130.5 556,-130.5 "/>
<text text-anchor="start" x="436" y="-115.3" font-family="Times,serif" font-size="14.00" fill="#000000">create</text>
<text text-anchor="start" x="436" y="-100.3" font-family="Times,serif" font-size="14.00" fill="#000000">day_graph</text>
<text text-anchor="start" x="436" y="-85.3" font-family="Times,serif" font-size="14.00" fill="#000000">graph</text>
<text text-anchor="start" x="436" y="-70.3" font-family="Times,serif" font-size="14.00" fill="#000000">index</text>
<text text-anchor="start" x="436" y="-55.3" font-family="Times,serif" font-size="14.00" fill="#000000">new</text>
<polyline fill="none" stroke="#000000" points="428,-47.5 556,-47.5 "/>
<polyline fill="none" stroke="#000000" points="428,-23.5 556,-23.5 "/>
<text text-anchor="start" x="436" y="-8.3" font-family="Times,serif" font-size="14.00" fill="#000000">_layout</text>
</g>
</g>
</svg>
