<?xml version="1.0" encoding="UTF-8" standalone="no"?>
<!DOCTYPE svg PUBLIC "-//W3C//DTD SVG 1.1//EN"
 "http://www.w3.org/Graphics/SVG/1.1/DTD/svg11.dtd">
<!-- Generated by graphviz version 2.40.1 (20161225.0304)
 -->
<!-- Title: models_diagram Pages: 1 -->
<svg width="494pt" height="160pt"
 viewBox="0.00 0.00 493.84 160.00" xmlns="http://www.w3.org/2000/svg" xmlns:xlink="http://www.w3.org/1999/xlink">
<g id="graph0" class="graph" transform="scale(1 1) rotate(0) translate(4 156)">
<title>models_diagram</title>
<polygon fill="transparent" stroke="transparent" points="-4,4 -4,-156 489.8431,-156 489.8431,4 -4,4"/>
<!-- ApplicationRecord -->
<g id="node1" class="node">
<title>ApplicationRecord</title>
<ellipse fill="none" stroke="#000000" cx="77.3431" cy="-76" rx="77.1866" ry="18"/>
<text text-anchor="middle" x="77.3431" y="-72.3" font-family="Times,serif" font-size="14.00" fill="#000000">ApplicationRecord</text>
</g>
<!-- User -->
<g id="node2" class="node">
<title>User</title>
<path fill="none" stroke="#000000" d="M184.8431,-.5C184.8431,-.5 473.8431,-.5 473.8431,-.5 479.8431,-.5 485.8431,-6.5 485.8431,-12.5 485.8431,-12.5 485.8431,-139.5 485.8431,-139.5 485.8431,-145.5 479.8431,-151.5 473.8431,-151.5 473.8431,-151.5 184.8431,-151.5 184.8431,-151.5 178.8431,-151.5 172.8431,-145.5 172.8431,-139.5 172.8431,-139.5 172.8431,-12.5 172.8431,-12.5 172.8431,-6.5 178.8431,-.5 184.8431,-.5"/>
<text text-anchor="middle" x="329.3431" y="-136.3" font-family="Times,serif" font-size="14.00" fill="#000000">User</text>
<polyline fill="none" stroke="#000000" points="172.8431,-128.5 485.8431,-128.5 "/>
<text text-anchor="start" x="180.8431" y="-113.3" font-family="Times,serif" font-size="14.00" fill="#000000">id :bigint</text>
<text text-anchor="start" x="180.8431" y="-98.3" font-family="Times,serif" font-size="14.00" fill="#000000">email :character varying</text>
<text text-anchor="start" x="180.8431" y="-83.3" font-family="Times,serif" font-size="14.00" fill="#000000">encrypted_password :character varying</text>
<text text-anchor="start" x="180.8431" y="-68.3" font-family="Times,serif" font-size="14.00" fill="#000000">reset_password_token :character varying</text>
<text text-anchor="start" x="180.8431" y="-53.3" font-family="Times,serif" font-size="14.00" fill="#000000">reset_password_sent_at :timestamp without time zone</text>
<text text-anchor="start" x="180.8431" y="-38.3" font-family="Times,serif" font-size="14.00" fill="#000000">remember_created_at :timestamp without time zone</text>
<text text-anchor="start" x="180.8431" y="-23.3" font-family="Times,serif" font-size="14.00" fill="#000000">created_at :timestamp without time zone</text>
<text text-anchor="start" x="180.8431" y="-8.3" font-family="Times,serif" font-size="14.00" fill="#000000">updated_at :timestamp without time zone</text>
</g>
</g>
</svg>
