<?xml version="1.0" encoding="UTF-8" standalone="no"?>
<!DOCTYPE svg PUBLIC "-//W3C//DTD SVG 1.1//EN"
 "http://www.w3.org/Graphics/SVG/1.1/DTD/svg11.dtd">
<!-- Generated by graphviz version 2.40.1 (20161225.0304)
 -->
<!-- Title: controllers_diagram Pages: 1 -->
<svg width="540pt" height="177pt"
 viewBox="0.00 0.00 540.00 177.00" xmlns="http://www.w3.org/2000/svg" xmlns:xlink="http://www.w3.org/1999/xlink">
<g id="graph0" class="graph" transform="scale(1 1) rotate(0) translate(4 173)">
<title>controllers_diagram</title>
<polygon fill="transparent" stroke="transparent" points="-4,4 -4,-173 536,-173 536,4 -4,4"/>
<!-- ApplicationController -->
<g id="node1" class="node">
<title>ApplicationController</title>
<path fill="none" stroke="#000000" d="M12,-37.5C12,-37.5 124,-37.5 124,-37.5 130,-37.5 136,-43.5 136,-49.5 136,-49.5 136,-119.5 136,-119.5 136,-125.5 130,-131.5 124,-131.5 124,-131.5 12,-131.5 12,-131.5 6,-131.5 0,-125.5 0,-119.5 0,-119.5 0,-49.5 0,-49.5 0,-43.5 6,-37.5 12,-37.5"/>
<text text-anchor="middle" x="68" y="-116.3" font-family="Times,serif" font-size="14.00" fill="#000000">ApplicationController</text>
<polyline fill="none" stroke="#000000" points="0,-108.5 136,-108.5 "/>
<polyline fill="none" stroke="#000000" points="0,-84.5 136,-84.5 "/>
<polyline fill="none" stroke="#000000" points="0,-60.5 136,-60.5 "/>
<text text-anchor="start" x="8" y="-45.3" font-family="Times,serif" font-size="14.00" fill="#000000">_layout</text>
</g>
<!-- FavoritesController -->
<g id="node2" class="node">
<title>FavoritesController</title>
<path fill="none" stroke="#000000" d="M166,-23C166,-23 264,-23 264,-23 270,-23 276,-29 276,-35 276,-35 276,-134 276,-134 276,-140 270,-146 264,-146 264,-146 166,-146 166,-146 160,-146 154,-140 154,-134 154,-134 154,-35 154,-35 154,-29 160,-23 166,-23"/>
<text text-anchor="middle" x="215" y="-130.8" font-family="Times,serif" font-size="14.00" fill="#000000">FavoritesController</text>
<polyline fill="none" stroke="#000000" points="154,-123 276,-123 "/>
<text text-anchor="start" x="162" y="-107.8" font-family="Times,serif" font-size="14.00" fill="#000000">index</text>
<text text-anchor="start" x="162" y="-92.8" font-family="Times,serif" font-size="14.00" fill="#000000">setFavorite</text>
<text text-anchor="start" x="162" y="-77.8" font-family="Times,serif" font-size="14.00" fill="#000000">toggle</text>
<polyline fill="none" stroke="#000000" points="154,-70 276,-70 "/>
<polyline fill="none" stroke="#000000" points="154,-46 276,-46 "/>
<text text-anchor="start" x="162" y="-30.8" font-family="Times,serif" font-size="14.00" fill="#000000">_layout</text>
</g>
<!-- PagesController -->
<g id="node3" class="node">
<title>PagesController</title>
<path fill="none" stroke="#000000" d="M306,-30.5C306,-30.5 386,-30.5 386,-30.5 392,-30.5 398,-36.5 398,-42.5 398,-42.5 398,-126.5 398,-126.5 398,-132.5 392,-138.5 386,-138.5 386,-138.5 306,-138.5 306,-138.5 300,-138.5 294,-132.5 294,-126.5 294,-126.5 294,-42.5 294,-42.5 294,-36.5 300,-30.5 306,-30.5"/>
<text text-anchor="middle" x="346" y="-123.3" font-family="Times,serif" font-size="14.00" fill="#000000">PagesController</text>
<polyline fill="none" stroke="#000000" points="294,-115.5 398,-115.5 "/>
<text text-anchor="start" x="302" y="-100.3" font-family="Times,serif" font-size="14.00" fill="#000000">home</text>
<text text-anchor="start" x="302" y="-85.3" font-family="Times,serif" font-size="14.00" fill="#000000">profile</text>
<polyline fill="none" stroke="#000000" points="294,-77.5 398,-77.5 "/>
<polyline fill="none" stroke="#000000" points="294,-53.5 398,-53.5 "/>
<text text-anchor="start" x="302" y="-38.3" font-family="Times,serif" font-size="14.00" fill="#000000">_layout</text>
</g>
<!-- ProjectsController -->
<g id="node4" class="node">
<title>ProjectsController</title>
<path fill="none" stroke="#000000" d="M428,-.5C428,-.5 520,-.5 520,-.5 526,-.5 532,-6.5 532,-12.5 532,-12.5 532,-156.5 532,-156.5 532,-162.5 526,-168.5 520,-168.5 520,-168.5 428,-168.5 428,-168.5 422,-168.5 416,-162.5 416,-156.5 416,-156.5 416,-12.5 416,-12.5 416,-6.5 422,-.5 428,-.5"/>
<text text-anchor="middle" x="474" y="-153.3" font-family="Times,serif" font-size="14.00" fill="#000000">ProjectsController</text>
<polyline fill="none" stroke="#000000" points="416,-145.5 532,-145.5 "/>
<text text-anchor="start" x="424" y="-130.3" font-family="Times,serif" font-size="14.00" fill="#000000">create</text>
<text text-anchor="start" x="424" y="-115.3" font-family="Times,serif" font-size="14.00" fill="#000000">index</text>
<text text-anchor="start" x="424" y="-100.3" font-family="Times,serif" font-size="14.00" fill="#000000">new</text>
<text text-anchor="start" x="424" y="-85.3" font-family="Times,serif" font-size="14.00" fill="#000000">show</text>
<polyline fill="none" stroke="#000000" points="416,-77.5 532,-77.5 "/>
<polyline fill="none" stroke="#000000" points="416,-53.5 532,-53.5 "/>
<text text-anchor="start" x="424" y="-38.3" font-family="Times,serif" font-size="14.00" fill="#000000">_layout</text>
<text text-anchor="start" x="424" y="-23.3" font-family="Times,serif" font-size="14.00" fill="#000000">project_params</text>
<text text-anchor="start" x="424" y="-8.3" font-family="Times,serif" font-size="14.00" fill="#000000">setProject</text>
</g>
</g>
</svg>
