<?xml version="1.0" encoding="UTF-8" standalone="no"?>
<!DOCTYPE svg PUBLIC "-//W3C//DTD SVG 1.1//EN"
 "http://www.w3.org/Graphics/SVG/1.1/DTD/svg11.dtd">
<!-- Generated by graphviz version 2.40.1 (20161225.0304)
 -->
<!-- Title: models_diagram Pages: 1 -->
<svg width="459pt" height="641pt"
 viewBox="0.00 0.00 458.84 641.00" xmlns="http://www.w3.org/2000/svg" xmlns:xlink="http://www.w3.org/1999/xlink">
<g id="graph0" class="graph" transform="scale(1 1) rotate(0) translate(4 637)">
<title>models_diagram</title>
<polygon fill="transparent" stroke="transparent" points="-4,4 -4,-637 454.8431,-637 454.8431,4 -4,4"/>
<!-- ApplicationRecord -->
<g id="node1" class="node">
<title>ApplicationRecord</title>
<ellipse fill="none" stroke="#000000" cx="77.3431" cy="-527" rx="77.1866" ry="18"/>
<text text-anchor="middle" x="77.3431" y="-523.3" font-family="Times,serif" font-size="14.00" fill="#000000">ApplicationRecord</text>
</g>
<!-- Favorite -->
<g id="node2" class="node">
<title>Favorite</title>
<path fill="none" stroke="#000000" d="M184.3431,-.5C184.3431,-.5 404.3431,-.5 404.3431,-.5 410.3431,-.5 416.3431,-6.5 416.3431,-12.5 416.3431,-12.5 416.3431,-64.5 416.3431,-64.5 416.3431,-70.5 410.3431,-76.5 404.3431,-76.5 404.3431,-76.5 184.3431,-76.5 184.3431,-76.5 178.3431,-76.5 172.3431,-70.5 172.3431,-64.5 172.3431,-64.5 172.3431,-12.5 172.3431,-12.5 172.3431,-6.5 178.3431,-.5 184.3431,-.5"/>
<text text-anchor="middle" x="294.3431" y="-61.3" font-family="Times,serif" font-size="14.00" fill="#000000">Favorite</text>
<polyline fill="none" stroke="#000000" points="172.3431,-53.5 416.3431,-53.5 "/>
<text text-anchor="start" x="180.3431" y="-38.3" font-family="Times,serif" font-size="14.00" fill="#000000">id :bigint</text>
<text text-anchor="start" x="180.3431" y="-23.3" font-family="Times,serif" font-size="14.00" fill="#000000">created_at :timestamp without time zone</text>
<text text-anchor="start" x="180.3431" y="-8.3" font-family="Times,serif" font-size="14.00" fill="#000000">updated_at :timestamp without time zone</text>
</g>
<!-- Project -->
<g id="node3" class="node">
<title>Project</title>
<path fill="none" stroke="#000000" d="M184.3431,-421.5C184.3431,-421.5 404.3431,-421.5 404.3431,-421.5 410.3431,-421.5 416.3431,-427.5 416.3431,-433.5 416.3431,-433.5 416.3431,-620.5 416.3431,-620.5 416.3431,-626.5 410.3431,-632.5 404.3431,-632.5 404.3431,-632.5 184.3431,-632.5 184.3431,-632.5 178.3431,-632.5 172.3431,-626.5 172.3431,-620.5 172.3431,-620.5 172.3431,-433.5 172.3431,-433.5 172.3431,-427.5 178.3431,-421.5 184.3431,-421.5"/>
<text text-anchor="middle" x="294.3431" y="-617.3" font-family="Times,serif" font-size="14.00" fill="#000000">Project</text>
<polyline fill="none" stroke="#000000" points="172.3431,-609.5 416.3431,-609.5 "/>
<text text-anchor="start" x="180.3431" y="-594.3" font-family="Times,serif" font-size="14.00" fill="#000000">id :bigint</text>
<text text-anchor="start" x="180.3431" y="-579.3" font-family="Times,serif" font-size="14.00" fill="#000000">name :character varying</text>
<text text-anchor="start" x="180.3431" y="-564.3" font-family="Times,serif" font-size="14.00" fill="#000000">short_description :text</text>
<text text-anchor="start" x="180.3431" y="-549.3" font-family="Times,serif" font-size="14.00" fill="#000000">long_description :text</text>
<text text-anchor="start" x="180.3431" y="-534.3" font-family="Times,serif" font-size="14.00" fill="#000000">url :character varying</text>
<text text-anchor="start" x="180.3431" y="-519.3" font-family="Times,serif" font-size="14.00" fill="#000000">location :character varying</text>
<text text-anchor="start" x="180.3431" y="-504.3" font-family="Times,serif" font-size="14.00" fill="#000000">organization :character varying</text>
<text text-anchor="start" x="180.3431" y="-489.3" font-family="Times,serif" font-size="14.00" fill="#000000">org_description :text</text>
<text text-anchor="start" x="180.3431" y="-474.3" font-family="Times,serif" font-size="14.00" fill="#000000">active :boolean</text>
<text text-anchor="start" x="180.3431" y="-459.3" font-family="Times,serif" font-size="14.00" fill="#000000">photo :character varying</text>
<text text-anchor="start" x="180.3431" y="-444.3" font-family="Times,serif" font-size="14.00" fill="#000000">created_at :timestamp without time zone</text>
<text text-anchor="start" x="180.3431" y="-429.3" font-family="Times,serif" font-size="14.00" fill="#000000">updated_at :timestamp without time zone</text>
</g>
<!-- User -->
<g id="node4" class="node">
<title>User</title>
<path fill="none" stroke="#000000" d="M149.8431,-113.5C149.8431,-113.5 438.8431,-113.5 438.8431,-113.5 444.8431,-113.5 450.8431,-119.5 450.8431,-125.5 450.8431,-125.5 450.8431,-372.5 450.8431,-372.5 450.8431,-378.5 444.8431,-384.5 438.8431,-384.5 438.8431,-384.5 149.8431,-384.5 149.8431,-384.5 143.8431,-384.5 137.8431,-378.5 137.8431,-372.5 137.8431,-372.5 137.8431,-125.5 137.8431,-125.5 137.8431,-119.5 143.8431,-113.5 149.8431,-113.5"/>
<text text-anchor="middle" x="294.3431" y="-369.3" font-family="Times,serif" font-size="14.00" fill="#000000">User</text>
<polyline fill="none" stroke="#000000" points="137.8431,-361.5 450.8431,-361.5 "/>
<text text-anchor="start" x="145.8431" y="-346.3" font-family="Times,serif" font-size="14.00" fill="#000000">id :bigint</text>
<text text-anchor="start" x="145.8431" y="-331.3" font-family="Times,serif" font-size="14.00" fill="#000000">email :character varying</text>
<text text-anchor="start" x="145.8431" y="-316.3" font-family="Times,serif" font-size="14.00" fill="#000000">encrypted_password :character varying</text>
<text text-anchor="start" x="145.8431" y="-301.3" font-family="Times,serif" font-size="14.00" fill="#000000">reset_password_token :character varying</text>
<text text-anchor="start" x="145.8431" y="-286.3" font-family="Times,serif" font-size="14.00" fill="#000000">reset_password_sent_at :timestamp without time zone</text>
<text text-anchor="start" x="145.8431" y="-271.3" font-family="Times,serif" font-size="14.00" fill="#000000">remember_created_at :timestamp without time zone</text>
<text text-anchor="start" x="145.8431" y="-256.3" font-family="Times,serif" font-size="14.00" fill="#000000">created_at :timestamp without time zone</text>
<text text-anchor="start" x="145.8431" y="-241.3" font-family="Times,serif" font-size="14.00" fill="#000000">updated_at :timestamp without time zone</text>
<text text-anchor="start" x="145.8431" y="-226.3" font-family="Times,serif" font-size="14.00" fill="#000000">first_name :character varying</text>
<text text-anchor="start" x="145.8431" y="-211.3" font-family="Times,serif" font-size="14.00" fill="#000000">last_name :character varying</text>
<text text-anchor="start" x="145.8431" y="-196.3" font-family="Times,serif" font-size="14.00" fill="#000000">username :character varying</text>
<text text-anchor="start" x="145.8431" y="-181.3" font-family="Times,serif" font-size="14.00" fill="#000000">photo :character varying</text>
<text text-anchor="start" x="145.8431" y="-166.3" font-family="Times,serif" font-size="14.00" fill="#000000">researcher_status :boolean</text>
<text text-anchor="start" x="145.8431" y="-151.3" font-family="Times,serif" font-size="14.00" fill="#000000">description :text</text>
<text text-anchor="start" x="145.8431" y="-136.3" font-family="Times,serif" font-size="14.00" fill="#000000">interest :character varying</text>
<text text-anchor="start" x="145.8431" y="-121.3" font-family="Times,serif" font-size="14.00" fill="#000000">category :character varying</text>
</g>
<!-- Project&#45;&gt;User -->
<g id="edge1" class="edge">
<title>Project&#45;&gt;User</title>
<path fill="none" stroke="#c12919" d="M294.3431,-410.9346C294.3431,-405.6202 294.3431,-400.2598 294.3431,-394.8856"/>
<polygon fill="#c12919" stroke="#c12919" points="294.3432,-411.1071 289.8431,-421.107 294.3432,-416.1071 294.3431,-421.1071 294.3431,-421.1071 294.3431,-421.1071 294.3432,-416.1071 298.8431,-421.1071 294.3432,-411.1071 294.3432,-411.1071"/>
<polygon fill="#c12919" stroke="#c12919" points="294.3432,-394.5421 298.8431,-384.542 294.3432,-389.5421 294.3431,-384.5421 294.3431,-384.5421 294.3431,-384.5421 294.3432,-389.5421 289.8431,-384.5421 294.3432,-394.5421 294.3432,-394.5421"/>
</g>
<!-- User&#45;&gt;Favorite -->
<g id="edge2" class="edge">
<title>User&#45;&gt;Favorite</title>
<path fill="none" stroke="#58ac35" d="M294.3431,-105.0525C294.3431,-98.7059 294.3431,-92.5774 294.3431,-86.7791"/>
<ellipse fill="none" stroke="#58ac35" cx="294.3432" cy="-109.3071" rx="4" ry="4"/>
<polygon fill="#58ac35" stroke="#58ac35" points="294.3432,-86.7229 298.8431,-76.7229 294.3432,-81.7229 294.3431,-76.7229 294.3431,-76.7229 294.3431,-76.7229 294.3432,-81.7229 289.8431,-76.723 294.3432,-86.7229 294.3432,-86.7229"/>
</g>
</g>
</svg>
