<?xml version="1.0" encoding="UTF-8" standalone="no"?>
<!DOCTYPE svg PUBLIC "-//W3C//DTD SVG 1.1//EN"
 "http://www.w3.org/Graphics/SVG/1.1/DTD/svg11.dtd">
<!-- Generated by graphviz version 2.40.1 (20161225.0304)
 -->
<!-- Title: controllers_diagram Pages: 1 -->
<svg width="1092pt" height="312pt"
 viewBox="0.00 0.00 1091.50 312.00" xmlns="http://www.w3.org/2000/svg" xmlns:xlink="http://www.w3.org/1999/xlink">
<g id="graph0" class="graph" transform="scale(1 1) rotate(0) translate(4 308)">
<title>controllers_diagram</title>
<polygon fill="transparent" stroke="transparent" points="-4,4 -4,-308 1087.5,-308 1087.5,4 -4,4"/>
<!-- ApplicationController -->
<g id="node1" class="node">
<title>ApplicationController</title>
<path fill="none" stroke="#000000" d="M12,-75.5C12,-75.5 182,-75.5 182,-75.5 188,-75.5 194,-81.5 194,-87.5 194,-87.5 194,-216.5 194,-216.5 194,-222.5 188,-228.5 182,-228.5 182,-228.5 12,-228.5 12,-228.5 6,-228.5 0,-222.5 0,-216.5 0,-216.5 0,-87.5 0,-87.5 0,-81.5 6,-75.5 12,-75.5"/>
<text text-anchor="middle" x="97" y="-213.3" font-family="Times,serif" font-size="14.00" fill="#000000">ApplicationController</text>
<polyline fill="none" stroke="#000000" points="0,-205.5 194,-205.5 "/>
<polyline fill="none" stroke="#000000" points="0,-181.5 194,-181.5 "/>
<text text-anchor="start" x="8" y="-166.3" font-family="Times,serif" font-size="14.00" fill="#000000">configure_permitted_parameters</text>
<polyline fill="none" stroke="#000000" points="0,-158.5 194,-158.5 "/>
<text text-anchor="start" x="8" y="-143.3" font-family="Times,serif" font-size="14.00" fill="#000000">_layout</text>
<text text-anchor="start" x="8" y="-128.3" font-family="Times,serif" font-size="14.00" fill="#000000">empty_fridge</text>
<text text-anchor="start" x="8" y="-113.3" font-family="Times,serif" font-size="14.00" fill="#000000">fill_fridge</text>
<text text-anchor="start" x="8" y="-98.3" font-family="Times,serif" font-size="14.00" fill="#000000">matching_ingredients</text>
<text text-anchor="start" x="8" y="-83.3" font-family="Times,serif" font-size="14.00" fill="#000000">missing_ingredients</text>
</g>
<!-- FridgeItemsController -->
<g id="node2" class="node">
<title>FridgeItemsController</title>
<path fill="none" stroke="#000000" d="M224,-30.5C224,-30.5 338,-30.5 338,-30.5 344,-30.5 350,-36.5 350,-42.5 350,-42.5 350,-261.5 350,-261.5 350,-267.5 344,-273.5 338,-273.5 338,-273.5 224,-273.5 224,-273.5 218,-273.5 212,-267.5 212,-261.5 212,-261.5 212,-42.5 212,-42.5 212,-36.5 218,-30.5 224,-30.5"/>
<text text-anchor="middle" x="281" y="-258.3" font-family="Times,serif" font-size="14.00" fill="#000000">FridgeItemsController</text>
<polyline fill="none" stroke="#000000" points="212,-250.5 350,-250.5 "/>
<text text-anchor="start" x="220" y="-235.3" font-family="Times,serif" font-size="14.00" fill="#000000">create</text>
<text text-anchor="start" x="220" y="-220.3" font-family="Times,serif" font-size="14.00" fill="#000000">decrease</text>
<text text-anchor="start" x="220" y="-205.3" font-family="Times,serif" font-size="14.00" fill="#000000">delete</text>
<text text-anchor="start" x="220" y="-190.3" font-family="Times,serif" font-size="14.00" fill="#000000">empty</text>
<text text-anchor="start" x="220" y="-175.3" font-family="Times,serif" font-size="14.00" fill="#000000">increase</text>
<text text-anchor="start" x="220" y="-160.3" font-family="Times,serif" font-size="14.00" fill="#000000">index</text>
<polyline fill="none" stroke="#000000" points="212,-152.5 350,-152.5 "/>
<polyline fill="none" stroke="#000000" points="212,-128.5 350,-128.5 "/>
<text text-anchor="start" x="220" y="-113.3" font-family="Times,serif" font-size="14.00" fill="#000000">_layout</text>
<text text-anchor="start" x="220" y="-98.3" font-family="Times,serif" font-size="14.00" fill="#000000">params_permit</text>
<text text-anchor="start" x="220" y="-83.3" font-family="Times,serif" font-size="14.00" fill="#000000">render_create_js</text>
<text text-anchor="start" x="220" y="-68.3" font-family="Times,serif" font-size="14.00" fill="#000000">render_refresh_js</text>
<text text-anchor="start" x="220" y="-53.3" font-family="Times,serif" font-size="14.00" fill="#000000">set_fridge</text>
<text text-anchor="start" x="220" y="-38.3" font-family="Times,serif" font-size="14.00" fill="#000000">set_fridge_item</text>
</g>
<!-- GroceryItemsController -->
<g id="node3" class="node">
<title>GroceryItemsController</title>
<path fill="none" stroke="#000000" d="M380,-.5C380,-.5 512,-.5 512,-.5 518,-.5 524,-6.5 524,-12.5 524,-12.5 524,-291.5 524,-291.5 524,-297.5 518,-303.5 512,-303.5 512,-303.5 380,-303.5 380,-303.5 374,-303.5 368,-297.5 368,-291.5 368,-291.5 368,-12.5 368,-12.5 368,-6.5 374,-.5 380,-.5"/>
<text text-anchor="middle" x="446" y="-288.3" font-family="Times,serif" font-size="14.00" fill="#000000">GroceryItemsController</text>
<polyline fill="none" stroke="#000000" points="368,-280.5 524,-280.5 "/>
<text text-anchor="start" x="376" y="-265.3" font-family="Times,serif" font-size="14.00" fill="#000000">add</text>
<text text-anchor="start" x="376" y="-250.3" font-family="Times,serif" font-size="14.00" fill="#000000">check</text>
<text text-anchor="start" x="376" y="-235.3" font-family="Times,serif" font-size="14.00" fill="#000000">create</text>
<text text-anchor="start" x="376" y="-220.3" font-family="Times,serif" font-size="14.00" fill="#000000">decrease</text>
<text text-anchor="start" x="376" y="-205.3" font-family="Times,serif" font-size="14.00" fill="#000000">destroy</text>
<text text-anchor="start" x="376" y="-190.3" font-family="Times,serif" font-size="14.00" fill="#000000">increase</text>
<text text-anchor="start" x="376" y="-175.3" font-family="Times,serif" font-size="14.00" fill="#000000">index</text>
<text text-anchor="start" x="376" y="-160.3" font-family="Times,serif" font-size="14.00" fill="#000000">uncheck</text>
<text text-anchor="start" x="376" y="-145.3" font-family="Times,serif" font-size="14.00" fill="#000000">update</text>
<polyline fill="none" stroke="#000000" points="368,-137.5 524,-137.5 "/>
<polyline fill="none" stroke="#000000" points="368,-113.5 524,-113.5 "/>
<text text-anchor="start" x="376" y="-98.3" font-family="Times,serif" font-size="14.00" fill="#000000">_layout</text>
<text text-anchor="start" x="376" y="-83.3" font-family="Times,serif" font-size="14.00" fill="#000000">add_item_to_grocery_list</text>
<text text-anchor="start" x="376" y="-68.3" font-family="Times,serif" font-size="14.00" fill="#000000">params_permit</text>
<text text-anchor="start" x="376" y="-53.3" font-family="Times,serif" font-size="14.00" fill="#000000">render_create_js</text>
<text text-anchor="start" x="376" y="-38.3" font-family="Times,serif" font-size="14.00" fill="#000000">render_refresh_js</text>
<text text-anchor="start" x="376" y="-23.3" font-family="Times,serif" font-size="14.00" fill="#000000">render_update_js</text>
<text text-anchor="start" x="376" y="-8.3" font-family="Times,serif" font-size="14.00" fill="#000000">set_grocery_item</text>
</g>
<!-- PagesController -->
<g id="node4" class="node">
<title>PagesController</title>
<path fill="none" stroke="#000000" d="M554,-105.5C554,-105.5 634,-105.5 634,-105.5 640,-105.5 646,-111.5 646,-117.5 646,-117.5 646,-186.5 646,-186.5 646,-192.5 640,-198.5 634,-198.5 634,-198.5 554,-198.5 554,-198.5 548,-198.5 542,-192.5 542,-186.5 542,-186.5 542,-117.5 542,-117.5 542,-111.5 548,-105.5 554,-105.5"/>
<text text-anchor="middle" x="594" y="-183.3" font-family="Times,serif" font-size="14.00" fill="#000000">PagesController</text>
<polyline fill="none" stroke="#000000" points="542,-175.5 646,-175.5 "/>
<text text-anchor="start" x="550" y="-160.3" font-family="Times,serif" font-size="14.00" fill="#000000">landing</text>
<polyline fill="none" stroke="#000000" points="542,-152.5 646,-152.5 "/>
<polyline fill="none" stroke="#000000" points="542,-128.5 646,-128.5 "/>
<text text-anchor="start" x="550" y="-113.3" font-family="Times,serif" font-size="14.00" fill="#000000">_layout</text>
</g>
<!-- RecipesController -->
<g id="node5" class="node">
<title>RecipesController</title>
<path fill="none" stroke="#000000" d="M676.5,-30.5C676.5,-30.5 767.5,-30.5 767.5,-30.5 773.5,-30.5 779.5,-36.5 779.5,-42.5 779.5,-42.5 779.5,-261.5 779.5,-261.5 779.5,-267.5 773.5,-273.5 767.5,-273.5 767.5,-273.5 676.5,-273.5 676.5,-273.5 670.5,-273.5 664.5,-267.5 664.5,-261.5 664.5,-261.5 664.5,-42.5 664.5,-42.5 664.5,-36.5 670.5,-30.5 676.5,-30.5"/>
<text text-anchor="middle" x="722" y="-258.3" font-family="Times,serif" font-size="14.00" fill="#000000">RecipesController</text>
<polyline fill="none" stroke="#000000" points="664.5,-250.5 779.5,-250.5 "/>
<text text-anchor="start" x="672.5" y="-235.3" font-family="Times,serif" font-size="14.00" fill="#000000">create</text>
<text text-anchor="start" x="672.5" y="-220.3" font-family="Times,serif" font-size="14.00" fill="#000000">done!</text>
<text text-anchor="start" x="672.5" y="-205.3" font-family="Times,serif" font-size="14.00" fill="#000000">index</text>
<text text-anchor="start" x="672.5" y="-190.3" font-family="Times,serif" font-size="14.00" fill="#000000">index_owner</text>
<text text-anchor="start" x="672.5" y="-175.3" font-family="Times,serif" font-size="14.00" fill="#000000">new</text>
<text text-anchor="start" x="672.5" y="-160.3" font-family="Times,serif" font-size="14.00" fill="#000000">popup</text>
<text text-anchor="start" x="672.5" y="-145.3" font-family="Times,serif" font-size="14.00" fill="#000000">show</text>
<text text-anchor="start" x="672.5" y="-130.3" font-family="Times,serif" font-size="14.00" fill="#000000">steps</text>
<polyline fill="none" stroke="#000000" points="664.5,-122.5 779.5,-122.5 "/>
<polyline fill="none" stroke="#000000" points="664.5,-98.5 779.5,-98.5 "/>
<text text-anchor="start" x="672.5" y="-83.3" font-family="Times,serif" font-size="14.00" fill="#000000">_layout</text>
<text text-anchor="start" x="672.5" y="-68.3" font-family="Times,serif" font-size="14.00" fill="#000000">params_permit</text>
<text text-anchor="start" x="672.5" y="-53.3" font-family="Times,serif" font-size="14.00" fill="#000000">set_fridge_items</text>
<text text-anchor="start" x="672.5" y="-38.3" font-family="Times,serif" font-size="14.00" fill="#000000">set_recipe</text>
</g>
<!-- ReviewsController -->
<g id="node6" class="node">
<title>ReviewsController</title>
<path fill="none" stroke="#000000" d="M809.5,-98C809.5,-98 904.5,-98 904.5,-98 910.5,-98 916.5,-104 916.5,-110 916.5,-110 916.5,-194 916.5,-194 916.5,-200 910.5,-206 904.5,-206 904.5,-206 809.5,-206 809.5,-206 803.5,-206 797.5,-200 797.5,-194 797.5,-194 797.5,-110 797.5,-110 797.5,-104 803.5,-98 809.5,-98"/>
<text text-anchor="middle" x="857" y="-190.8" font-family="Times,serif" font-size="14.00" fill="#000000">ReviewsController</text>
<polyline fill="none" stroke="#000000" points="797.5,-183 916.5,-183 "/>
<text text-anchor="start" x="805.5" y="-167.8" font-family="Times,serif" font-size="14.00" fill="#000000">create</text>
<polyline fill="none" stroke="#000000" points="797.5,-160 916.5,-160 "/>
<polyline fill="none" stroke="#000000" points="797.5,-136 916.5,-136 "/>
<text text-anchor="start" x="805.5" y="-120.8" font-family="Times,serif" font-size="14.00" fill="#000000">_layout</text>
<text text-anchor="start" x="805.5" y="-105.8" font-family="Times,serif" font-size="14.00" fill="#000000">params_permit</text>
</g>
<!-- WishlistItemsController -->
<g id="node7" class="node">
<title>WishlistItemsController</title>
<path fill="none" stroke="#000000" d="M946.5,-98C946.5,-98 1071.5,-98 1071.5,-98 1077.5,-98 1083.5,-104 1083.5,-110 1083.5,-110 1083.5,-194 1083.5,-194 1083.5,-200 1077.5,-206 1071.5,-206 1071.5,-206 946.5,-206 946.5,-206 940.5,-206 934.5,-200 934.5,-194 934.5,-194 934.5,-110 934.5,-110 934.5,-104 940.5,-98 946.5,-98"/>
<text text-anchor="middle" x="1009" y="-190.8" font-family="Times,serif" font-size="14.00" fill="#000000">WishlistItemsController</text>
<polyline fill="none" stroke="#000000" points="934.5,-183 1083.5,-183 "/>
<text text-anchor="start" x="942.5" y="-167.8" font-family="Times,serif" font-size="14.00" fill="#000000">create</text>
<text text-anchor="start" x="942.5" y="-152.8" font-family="Times,serif" font-size="14.00" fill="#000000">index</text>
<polyline fill="none" stroke="#000000" points="934.5,-145 1083.5,-145 "/>
<polyline fill="none" stroke="#000000" points="934.5,-121 1083.5,-121 "/>
<text text-anchor="start" x="942.5" y="-105.8" font-family="Times,serif" font-size="14.00" fill="#000000">_layout</text>
</g>
</g>
</svg>
