<?xml version="1.0" encoding="UTF-8" standalone="no"?>
<!DOCTYPE svg PUBLIC "-//W3C//DTD SVG 1.1//EN"
 "http://www.w3.org/Graphics/SVG/1.1/DTD/svg11.dtd">
<!-- Generated by graphviz version 2.40.1 (20161225.0304)
 -->
<!-- Title: models_diagram Pages: 1 -->
<svg width="756pt" height="536pt"
 viewBox="0.00 0.00 755.84 536.00" xmlns="http://www.w3.org/2000/svg" xmlns:xlink="http://www.w3.org/1999/xlink">
<g id="graph0" class="graph" transform="scale(1 1) rotate(0) translate(4 532)">
<title>models_diagram</title>
<polygon fill="transparent" stroke="transparent" points="-4,4 -4,-532 751.8431,-532 751.8431,4 -4,4"/>
<!-- ApplicationRecord -->
<g id="node1" class="node">
<title>ApplicationRecord</title>
<ellipse fill="none" stroke="#000000" cx="77.3431" cy="-452" rx="77.1866" ry="18"/>
<text text-anchor="middle" x="77.3431" y="-448.3" font-family="Times,serif" font-size="14.00" fill="#000000">ApplicationRecord</text>
</g>
<!-- Ingredient -->
<g id="node2" class="node">
<title>Ingredient</title>
<path fill="none" stroke="#000000" d="M184.3431,-406.5C184.3431,-406.5 404.3431,-406.5 404.3431,-406.5 410.3431,-406.5 416.3431,-412.5 416.3431,-418.5 416.3431,-418.5 416.3431,-485.5 416.3431,-485.5 416.3431,-491.5 410.3431,-497.5 404.3431,-497.5 404.3431,-497.5 184.3431,-497.5 184.3431,-497.5 178.3431,-497.5 172.3431,-491.5 172.3431,-485.5 172.3431,-485.5 172.3431,-418.5 172.3431,-418.5 172.3431,-412.5 178.3431,-406.5 184.3431,-406.5"/>
<text text-anchor="middle" x="294.3431" y="-482.3" font-family="Times,serif" font-size="14.00" fill="#000000">Ingredient</text>
<polyline fill="none" stroke="#000000" points="172.3431,-474.5 416.3431,-474.5 "/>
<text text-anchor="start" x="180.3431" y="-459.3" font-family="Times,serif" font-size="14.00" fill="#000000">id :bigint</text>
<text text-anchor="start" x="180.3431" y="-444.3" font-family="Times,serif" font-size="14.00" fill="#000000">name :character varying</text>
<text text-anchor="start" x="180.3431" y="-429.3" font-family="Times,serif" font-size="14.00" fill="#000000">created_at :timestamp without time zone</text>
<text text-anchor="start" x="180.3431" y="-414.3" font-family="Times,serif" font-size="14.00" fill="#000000">updated_at :timestamp without time zone</text>
</g>
<!-- Medication -->
<g id="node3" class="node">
<title>Medication</title>
<path fill="none" stroke="#000000" d="M184.3431,-143.5C184.3431,-143.5 404.3431,-143.5 404.3431,-143.5 410.3431,-143.5 416.3431,-149.5 416.3431,-155.5 416.3431,-155.5 416.3431,-327.5 416.3431,-327.5 416.3431,-333.5 410.3431,-339.5 404.3431,-339.5 404.3431,-339.5 184.3431,-339.5 184.3431,-339.5 178.3431,-339.5 172.3431,-333.5 172.3431,-327.5 172.3431,-327.5 172.3431,-155.5 172.3431,-155.5 172.3431,-149.5 178.3431,-143.5 184.3431,-143.5"/>
<text text-anchor="middle" x="294.3431" y="-324.3" font-family="Times,serif" font-size="14.00" fill="#000000">Medication</text>
<polyline fill="none" stroke="#000000" points="172.3431,-316.5 416.3431,-316.5 "/>
<text text-anchor="start" x="180.3431" y="-301.3" font-family="Times,serif" font-size="14.00" fill="#000000">id :bigint</text>
<text text-anchor="start" x="180.3431" y="-286.3" font-family="Times,serif" font-size="14.00" fill="#000000">local_name :character varying</text>
<text text-anchor="start" x="180.3431" y="-271.3" font-family="Times,serif" font-size="14.00" fill="#000000">english_name :character varying</text>
<text text-anchor="start" x="180.3431" y="-256.3" font-family="Times,serif" font-size="14.00" fill="#000000">country :character varying</text>
<text text-anchor="start" x="180.3431" y="-241.3" font-family="Times,serif" font-size="14.00" fill="#000000">created_at :timestamp without time zone</text>
<text text-anchor="start" x="180.3431" y="-226.3" font-family="Times,serif" font-size="14.00" fill="#000000">updated_at :timestamp without time zone</text>
<text text-anchor="start" x="180.3431" y="-211.3" font-family="Times,serif" font-size="14.00" fill="#000000">local_category :character varying</text>
<text text-anchor="start" x="180.3431" y="-196.3" font-family="Times,serif" font-size="14.00" fill="#000000">foreign_category :character varying</text>
<text text-anchor="start" x="180.3431" y="-181.3" font-family="Times,serif" font-size="14.00" fill="#000000">local_description :character varying</text>
<text text-anchor="start" x="180.3431" y="-166.3" font-family="Times,serif" font-size="14.00" fill="#000000">foreign_description :character varying</text>
<text text-anchor="start" x="180.3431" y="-151.3" font-family="Times,serif" font-size="14.00" fill="#000000">photo :character varying</text>
</g>
<!-- Ingredient&#45;&gt;Medication -->
<g id="edge1" class="edge">
<title>Ingredient&#45;&gt;Medication</title>
<path fill="none" stroke="#1350f1" d="M288.3719,-398.3132C287.8862,-383.5205 287.6277,-366.923 287.5964,-350.209"/>
<ellipse fill="none" stroke="#1350f1" cx="288.5186" cy="-402.3273" rx="4" ry="4"/>
<polygon fill="#1350f1" stroke="#1350f1" points="287.5967,-349.8022 292.1062,-339.8065 287.6014,-344.8022 287.6062,-339.8022 287.6062,-339.8022 287.6062,-339.8022 287.6014,-344.8022 283.1062,-339.7979 287.5967,-349.8022 287.5967,-349.8022"/>
</g>
<!-- Medication&#45;&gt;Ingredient -->
<g id="edge3" class="edge">
<title>Medication&#45;&gt;Ingredient</title>
<path fill="none" stroke="#7848a3" d="M301.0899,-350.1919C301.0604,-366.0025 300.8277,-381.7095 300.3916,-395.8836"/>
<polygon fill="#7848a3" stroke="#7848a3" points="301.0897,-349.8022 305.58,-339.7979 301.0849,-344.8022 301.08,-339.8022 301.08,-339.8022 301.08,-339.8022 301.0849,-344.8022 296.58,-339.8065 301.0897,-349.8022 301.0897,-349.8022"/>
<polygon fill="#7848a3" stroke="#7848a3" points="300.3758,-396.3309 295.5244,-406.1652 300.1987,-401.3278 300.0216,-406.3246 300.0216,-406.3246 300.0216,-406.3246 300.1987,-401.3278 304.5187,-406.4841 300.3758,-396.3309 300.3758,-396.3309"/>
</g>
<!-- MedicationsIngredient -->
<g id="node4" class="node">
<title>MedicationsIngredient</title>
<path fill="none" stroke="#000000" d="M184.3431,-.5C184.3431,-.5 404.3431,-.5 404.3431,-.5 410.3431,-.5 416.3431,-6.5 416.3431,-12.5 416.3431,-12.5 416.3431,-94.5 416.3431,-94.5 416.3431,-100.5 410.3431,-106.5 404.3431,-106.5 404.3431,-106.5 184.3431,-106.5 184.3431,-106.5 178.3431,-106.5 172.3431,-100.5 172.3431,-94.5 172.3431,-94.5 172.3431,-12.5 172.3431,-12.5 172.3431,-6.5 178.3431,-.5 184.3431,-.5"/>
<text text-anchor="middle" x="294.3431" y="-91.3" font-family="Times,serif" font-size="14.00" fill="#000000">MedicationsIngredient</text>
<polyline fill="none" stroke="#000000" points="172.3431,-83.5 416.3431,-83.5 "/>
<text text-anchor="start" x="180.3431" y="-68.3" font-family="Times,serif" font-size="14.00" fill="#000000">id :bigint</text>
<text text-anchor="start" x="180.3431" y="-53.3" font-family="Times,serif" font-size="14.00" fill="#000000">ingredient_id :bigint</text>
<text text-anchor="start" x="180.3431" y="-38.3" font-family="Times,serif" font-size="14.00" fill="#000000">medication_id :bigint</text>
<text text-anchor="start" x="180.3431" y="-23.3" font-family="Times,serif" font-size="14.00" fill="#000000">created_at :timestamp without time zone</text>
<text text-anchor="start" x="180.3431" y="-8.3" font-family="Times,serif" font-size="14.00" fill="#000000">updated_at :timestamp without time zone</text>
</g>
<!-- Medication&#45;&gt;MedicationsIngredient -->
<g id="edge2" class="edge">
<title>Medication&#45;&gt;MedicationsIngredient</title>
<path fill="none" stroke="#42b431" d="M294.3431,-135.0977C294.3431,-128.9674 294.3431,-122.9087 294.3431,-117.0284"/>
<ellipse fill="none" stroke="#42b431" cx="294.3432" cy="-139.3703" rx="4" ry="4"/>
<polygon fill="#42b431" stroke="#42b431" points="294.3432,-116.6596 298.8431,-106.6595 294.3432,-111.6596 294.3431,-106.6596 294.3431,-106.6596 294.3431,-106.6596 294.3432,-111.6596 289.8431,-106.6596 294.3432,-116.6596 294.3432,-116.6596"/>
</g>
<!-- User -->
<g id="node5" class="node">
<title>User</title>
<path fill="none" stroke="#000000" d="M446.8431,-376.5C446.8431,-376.5 735.8431,-376.5 735.8431,-376.5 741.8431,-376.5 747.8431,-382.5 747.8431,-388.5 747.8431,-388.5 747.8431,-515.5 747.8431,-515.5 747.8431,-521.5 741.8431,-527.5 735.8431,-527.5 735.8431,-527.5 446.8431,-527.5 446.8431,-527.5 440.8431,-527.5 434.8431,-521.5 434.8431,-515.5 434.8431,-515.5 434.8431,-388.5 434.8431,-388.5 434.8431,-382.5 440.8431,-376.5 446.8431,-376.5"/>
<text text-anchor="middle" x="591.3431" y="-512.3" font-family="Times,serif" font-size="14.00" fill="#000000">User</text>
<polyline fill="none" stroke="#000000" points="434.8431,-504.5 747.8431,-504.5 "/>
<text text-anchor="start" x="442.8431" y="-489.3" font-family="Times,serif" font-size="14.00" fill="#000000">id :bigint</text>
<text text-anchor="start" x="442.8431" y="-474.3" font-family="Times,serif" font-size="14.00" fill="#000000">email :character varying</text>
<text text-anchor="start" x="442.8431" y="-459.3" font-family="Times,serif" font-size="14.00" fill="#000000">encrypted_password :character varying</text>
<text text-anchor="start" x="442.8431" y="-444.3" font-family="Times,serif" font-size="14.00" fill="#000000">reset_password_token :character varying</text>
<text text-anchor="start" x="442.8431" y="-429.3" font-family="Times,serif" font-size="14.00" fill="#000000">reset_password_sent_at :timestamp without time zone</text>
<text text-anchor="start" x="442.8431" y="-414.3" font-family="Times,serif" font-size="14.00" fill="#000000">remember_created_at :timestamp without time zone</text>
<text text-anchor="start" x="442.8431" y="-399.3" font-family="Times,serif" font-size="14.00" fill="#000000">created_at :timestamp without time zone</text>
<text text-anchor="start" x="442.8431" y="-384.3" font-family="Times,serif" font-size="14.00" fill="#000000">updated_at :timestamp without time zone</text>
</g>
</g>
</svg>
