<?xml version="1.0" encoding="UTF-8" standalone="no"?>
<!DOCTYPE svg PUBLIC "-//W3C//DTD SVG 1.1//EN"
 "http://www.w3.org/Graphics/SVG/1.1/DTD/svg11.dtd">
<!-- Generated by graphviz version 2.40.1 (20161225.0304)
 -->
<!-- Title: models_diagram Pages: 1 -->
<svg width="2852pt" height="205pt"
 viewBox="0.00 0.00 2851.84 205.00" xmlns="http://www.w3.org/2000/svg" xmlns:xlink="http://www.w3.org/1999/xlink">
<g id="graph0" class="graph" transform="scale(1 1) rotate(0) translate(4 201)">
<title>models_diagram</title>
<polygon fill="transparent" stroke="transparent" points="-4,4 -4,-201 2847.8431,-201 2847.8431,4 -4,4"/>
<!-- ApplicationRecord -->
<g id="node1" class="node">
<title>ApplicationRecord</title>
<ellipse fill="none" stroke="#000000" cx="77.3431" cy="-98.5" rx="77.1866" ry="18"/>
<text text-anchor="middle" x="77.3431" y="-94.8" font-family="Times,serif" font-size="14.00" fill="#000000">ApplicationRecord</text>
</g>
<!-- City -->
<g id="node2" class="node">
<title>City</title>
<path fill="none" stroke="#000000" d="M184.3431,-45.5C184.3431,-45.5 404.3431,-45.5 404.3431,-45.5 410.3431,-45.5 416.3431,-51.5 416.3431,-57.5 416.3431,-57.5 416.3431,-139.5 416.3431,-139.5 416.3431,-145.5 410.3431,-151.5 404.3431,-151.5 404.3431,-151.5 184.3431,-151.5 184.3431,-151.5 178.3431,-151.5 172.3431,-145.5 172.3431,-139.5 172.3431,-139.5 172.3431,-57.5 172.3431,-57.5 172.3431,-51.5 178.3431,-45.5 184.3431,-45.5"/>
<text text-anchor="middle" x="294.3431" y="-136.3" font-family="Times,serif" font-size="14.00" fill="#000000">City</text>
<polyline fill="none" stroke="#000000" points="172.3431,-128.5 416.3431,-128.5 "/>
<text text-anchor="start" x="180.3431" y="-113.3" font-family="Times,serif" font-size="14.00" fill="#000000">id :bigint</text>
<text text-anchor="start" x="180.3431" y="-98.3" font-family="Times,serif" font-size="14.00" fill="#000000">name :character varying</text>
<text text-anchor="start" x="180.3431" y="-83.3" font-family="Times,serif" font-size="14.00" fill="#000000">state_province_id :bigint</text>
<text text-anchor="start" x="180.3431" y="-68.3" font-family="Times,serif" font-size="14.00" fill="#000000">created_at :timestamp without time zone</text>
<text text-anchor="start" x="180.3431" y="-53.3" font-family="Times,serif" font-size="14.00" fill="#000000">updated_at :timestamp without time zone</text>
</g>
<!-- FavouriteRoute -->
<g id="node3" class="node">
<title>FavouriteRoute</title>
<path fill="none" stroke="#000000" d="M446.3431,-45.5C446.3431,-45.5 666.3431,-45.5 666.3431,-45.5 672.3431,-45.5 678.3431,-51.5 678.3431,-57.5 678.3431,-57.5 678.3431,-139.5 678.3431,-139.5 678.3431,-145.5 672.3431,-151.5 666.3431,-151.5 666.3431,-151.5 446.3431,-151.5 446.3431,-151.5 440.3431,-151.5 434.3431,-145.5 434.3431,-139.5 434.3431,-139.5 434.3431,-57.5 434.3431,-57.5 434.3431,-51.5 440.3431,-45.5 446.3431,-45.5"/>
<text text-anchor="middle" x="556.3431" y="-136.3" font-family="Times,serif" font-size="14.00" fill="#000000">FavouriteRoute</text>
<polyline fill="none" stroke="#000000" points="434.3431,-128.5 678.3431,-128.5 "/>
<text text-anchor="start" x="442.3431" y="-113.3" font-family="Times,serif" font-size="14.00" fill="#000000">id :bigint</text>
<text text-anchor="start" x="442.3431" y="-98.3" font-family="Times,serif" font-size="14.00" fill="#000000">route_id :bigint</text>
<text text-anchor="start" x="442.3431" y="-83.3" font-family="Times,serif" font-size="14.00" fill="#000000">user_id :bigint</text>
<text text-anchor="start" x="442.3431" y="-68.3" font-family="Times,serif" font-size="14.00" fill="#000000">created_at :timestamp without time zone</text>
<text text-anchor="start" x="442.3431" y="-53.3" font-family="Times,serif" font-size="14.00" fill="#000000">updated_at :timestamp without time zone</text>
</g>
<!-- Imageable -->
<g id="node4" class="node">
<title>Imageable</title>
<path fill="none" stroke="#000000" d="M708.3431,-38C708.3431,-38 928.3431,-38 928.3431,-38 934.3431,-38 940.3431,-44 940.3431,-50 940.3431,-50 940.3431,-147 940.3431,-147 940.3431,-153 934.3431,-159 928.3431,-159 928.3431,-159 708.3431,-159 708.3431,-159 702.3431,-159 696.3431,-153 696.3431,-147 696.3431,-147 696.3431,-50 696.3431,-50 696.3431,-44 702.3431,-38 708.3431,-38"/>
<text text-anchor="middle" x="818.3431" y="-143.8" font-family="Times,serif" font-size="14.00" fill="#000000">Imageable</text>
<polyline fill="none" stroke="#000000" points="696.3431,-136 940.3431,-136 "/>
<text text-anchor="start" x="704.3431" y="-120.8" font-family="Times,serif" font-size="14.00" fill="#000000">id :bigint</text>
<text text-anchor="start" x="704.3431" y="-105.8" font-family="Times,serif" font-size="14.00" fill="#000000">imageable_type :character varying</text>
<text text-anchor="start" x="704.3431" y="-90.8" font-family="Times,serif" font-size="14.00" fill="#000000">imageable_id :bigint</text>
<text text-anchor="start" x="704.3431" y="-75.8" font-family="Times,serif" font-size="14.00" fill="#000000">photo :character varying</text>
<text text-anchor="start" x="704.3431" y="-60.8" font-family="Times,serif" font-size="14.00" fill="#000000">created_at :timestamp without time zone</text>
<text text-anchor="start" x="704.3431" y="-45.8" font-family="Times,serif" font-size="14.00" fill="#000000">updated_at :timestamp without time zone</text>
</g>
<!-- Reviewable -->
<g id="node5" class="node">
<title>Reviewable</title>
<path fill="none" stroke="#000000" d="M970.3431,-15.5C970.3431,-15.5 1190.3431,-15.5 1190.3431,-15.5 1196.3431,-15.5 1202.3431,-21.5 1202.3431,-27.5 1202.3431,-27.5 1202.3431,-169.5 1202.3431,-169.5 1202.3431,-175.5 1196.3431,-181.5 1190.3431,-181.5 1190.3431,-181.5 970.3431,-181.5 970.3431,-181.5 964.3431,-181.5 958.3431,-175.5 958.3431,-169.5 958.3431,-169.5 958.3431,-27.5 958.3431,-27.5 958.3431,-21.5 964.3431,-15.5 970.3431,-15.5"/>
<text text-anchor="middle" x="1080.3431" y="-166.3" font-family="Times,serif" font-size="14.00" fill="#000000">Reviewable</text>
<polyline fill="none" stroke="#000000" points="958.3431,-158.5 1202.3431,-158.5 "/>
<text text-anchor="start" x="966.3431" y="-143.3" font-family="Times,serif" font-size="14.00" fill="#000000">id :bigint</text>
<text text-anchor="start" x="966.3431" y="-128.3" font-family="Times,serif" font-size="14.00" fill="#000000">user_id :bigint</text>
<text text-anchor="start" x="966.3431" y="-113.3" font-family="Times,serif" font-size="14.00" fill="#000000">reviewable_type :character varying</text>
<text text-anchor="start" x="966.3431" y="-98.3" font-family="Times,serif" font-size="14.00" fill="#000000">reviewable_id :bigint</text>
<text text-anchor="start" x="966.3431" y="-83.3" font-family="Times,serif" font-size="14.00" fill="#000000">title :character varying</text>
<text text-anchor="start" x="966.3431" y="-68.3" font-family="Times,serif" font-size="14.00" fill="#000000">description :text</text>
<text text-anchor="start" x="966.3431" y="-53.3" font-family="Times,serif" font-size="14.00" fill="#000000">rating :integer</text>
<text text-anchor="start" x="966.3431" y="-38.3" font-family="Times,serif" font-size="14.00" fill="#000000">created_at :timestamp without time zone</text>
<text text-anchor="start" x="966.3431" y="-23.3" font-family="Times,serif" font-size="14.00" fill="#000000">updated_at :timestamp without time zone</text>
</g>
<!-- Route -->
<g id="node6" class="node">
<title>Route</title>
<path fill="none" stroke="#000000" d="M1232.3431,-.5C1232.3431,-.5 1452.3431,-.5 1452.3431,-.5 1458.3431,-.5 1464.3431,-6.5 1464.3431,-12.5 1464.3431,-12.5 1464.3431,-184.5 1464.3431,-184.5 1464.3431,-190.5 1458.3431,-196.5 1452.3431,-196.5 1452.3431,-196.5 1232.3431,-196.5 1232.3431,-196.5 1226.3431,-196.5 1220.3431,-190.5 1220.3431,-184.5 1220.3431,-184.5 1220.3431,-12.5 1220.3431,-12.5 1220.3431,-6.5 1226.3431,-.5 1232.3431,-.5"/>
<text text-anchor="middle" x="1342.3431" y="-181.3" font-family="Times,serif" font-size="14.00" fill="#000000">Route</text>
<polyline fill="none" stroke="#000000" points="1220.3431,-173.5 1464.3431,-173.5 "/>
<text text-anchor="start" x="1228.3431" y="-158.3" font-family="Times,serif" font-size="14.00" fill="#000000">id :bigint</text>
<text text-anchor="start" x="1228.3431" y="-143.3" font-family="Times,serif" font-size="14.00" fill="#000000">name :character varying</text>
<text text-anchor="start" x="1228.3431" y="-128.3" font-family="Times,serif" font-size="14.00" fill="#000000">longitude :double precision</text>
<text text-anchor="start" x="1228.3431" y="-113.3" font-family="Times,serif" font-size="14.00" fill="#000000">latitude :double precision</text>
<text text-anchor="start" x="1228.3431" y="-98.3" font-family="Times,serif" font-size="14.00" fill="#000000">description :text</text>
<text text-anchor="start" x="1228.3431" y="-83.3" font-family="Times,serif" font-size="14.00" fill="#000000">type :character varying</text>
<text text-anchor="start" x="1228.3431" y="-68.3" font-family="Times,serif" font-size="14.00" fill="#000000">style :character varying</text>
<text text-anchor="start" x="1228.3431" y="-53.3" font-family="Times,serif" font-size="14.00" fill="#000000">level :character varying</text>
<text text-anchor="start" x="1228.3431" y="-38.3" font-family="Times,serif" font-size="14.00" fill="#000000">rating :integer</text>
<text text-anchor="start" x="1228.3431" y="-23.3" font-family="Times,serif" font-size="14.00" fill="#000000">created_at :timestamp without time zone</text>
<text text-anchor="start" x="1228.3431" y="-8.3" font-family="Times,serif" font-size="14.00" fill="#000000">updated_at :timestamp without time zone</text>
</g>
<!-- RouteTrip -->
<g id="node7" class="node">
<title>RouteTrip</title>
<path fill="none" stroke="#000000" d="M1494.3431,-45.5C1494.3431,-45.5 1714.3431,-45.5 1714.3431,-45.5 1720.3431,-45.5 1726.3431,-51.5 1726.3431,-57.5 1726.3431,-57.5 1726.3431,-139.5 1726.3431,-139.5 1726.3431,-145.5 1720.3431,-151.5 1714.3431,-151.5 1714.3431,-151.5 1494.3431,-151.5 1494.3431,-151.5 1488.3431,-151.5 1482.3431,-145.5 1482.3431,-139.5 1482.3431,-139.5 1482.3431,-57.5 1482.3431,-57.5 1482.3431,-51.5 1488.3431,-45.5 1494.3431,-45.5"/>
<text text-anchor="middle" x="1604.3431" y="-136.3" font-family="Times,serif" font-size="14.00" fill="#000000">RouteTrip</text>
<polyline fill="none" stroke="#000000" points="1482.3431,-128.5 1726.3431,-128.5 "/>
<text text-anchor="start" x="1490.3431" y="-113.3" font-family="Times,serif" font-size="14.00" fill="#000000">id :bigint</text>
<text text-anchor="start" x="1490.3431" y="-98.3" font-family="Times,serif" font-size="14.00" fill="#000000">route_id :bigint</text>
<text text-anchor="start" x="1490.3431" y="-83.3" font-family="Times,serif" font-size="14.00" fill="#000000">trip_id :bigint</text>
<text text-anchor="start" x="1490.3431" y="-68.3" font-family="Times,serif" font-size="14.00" fill="#000000">created_at :timestamp without time zone</text>
<text text-anchor="start" x="1490.3431" y="-53.3" font-family="Times,serif" font-size="14.00" fill="#000000">updated_at :timestamp without time zone</text>
</g>
<!-- Site -->
<g id="node8" class="node">
<title>Site</title>
<path fill="none" stroke="#000000" d="M1756.3431,-45.5C1756.3431,-45.5 1976.3431,-45.5 1976.3431,-45.5 1982.3431,-45.5 1988.3431,-51.5 1988.3431,-57.5 1988.3431,-57.5 1988.3431,-139.5 1988.3431,-139.5 1988.3431,-145.5 1982.3431,-151.5 1976.3431,-151.5 1976.3431,-151.5 1756.3431,-151.5 1756.3431,-151.5 1750.3431,-151.5 1744.3431,-145.5 1744.3431,-139.5 1744.3431,-139.5 1744.3431,-57.5 1744.3431,-57.5 1744.3431,-51.5 1750.3431,-45.5 1756.3431,-45.5"/>
<text text-anchor="middle" x="1866.3431" y="-136.3" font-family="Times,serif" font-size="14.00" fill="#000000">Site</text>
<polyline fill="none" stroke="#000000" points="1744.3431,-128.5 1988.3431,-128.5 "/>
<text text-anchor="start" x="1752.3431" y="-113.3" font-family="Times,serif" font-size="14.00" fill="#000000">id :bigint</text>
<text text-anchor="start" x="1752.3431" y="-98.3" font-family="Times,serif" font-size="14.00" fill="#000000">city_id :bigint</text>
<text text-anchor="start" x="1752.3431" y="-83.3" font-family="Times,serif" font-size="14.00" fill="#000000">name :character varying</text>
<text text-anchor="start" x="1752.3431" y="-68.3" font-family="Times,serif" font-size="14.00" fill="#000000">created_at :timestamp without time zone</text>
<text text-anchor="start" x="1752.3431" y="-53.3" font-family="Times,serif" font-size="14.00" fill="#000000">updated_at :timestamp without time zone</text>
</g>
<!-- StateProvince -->
<g id="node9" class="node">
<title>StateProvince</title>
<path fill="none" stroke="#000000" d="M2018.3431,-53C2018.3431,-53 2238.3431,-53 2238.3431,-53 2244.3431,-53 2250.3431,-59 2250.3431,-65 2250.3431,-65 2250.3431,-132 2250.3431,-132 2250.3431,-138 2244.3431,-144 2238.3431,-144 2238.3431,-144 2018.3431,-144 2018.3431,-144 2012.3431,-144 2006.3431,-138 2006.3431,-132 2006.3431,-132 2006.3431,-65 2006.3431,-65 2006.3431,-59 2012.3431,-53 2018.3431,-53"/>
<text text-anchor="middle" x="2128.3431" y="-128.8" font-family="Times,serif" font-size="14.00" fill="#000000">StateProvince</text>
<polyline fill="none" stroke="#000000" points="2006.3431,-121 2250.3431,-121 "/>
<text text-anchor="start" x="2014.3431" y="-105.8" font-family="Times,serif" font-size="14.00" fill="#000000">id :bigint</text>
<text text-anchor="start" x="2014.3431" y="-90.8" font-family="Times,serif" font-size="14.00" fill="#000000">name :character varying</text>
<text text-anchor="start" x="2014.3431" y="-75.8" font-family="Times,serif" font-size="14.00" fill="#000000">created_at :timestamp without time zone</text>
<text text-anchor="start" x="2014.3431" y="-60.8" font-family="Times,serif" font-size="14.00" fill="#000000">updated_at :timestamp without time zone</text>
</g>
<!-- Trip -->
<g id="node10" class="node">
<title>Trip</title>
<path fill="none" stroke="#000000" d="M2280.3431,-38C2280.3431,-38 2500.3431,-38 2500.3431,-38 2506.3431,-38 2512.3431,-44 2512.3431,-50 2512.3431,-50 2512.3431,-147 2512.3431,-147 2512.3431,-153 2506.3431,-159 2500.3431,-159 2500.3431,-159 2280.3431,-159 2280.3431,-159 2274.3431,-159 2268.3431,-153 2268.3431,-147 2268.3431,-147 2268.3431,-50 2268.3431,-50 2268.3431,-44 2274.3431,-38 2280.3431,-38"/>
<text text-anchor="middle" x="2390.3431" y="-143.8" font-family="Times,serif" font-size="14.00" fill="#000000">Trip</text>
<polyline fill="none" stroke="#000000" points="2268.3431,-136 2512.3431,-136 "/>
<text text-anchor="start" x="2276.3431" y="-120.8" font-family="Times,serif" font-size="14.00" fill="#000000">id :bigint</text>
<text text-anchor="start" x="2276.3431" y="-105.8" font-family="Times,serif" font-size="14.00" fill="#000000">start_date :character varying</text>
<text text-anchor="start" x="2276.3431" y="-90.8" font-family="Times,serif" font-size="14.00" fill="#000000">end_date :character varying</text>
<text text-anchor="start" x="2276.3431" y="-75.8" font-family="Times,serif" font-size="14.00" fill="#000000">weather :character varying</text>
<text text-anchor="start" x="2276.3431" y="-60.8" font-family="Times,serif" font-size="14.00" fill="#000000">created_at :timestamp without time zone</text>
<text text-anchor="start" x="2276.3431" y="-45.8" font-family="Times,serif" font-size="14.00" fill="#000000">updated_at :timestamp without time zone</text>
</g>
<!-- User -->
<g id="node11" class="node">
<title>User</title>
<path fill="none" stroke="#000000" d="M2542.8431,-23C2542.8431,-23 2831.8431,-23 2831.8431,-23 2837.8431,-23 2843.8431,-29 2843.8431,-35 2843.8431,-35 2843.8431,-162 2843.8431,-162 2843.8431,-168 2837.8431,-174 2831.8431,-174 2831.8431,-174 2542.8431,-174 2542.8431,-174 2536.8431,-174 2530.8431,-168 2530.8431,-162 2530.8431,-162 2530.8431,-35 2530.8431,-35 2530.8431,-29 2536.8431,-23 2542.8431,-23"/>
<text text-anchor="middle" x="2687.3431" y="-158.8" font-family="Times,serif" font-size="14.00" fill="#000000">User</text>
<polyline fill="none" stroke="#000000" points="2530.8431,-151 2843.8431,-151 "/>
<text text-anchor="start" x="2538.8431" y="-135.8" font-family="Times,serif" font-size="14.00" fill="#000000">id :bigint</text>
<text text-anchor="start" x="2538.8431" y="-120.8" font-family="Times,serif" font-size="14.00" fill="#000000">email :character varying</text>
<text text-anchor="start" x="2538.8431" y="-105.8" font-family="Times,serif" font-size="14.00" fill="#000000">encrypted_password :character varying</text>
<text text-anchor="start" x="2538.8431" y="-90.8" font-family="Times,serif" font-size="14.00" fill="#000000">reset_password_token :character varying</text>
<text text-anchor="start" x="2538.8431" y="-75.8" font-family="Times,serif" font-size="14.00" fill="#000000">reset_password_sent_at :timestamp without time zone</text>
<text text-anchor="start" x="2538.8431" y="-60.8" font-family="Times,serif" font-size="14.00" fill="#000000">remember_created_at :timestamp without time zone</text>
<text text-anchor="start" x="2538.8431" y="-45.8" font-family="Times,serif" font-size="14.00" fill="#000000">created_at :timestamp without time zone</text>
<text text-anchor="start" x="2538.8431" y="-30.8" font-family="Times,serif" font-size="14.00" fill="#000000">updated_at :timestamp without time zone</text>
</g>
</g>
</svg>
